NotoSansGeorgian.glyphspackage
{
glyphname = "period-arm";
kernRight = uni0535;
layers = (
{
layerId = m001;
shapes = (
{
closed = 1;
nodes = (
(71,6,o),
(76,-8,o),
(96,-8,cs),
(120,-8,o),
(123,6,o),
(123,23,cs),
(123,39,o),
(120,54,o),
(96,54,cs),
(76,54,o),
(71,39,o),
(71,23,cs)
);
},
{
closed = 1;
nodes = (
(71,438,o),
(76,424,o),
(96,424,cs),
(120,424,o),
(123,438,o),
(123,455,cs),
(123,471,o),
(120,486,o),
(96,486,cs),
(76,486,o),
(71,471,o),
(71,455,cs)
);
}
);
width = 193;
},
{
layerId = m002;
shapes = (
{
closed = 1;
nodes = (
(72,6,o),
(99,-14,o),
(133,-14,cs),
(167,-14,o),
(196,6,o),
(196,54,cs),
(196,103,o),
(167,121,o),
(133,121,cs),
(99,121,o),
(72,103,o),
(72,54,cs)
);
},
{
closed = 1;
nodes = (
(72,434,o),
(99,414,o),
(133,414,cs),
(167,414,o),
(196,434,o),
(196,482,cs),
(196,532,o),
(167,550,o),
(133,550,cs),
(99,550,o),
(72,532,o),
(72,482,cs)
);
}
);
width = 268;
},
{
layerId = m004;
shapes = (
{
closed = 1;
nodes = (
(42,15,o),
(89,-12,o),
(146,-12,cs),
(200,-12,o),
(246,15,o),
(246,81,cs),
(246,150,o),
(200,175,o),
(146,175,cs),
(89,175,o),
(42,150,o),
(42,81,c)
);
},
{
closed = 1;
nodes = (
(42,400,o),
(89,373,o),
(146,373,cs),
(200,373,o),
(246,400,o),
(246,467,cs),
(246,535,o),
(200,560,o),
(146,560,cs),
(89,560,o),
(42,535,o),
(42,467,c)
);
}
);
width = 289;
},
{
layerId = m005;
shapes = (
{
closed = 1;
nodes = (
(65,12,o),
(67,-5,o),
(90,-5,cs),
(112,-5,o),
(116,11,o),
(116,31,cs),
(116,50,o),
(112,66,o),
(90,66,cs),
(69,66,o),
(65,50,o),
(65,31,cs)
);
},
{
closed = 1;
nodes = (
(65,476,o),
(70,461,o),
(90,461,cs),
(108,461,o),
(116,474,o),
(116,497,cs),
(116,521,o),
(109,532,o),
(91,532,cs),
(70,532,o),
(65,516,o),
(65,496,cs)
);
}
);
width = 180;
},
{
layerId = m006;
shapes = (
{
closed = 1;
nodes = (
(59,16,o),
(74,-8,o),
(111,-8,cs),
(146,-8,o),
(161,15,o),
(161,51,cs),
(161,86,o),
(147,109,o),
(111,109,cs),
(74,109,o),
(59,86,o),
(59,51,cs)
);
},
{
closed = 1;
nodes = (
(59,449,o),
(76,427,o),
(111,427,cs),
(143,427,o),
(161,448,o),
(161,485,cs),
(161,523,o),
(145,543,o),
(111,543,cs),
(75,543,o),
(59,520,o),
(59,485,cs)
);
}
);
width = 219;
},
{
layerId = m008;
shapes = (
{
closed = 1;
nodes = (
(49,22,o),
(84,-12,o),
(142,-12,cs),
(198,-12,o),
(231,22,o),
(231,81,cs),
(231,141,o),
(200,175,o),
(142,175,cs),
(81,175,o),
(49,141,o),
(49,81,cs)
);
},
{
closed = 1;
nodes = (
(49,408,o),
(84,374,o),
(142,374,cs),
(198,374,o),
(231,408,o),
(231,467,cs),
(231,527,o),
(200,561,o),
(142,561,cs),
(81,561,o),
(49,527,o),
(49,467,cs)
);
}
);
width = 280;
}
);
note = uni0589;
unicode = 1417;
}
{
glyphname = "An-oldgeorgian";
kernLeft = "Don-oldgeorgian";
layers = (
{
layerId = m001;
shapes = (
{
closed = 1;
nodes = (
(471,-10,o),
(532,4,o),
(576,21,c),
(576,44,l),
(528,27,o),
(469,15,o),
(392,15,cs),
(208,15,o),
(91,138,o),
(91,346,cs),
(91,543,o),
(202,689,o),
(440,689,cs),
(576,689,l),
(576,714,l),
(80,714,l),
(80,691,l),
(297,691,l),
(297,689,l),
(154,648,o),
(64,528,o),
(64,346,cs),
(64,126,o),
(188,-10,o),
(392,-10,cs)
);
}
);
userData = {
com.schriftgestaltung.Glyphs.glyph.leftMetricsKey = "Don-oldgeorgian";
};
width = 627;
},
{
layerId = m002;
shapes = (
{
closed = 1;
nodes = (
(475,-10,o),
(527,-1,o),
(580,19,c),
(580,97,l),
(526,81,o),
(471,69,o),
(409,69,cs),
(245,69,o),
(156,167,o),
(156,339,cs),
(156,517,o),
(266,636,o),
(454,636,cs),
(580,636,l),
(580,714,l),
(79,714,l),
(79,640,l),
(244,640,l),
(244,637,l),
(139,587,o),
(61,476,o),
(61,328,cs),
(61,122,o),
(196,-10,o),
(396,-10,cs)
);
}
);
userData = {
com.schriftgestaltung.Glyphs.glyph.leftMetricsKey = "Don-oldgeorgian";
};
width = 631;
},
{
layerId = m003;
shapes = (
{
closed = 1;
nodes = (
(474,-10,o),
(534,1,o),
(593,26,c),
(593,154,l),
(536,133,o),
(479,116,o),
(416,116,cs),
(294,116,o),
(217,197,o),
(217,334,cs),
(217,483,o),
(304,588,o),
(461,588,cs),
(593,588,l),
(593,714,l),
(76,714,l),
(76,593,l),
(204,593,l),
(204,589,l),
(122,539,o),
(58,439,o),
(58,315,cs),
(58,121,o),
(198,-10,o),
(405,-10,cs)
);
}
);
userData = {
com.schriftgestaltung.Glyphs.glyph.leftMetricsKey = "Don-oldgeorgian";
};
width = 637;
},
{
layerId = m004;
shapes = (
{
closed = 1;
nodes = (
(469,-10,o),
(534,2,o),
(597,30,c),
(597,193,l),
(537,168,o),
(479,148,o),
(416,148,cs),
(322,148,o),
(253,216,o),
(253,331,cs),
(253,459,o),
(326,556,o),
(461,556,cs),
(597,556,l),
(597,714,l),
(69,714,l),
(69,561,l),
(172,561,l),
(172,557,l),
(98,505,o),
(51,414,o),
(51,306,cs),
(51,120,o),
(195,-10,o),
(405,-10,cs)
);
}
);
userData = {
com.schriftgestaltung.Glyphs.glyph.leftMetricsKey = "Don-oldgeorgian";
};
width = 641;
},
{
layerId = m005;
shapes = (
{
closed = 1;
nodes = (
(307,-10,o),
(345,1,o),
(370,16,c),
(370,43,l),
(350,31,o),
(314,15,o),
(269,15,cs),
(151,15,o),
(81,134,o),
(81,347,cs),
(81,543,o),
(163,689,o),
(311,689,cs),
(370,689,l),
(370,714,l),
(94,714,l),
(94,690,l),
(221,690,l),
(221,688,l),
(115,647,o),
(54,523,o),
(54,347,cs),
(54,126,o),
(130,-10,o),
(269,-10,cs)
);
}
);
userData = {
com.schriftgestaltung.Glyphs.glyph.leftMetricsKey = "Don-oldgeorgian";
};
width = 412;
},
{
layerId = m006;
shapes = (
{
closed = 1;
nodes = (
(330,-10,o),
(369,-1,o),
(401,17,c),
(401,93,l),
(369,77,o),
(334,66,o),
(294,66,cs),
(198,66,o),
(133,161,o),
(133,340,cs),
(133,514,o),
(207,638,o),
(321,638,cs),
(401,638,l),
(401,714,l),
(67,714,l),
(67,641,l),
(173,641,l),
(173,638,l),
(98,594,o),
(48,483,o),
(48,337,cs),
(48,123,o),
(132,-10,o),
(284,-10,cs)
);
}
);
userData = {
com.schriftgestaltung.Glyphs.glyph.leftMetricsKey = "Don-oldgeorgian";
};
width = 441;
},
{
layerId = m007;
shapes = (
{
closed = 1;
nodes = (
(354,-10,o),
(402,1,o),
(443,25,c),
(443,148,l),
(404,126,o),
(365,109,o),
(321,109,cs),
(229,109,o),
(185,185,o),
(185,339,cs),
(185,493,o),
(244,595,o),
(357,595,cs),
(443,595,l),
(443,714,l),
(62,714,l),
(62,597,l),
(158,597,l),
(158,593,l),
(87,547,o),
(43,451,o),
(43,328,cs),
(43,120,o),
(134,-10,o),
(300,-10,cs)
);
}
);
userData = {
com.schriftgestaltung.Glyphs.glyph.leftMetricsKey = "Don-oldgeorgian";
};
width = 476;
},
{
layerId = m008;
shapes = (
{
closed = 1;
nodes = (
(368,-10,o),
(421,3,o),
(467,30,c),
(467,182,l),
(424,157,o),
(382,137,o),
(336,137,cs),
(247,137,o),
(216,202,o),
(216,339,cs),
(216,478,o),
(266,567,o),
(378,567,cs),
(467,567,l),
(467,714,l),
(58,714,l),
(58,569,l),
(147,569,l),
(147,565,l),
(79,517,o),
(39,431,o),
(39,321,cs),
(39,118,o),
(135,-10,o),
(309,-10,cs)
);
}
);
userData = {
com.schriftgestaltung.Glyphs.glyph.leftMetricsKey = "Don-oldgeorgian";
};
width = 497;
}
);
note = uni10A0;
unicode = 4256;
}
{
glyphname = "Ban-oldgeorgian";
kernLeft = "Ban-oldgeorgian";
kernRight = "Ban-oldgeorgian";
layers = (
{
layerId = m001;
shapes = (
{
closed = 1;
nodes = (
(709,0,l),
(709,25,l),
(517,25,l),
(517,714,l),
(491,714,l),
(491,486,ls),
(491,309,o),
(396,244,o),
(281,244,cs),
(158,244,o),
(86,333,o),
(86,457,cs),
(86,572,o),
(116,646,o),
(165,714,c),
(133,714,l),
(83,635,o),
(59,566,o),
(59,457,cs),
(59,309,o),
(150,218,o),
(281,218,cs),
(379,218,o),
(459,266,o),
(491,353,c),
(493,353,l),
(492,329,o),
(491,274,o),
(491,233,cs),
(491,0,l)
);
}
);
userData = {
com.schriftgestaltung.Glyphs.glyph.leftMetricsKey = "=Don-oldgeorgian-5";
com.schriftgestaltung.Glyphs.glyph.rightMetricsKey = "Gan-oldgeorgian";
};
width = 719;
},
{
layerId = m002;
shapes = (
{
closed = 1;
nodes = (
(767,0,l),
(767,78,l),
(581,78,l),
(581,714,l),
(491,714,l),
(491,507,ls),
(491,356,o),
(431,293,o),
(300,293,cs),
(198,293,o),
(151,358,o),
(151,469,cs),
(151,561,o),
(187,659,o),
(235,714,c),
(130,714,l),
(81,635,o),
(56,554,o),
(56,470,cs),
(56,308,o),
(140,215,o),
(286,215,cs),
(371,215,o),
(451,253,o),
(490,312,c),
(495,312,l),
(492,274,o),
(490,250,o),
(490,242,cs),
(490,0,l)
);
}
);
userData = {
com.schriftgestaltung.Glyphs.glyph.leftMetricsKey = "=Don-oldgeorgian-5";
com.schriftgestaltung.Glyphs.glyph.rightMetricsKey = "Gan-oldgeorgian";
};
width = 777;
},
{
layerId = m003;
shapes = (
{
closed = 1;
nodes = (
(852,0,l),
(852,124,l),
(644,124,l),
(644,714,l),
(493,714,l),
(493,527,ls),
(493,401,o),
(443,338,o),
(342,338,cs),
(250,338,o),
(209,382,o),
(209,489,cs),
(209,574,o),
(235,659,o),
(276,714,c),
(120,714,l),
(82,660,o),
(53,564,o),
(53,482,cs),
(53,313,o),
(145,212,o),
(298,212,cs),
(385,212,o),
(450,245,o),
(492,311,c),
(500,311,l),
(496,260,o),
(493,217,o),
(493,182,cs),
(493,0,l)
);
}
);
userData = {
com.schriftgestaltung.Glyphs.glyph.leftMetricsKey = "=Don-oldgeorgian-5";
com.schriftgestaltung.Glyphs.glyph.rightMetricsKey = "Gan-oldgeorgian";
};
width = 857;
},
{
layerId = m004;
shapes = (
{
closed = 1;
nodes = (
(875,0,l),
(875,157,l),
(673,155,l),
(673,714,l),
(479,714,l),
(479,528,ls),
(479,415,o),
(431,360,o),
(354,360,cs),
(285,360,o),
(240,396,o),
(240,473,cs),
(240,555,o),
(264,640,o),
(307,714,c),
(104,714,l),
(66,640,o),
(46,556,o),
(46,461,cs),
(46,300,o),
(145,203,o),
(295,203,cs),
(381,203,o),
(445,238,o),
(483,290,c),
(488,290,l),
(481,231,o),
(479,179,o),
(479,133,cs),
(479,0,l)
);
}
);
userData = {
com.schriftgestaltung.Glyphs.glyph.leftMetricsKey = "=Don-oldgeorgian-5";
com.schriftgestaltung.Glyphs.glyph.rightMetricsKey = "Gan-oldgeorgian";
};
width = 875;
},
{
layerId = m005;
shapes = (
{
closed = 1;
nodes = (
(492,0,l),
(492,25,l),
(358,25,l),
(358,714,l),
(332,714,l),
(332,484,ls),
(332,300,o),
(274,243,o),
(196,243,cs),
(113,243,o),
(76,327,o),
(76,450,cs),
(76,566,o),
(97,644,o),
(129,714,c),
(100,714,l),
(66,635,o),
(49,560,o),
(49,450,cs),
(49,304,o),
(102,218,o),
(196,218,cs),
(261,218,o),
(310,255,o),
(332,333,c),
(334,333,l),
(333,311,o),
(332,263,o),
(332,218,cs),
(332,0,l)
);
}
);
userData = {
com.schriftgestaltung.Glyphs.glyph.leftMetricsKey = "=Don-oldgeorgian-5";
com.schriftgestaltung.Glyphs.glyph.rightMetricsKey = "Gan-oldgeorgian";
};
width = 502;
},
{
layerId = m006;
shapes = (
{
closed = 1;
nodes = (
(573,0,l),
(573,73,l),
(432,73,l),
(432,714,l),
(349,714,l),
(349,501,ls),
(349,341,o),
(301,283,o),
(232,283,cs),
(162,283,o),
(128,350,o),
(128,461,cs),
(128,566,o),
(147,644,o),
(177,714,c),
(91,714,l),
(60,638,o),
(43,561,o),
(43,460,cs),
(43,306,o),
(106,214,o),
(209,214,cs),
(278,214,o),
(324,250,o),
(350,322,c),
(354,322,l),
(351,288,o),
(349,241,o),
(349,198,cs),
(349,0,l)
);
}
);
userData = {
com.schriftgestaltung.Glyphs.glyph.leftMetricsKey = "=Don-oldgeorgian-5";
com.schriftgestaltung.Glyphs.glyph.rightMetricsKey = "Gan-oldgeorgian";
};
width = 583;
},
{
layerId = m007;
shapes = (
{
closed = 1;
nodes = (
(661,0,l),
(661,120,l),
(503,120,l),
(503,714,l),
(367,714,l),
(367,517,ls),
(367,380,o),
(327,321,o),
(267,321,cs),
(209,321,o),
(178,372,o),
(178,471,cs),
(178,567,o),
(195,643,o),
(224,714,c),
(84,714,l),
(56,641,o),
(38,562,o),
(38,469,cs),
(38,308,o),
(110,211,o),
(222,211,cs),
(294,211,o),
(339,246,o),
(368,312,c),
(373,312,l),
(369,265,o),
(367,220,o),
(367,179,cs),
(367,0,l)
);
}
);
userData = {
com.schriftgestaltung.Glyphs.glyph.leftMetricsKey = "=Don-oldgeorgian-5";
com.schriftgestaltung.Glyphs.glyph.rightMetricsKey = "Gan-oldgeorgian";
};
width = 666;
},
{
layerId = m008;
shapes = (
{
closed = 1;
nodes = (
(705,0,l),
(705,149,l),
(547,149,l),
(547,714,l),
(377,714,l),
(377,527,ls),
(377,405,o),
(343,345,o),
(289,345,cs),
(238,345,o),
(209,386,o),
(209,477,cs),
(209,567,o),
(225,643,o),
(253,714,c),
(78,714,l),
(52,643,o),
(34,563,o),
(34,475,cs),
(34,309,o),
(112,209,o),
(230,209,cs),
(304,209,o),
(347,243,o),
(379,305,c),
(385,305,l),
(380,251,o),
(377,206,o),
(377,167,cs),
(377,0,l)
);
}
);
userData = {
com.schriftgestaltung.Glyphs.glyph.leftMetricsKey = "=Don-oldgeorgian-5";
com.schriftgestaltung.Glyphs.glyph.rightMetricsKey = "Gan-oldgeorgian";
};
width = 705;
}
);
note = uni10A1;
unicode = 4257;
}
{
glyphname = "Don-oldgeorgian";
kernLeft = "Don-oldgeorgian";
kernRight = "Don-oldgeorgian";
layers = (
{
layerId = m001;
shapes = (
{
closed = 1;
nodes = (
(566,-10,o),
(685,105,o),
(685,283,cs),
(685,452,o),
(564,569,o),
(390,573,c),
(390,689,l),
(638,689,l),
(638,714,l),
(111,714,l),
(111,689,l),
(363,689,l),
(363,573,l),
(194,566,o),
(64,452,o),
(64,282,cs),
(64,112,o),
(176,-10,o),
(371,-10,cs)
);
},
{
closed = 1;
nodes = (
(204,16,o),
(91,114,o),
(91,282,cs),
(91,446,o),
(216,549,o),
(378,549,cs),
(540,549,o),
(658,446,o),
(658,282,cs),
(658,115,o),
(543,16,o),
(371,16,cs)
);
}
);
width = 749;
},
{
layerId = m002;
shapes = (
{
closed = 1;
nodes = (
(584,-10,o),
(702,99,o),
(702,281,cs),
(702,449,o),
(601,558,o),
(427,572,c),
(427,635,l),
(669,635,l),
(669,714,l),
(94,714,l),
(94,635,l),
(337,635,l),
(337,572,l),
(166,557,o),
(61,447,o),
(61,281,cs),
(61,102,o),
(181,-10,o),
(380,-10,cs)
);
},
{
closed = 1;
nodes = (
(236,69,o),
(156,144,o),
(156,282,cs),
(156,421,o),
(237,496,o),
(381,496,cs),
(526,496,o),
(607,419,o),
(607,282,cs),
(607,143,o),
(525,69,o),
(380,69,cs)
);
}
);
width = 763;
},
{
layerId = m003;
shapes = (
{
closed = 1;
nodes = (
(597,-10,o),
(718,93,o),
(718,268,cs),
(718,426,o),
(625,523,o),
(457,542,c),
(457,590,l),
(698,590,l),
(698,714,l),
(78,714,l),
(78,590,l),
(319,590,l),
(319,542,l),
(149,522,o),
(58,429,o),
(58,269,cs),
(58,92,o),
(179,-10,o),
(388,-10,cs)
);
},
{
closed = 1;
nodes = (
(271,114,o),
(214,168,o),
(214,268,cs),
(214,371,o),
(274,425,o),
(389,425,cs),
(504,425,o),
(562,373,o),
(562,268,cs),
(562,165,o),
(504,114,o),
(388,114,cs)
);
}
);
width = 776;
},
{
layerId = m004;
shapes = (
{
closed = 1;
nodes = (
(620,-10,o),
(727,97,o),
(727,261,cs),
(727,402,o),
(652,500,o),
(486,525,c),
(486,559,l),
(710,559,l),
(710,714,l),
(68,714,l),
(68,559,l),
(293,559,l),
(293,524,l),
(132,499,o),
(51,402,o),
(51,262,cs),
(51,96,o),
(159,-10,o),
(389,-10,cs)
);
},
{
closed = 1;
nodes = (
(296,147,o),
(254,192,o),
(254,262,cs),
(254,332,o),
(295,378,o),
(390,378,cs),
(485,378,o),
(524,332,o),
(524,262,cs),
(524,192,o),
(485,147,o),
(389,147,cs)
);
}
);
width = 779;
},
{
layerId = m005;
shapes = (
{
closed = 1;
nodes = (
(391,-10,o),
(463,106,o),
(463,283,cs),
(463,455,o),
(386,568,o),
(272,573,c),
(272,689,l),
(434,689,l),
(434,714,l),
(83,714,l),
(83,689,l),
(246,689,l),
(246,573,l),
(135,568,o),
(54,455,o),
(54,282,cs),
(54,106,o),
(122,-10,o),
(257,-10,cs)
);
},
{
closed = 1;
nodes = (
(145,15,o),
(81,110,o),
(81,282,cs),
(81,449,o),
(157,550,o),
(260,550,cs),
(364,550,o),
(436,449,o),
(436,283,cs),
(436,111,o),
(369,15,o),
(257,15,cs)
);
}
);
width = 517;
},
{
layerId = m006;
shapes = (
{
closed = 1;
nodes = (
(426,-10,o),
(506,107,o),
(506,276,cs),
(506,435,o),
(431,541,o),
(317,554,c),
(317,638,l),
(485,638,l),
(485,714,l),
(69,714,l),
(69,638,l),
(238,638,l),
(238,554,l),
(125,541,o),
(48,435,o),
(48,276,cs),
(48,107,o),
(125,-10,o),
(276,-10,cs)
);
},
{
closed = 1;
nodes = (
(185,63,o),
(134,139,o),
(134,275,cs),
(134,410,o),
(193,486,o),
(279,486,cs),
(365,486,o),
(421,410,o),
(421,276,cs),
(421,139,o),
(369,63,o),
(277,63,cs)
);
}
);
width = 554;
},
{
layerId = m007;
shapes = (
{
closed = 1;
nodes = (
(461,-10,o),
(547,108,o),
(547,270,cs),
(547,416,o),
(475,515,o),
(360,536,c),
(360,595,l),
(534,595,l),
(534,714,l),
(56,714,l),
(56,595,l),
(230,595,l),
(230,536,l),
(116,515,o),
(43,416,o),
(43,271,cs),
(43,108,o),
(128,-10,o),
(296,-10,cs)
);
},
{
closed = 1;
nodes = (
(223,110,o),
(184,166,o),
(184,269,cs),
(184,372,o),
(226,425,o),
(296,425,cs),
(366,425,o),
(406,372,o),
(406,269,cs),
(406,167,o),
(368,110,o),
(295,110,cs)
);
}
);
width = 589;
},
{
layerId = m008;
shapes = (
{
closed = 1;
nodes = (
(482,-10,o),
(573,109,o),
(573,266,cs),
(573,404,o),
(502,499,o),
(387,525,c),
(387,567,l),
(565,567,l),
(565,714,l),
(47,714,l),
(47,567,l),
(225,567,l),
(225,525,l),
(109,498,o),
(39,404,o),
(39,267,cs),
(39,108,o),
(129,-10,o),
(307,-10,cs)
);
},
{
closed = 1;
nodes = (
(247,139,o),
(216,184,o),
(216,265,cs),
(216,348,o),
(248,386,o),
(307,386,cs),
(366,386,o),
(396,348,o),
(396,265,cs),
(396,184,o),
(367,139,o),
(307,139,cs)
);
}
);
width = 612;
}
);
note = uni10A3;
unicode = 4259;
}
{
glyphname = "En-oldgeorgian";
kernLeft = "Gan-oldgeorgian";
kernRight = "En-oldgeorgian";
layers = (
{
layerId = m001;
shapes = (
{
closed = 1;
nodes = (
(496,0,l),
(496,714,l),
(86,714,l),
(86,407,l),
(112,407,l),
(112,688,l),
(470,688,l),
(470,0,l)
);
}
);
width = 599;
},
{
layerId = m002;
shapes = (
{
closed = 1;
nodes = (
(544,0,l),
(544,714,l),
(76,714,l),
(76,390,l),
(166,390,l),
(166,636,l),
(454,636,l),
(454,0,l)
);
}
);
width = 642;
},
{
layerId = m003;
shapes = (
{
closed = 1;
nodes = (
(583,0,l),
(583,714,l),
(71,714,l),
(71,370,l),
(222,370,l),
(222,587,l),
(432,587,l),
(432,0,l)
);
}
);
width = 673;
},
{
layerId = m004;
shapes = (
{
closed = 1;
nodes = (
(621,0,l),
(621,714,l),
(63,714,l),
(63,363,l),
(254,363,l),
(254,555,l),
(427,555,l),
(427,0,l)
);
}
);
width = 698;
},
{
layerId = m005;
shapes = (
{
closed = 1;
nodes = (
(360,0,l),
(360,714,l),
(68,714,l),
(68,407,l),
(94,407,l),
(94,689,l),
(334,689,l),
(334,0,l)
);
}
);
width = 438;
},
{
layerId = m006;
shapes = (
{
closed = 1;
nodes = (
(406,0,l),
(406,714,l),
(60,714,l),
(60,396,l),
(142,396,l),
(142,641,l),
(324,641,l),
(324,0,l)
);
}
);
width = 478;
},
{
layerId = m007;
shapes = (
{
closed = 1;
nodes = (
(465,0,l),
(465,714,l),
(57,714,l),
(57,381,l),
(193,381,l),
(193,595,l),
(329,595,l),
(329,0,l)
);
}
);
width = 529;
},
{
layerId = m008;
shapes = (
{
closed = 1;
nodes = (
(502,0,l),
(502,714,l),
(48,714,l),
(48,369,l),
(218,369,l),
(218,567,l),
(332,567,l),
(332,0,l)
);
}
);
width = 561;
}
);
note = uni10A4;
unicode = 4260;
}
{
glyphname = "Vin-oldgeorgian";
kernLeft = "Gan-oldgeorgian";
kernRight = "Vin-oldgeorgian";
layers = (
{
layerId = m001;
shapes = (
{
closed = 1;
nodes = (
(496,0,l),
(496,368,l),
(698,368,l),
(698,185,l),
(724,185,l),
(724,393,l),
(496,393,l),
(496,714,l),
(86,714,l),
(86,407,l),
(112,407,l),
(112,688,l),
(470,688,l),
(470,0,l)
);
}
);
userData = {
com.schriftgestaltung.Glyphs.glyph.leftMetricsKey = "En-oldgeorgian";
};
width = 776;
},
{
layerId = m002;
shapes = (
{
closed = 1;
nodes = (
(544,0,l),
(544,339,l),
(695,339,l),
(695,174,l),
(781,174,l),
(781,417,l),
(544,417,l),
(544,714,l),
(76,714,l),
(76,390,l),
(166,390,l),
(166,636,l),
(454,636,l),
(454,0,l)
);
}
);
userData = {
com.schriftgestaltung.Glyphs.glyph.leftMetricsKey = "En-oldgeorgian";
};
width = 825;
},
{
layerId = m004;
shapes = (
{
closed = 1;
nodes = (
(621,0,l),
(621,283,l),
(704,283,l),
(704,174,l),
(871,174,l),
(871,440,l),
(621,440,l),
(621,714,l),
(63,714,l),
(63,363,l),
(254,363,l),
(254,555,l),
(427,555,l),
(427,0,l)
);
}
);
userData = {
com.schriftgestaltung.Glyphs.glyph.leftMetricsKey = "En-oldgeorgian";
};
width = 906;
},
{
layerId = m005;
shapes = (
{
closed = 1;
nodes = (
(360,0,l),
(360,368,l),
(494,368,l),
(494,214,l),
(520,214,l),
(520,393,l),
(360,393,l),
(360,714,l),
(68,714,l),
(68,407,l),
(94,407,l),
(94,689,l),
(334,689,l),
(334,0,l)
);
}
);
userData = {
com.schriftgestaltung.Glyphs.glyph.leftMetricsKey = "En-oldgeorgian";
};
width = 554;
},
{
layerId = m006;
shapes = (
{
closed = 1;
nodes = (
(406,0,l),
(406,342,l),
(500,342,l),
(500,198,l),
(574,198,l),
(574,411,l),
(406,411,l),
(406,714,l),
(60,714,l),
(60,396,l),
(142,396,l),
(142,641,l),
(324,641,l),
(324,0,l)
);
}
);
userData = {
com.schriftgestaltung.Glyphs.glyph.leftMetricsKey = "En-oldgeorgian";
};
width = 608;
},
{
layerId = m008;
shapes = (
{
closed = 1;
nodes = (
(502,0,l),
(502,301,l),
(581,301,l),
(581,184,l),
(730,184,l),
(730,440,l),
(502,440,l),
(502,714,l),
(48,714,l),
(48,369,l),
(218,369,l),
(218,567,l),
(332,567,l),
(332,0,l)
);
}
);
userData = {
com.schriftgestaltung.Glyphs.glyph.leftMetricsKey = "En-oldgeorgian";
};
width = 759;
}
);
note = uni10A5;
unicode = 4261;
}
{
glyphname = "Zen-oldgeorgian";
kernLeft = "Zen-oldgeorgian";
kernRight = "Zen-oldgeorgian";
layers = (
{
layerId = m001;
shapes = (
{
closed = 1;
nodes = (
(621,-10,o),
(725,99,o),
(725,264,cs),
(725,413,o),
(641,536,o),
(486,536,cs),
(373,536,o),
(294,480,o),
(250,384,c),
(246,384,l),
(247,406,o),
(249,473,o),
(249,519,cs),
(249,714,l),
(10,714,l),
(10,689,l),
(223,689,l),
(223,260,ls),
(223,95,o),
(305,-10,o),
(463,-10,cs)
);
},
{
closed = 1;
nodes = (
(320,16,o),
(249,114,o),
(249,260,cs),
(249,400,o),
(336,510,o),
(485,510,cs),
(614,510,o),
(698,412,o),
(698,264,cs),
(698,115,o),
(606,16,o),
(463,16,cs)
);
}
);
userData = {
com.schriftgestaltung.Glyphs.glyph.rightMetricsKey = "=Don-oldgeorgian-5";
};
width = 784;
},
{
layerId = m002;
shapes = (
{
closed = 1;
nodes = (
(642,-10,o),
(743,98,o),
(743,269,cs),
(743,431,o),
(652,546,o),
(495,546,cs),
(409,546,o),
(352,518,o),
(301,444,c),
(295,444,l),
(298,474,o),
(300,512,o),
(300,530,cs),
(300,714,l),
(5,714,l),
(5,636,l),
(210,636,l),
(210,267,ls),
(210,97,o),
(307,-10,o),
(471,-10,cs)
);
},
{
closed = 1;
nodes = (
(363,68,o),
(300,143,o),
(300,267,cs),
(300,391,o),
(365,468,o),
(481,468,cs),
(588,468,o),
(650,396,o),
(650,269,cs),
(650,142,o),
(583,68,o),
(470,68,cs)
);
}
);
userData = {
com.schriftgestaltung.Glyphs.glyph.rightMetricsKey = "=Don-oldgeorgian-5";
};
width = 799;
},
{
layerId = m004;
shapes = (
{
closed = 1;
nodes = (
(656,-10,o),
(757,99,o),
(757,277,cs),
(757,456,o),
(666,562,o),
(527,562,cs),
(455,562,o),
(406,539,o),
(366,498,c),
(359,498,l),
(364,542,o),
(366,576,o),
(366,615,cs),
(366,714,l),
(-10,714,l),
(-10,560,l),
(175,560,l),
(175,279,ls),
(175,96,o),
(264,-10,o),
(459,-10,cs)
);
},
{
closed = 1;
nodes = (
(398,147,o),
(366,184,o),
(366,277,cs),
(366,369,o),
(400,405,o),
(464,405,cs),
(526,405,o),
(558,369,o),
(558,277,cs),
(558,184,o),
(520,147,o),
(459,147,cs)
);
}
);
userData = {
com.schriftgestaltung.Glyphs.glyph.rightMetricsKey = "=Don-oldgeorgian-5";
};
width = 804;
},
{
layerId = m005;
shapes = (
{
closed = 1;
nodes = (
(449,-10,o),
(497,99,o),
(497,263,cs),
(497,424,o),
(442,535,o),
(334,535,cs),
(264,535,o),
(216,485,o),
(190,408,c),
(187,408,l),
(189,441,o),
(190,481,o),
(190,518,cs),
(190,714,l),
(10,714,l),
(10,689,l),
(164,689,l),
(164,247,ls),
(164,95,o),
(214,-10,o),
(328,-10,cs)
);
},
{
closed = 1;
nodes = (
(234,15,o),
(190,105,o),
(190,259,cs),
(190,401,o),
(241,510,o),
(334,510,cs),
(415,510,o),
(470,424,o),
(470,263,cs),
(470,103,o),
(423,15,o),
(328,15,cs)
);
}
);
userData = {
com.schriftgestaltung.Glyphs.glyph.rightMetricsKey = "=Don-oldgeorgian-5";
};
width = 546;
},
{
layerId = m006;
shapes = (
{
closed = 1;
nodes = (
(476,-10,o),
(537,99,o),
(537,268,cs),
(537,435,o),
(480,544,o),
(369,544,cs),
(305,544,o),
(261,503,o),
(235,436,c),
(231,436,l),
(234,473,o),
(235,514,o),
(235,552,cs),
(235,714,l),
(4,714,l),
(4,641,l),
(153,641,l),
(153,258,ls),
(153,96,o),
(211,-10,o),
(342,-10,cs)
);
},
{
closed = 1;
nodes = (
(267,63,o),
(235,134,o),
(235,265,cs),
(235,388,o),
(272,471,o),
(345,471,cs),
(412,471,o),
(451,402,o),
(451,267,cs),
(451,133,o),
(414,63,o),
(342,63,cs)
);
}
);
userData = {
com.schriftgestaltung.Glyphs.glyph.rightMetricsKey = "=Don-oldgeorgian-5";
};
width = 580;
},
{
layerId = m008;
shapes = (
{
closed = 1;
nodes = (
(517,-10,o),
(600,98,o),
(600,276,cs),
(600,451,o),
(540,558,o),
(423,558,cs),
(370,558,o),
(332,532,o),
(306,481,c),
(299,481,l),
(304,522,o),
(306,566,o),
(306,606,cs),
(306,714,l),
(-10,714,l),
(-10,567,l),
(136,567,l),
(136,276,ls),
(136,98,o),
(205,-10,o),
(364,-10,cs)
);
},
{
closed = 1;
nodes = (
(318,139,o),
(306,180,o),
(306,274,cs),
(306,368,o),
(321,409,o),
(364,409,cs),
(407,409,o),
(423,367,o),
(423,274,cs),
(423,180,o),
(401,139,o),
(364,139,cs)
);
}
);
userData = {
com.schriftgestaltung.Glyphs.glyph.rightMetricsKey = "=Don-oldgeorgian-5";
};
width = 634;
}
);
note = uni10A6;
unicode = 4262;
}
{
glyphname = "Tan-oldgeorgian";
kernLeft = "Tan-oldgeorgian";
kernRight = "Vin-oldgeorgian";
layers = (
{
layerId = m001;
shapes = (
{
closed = 1;
nodes = (
(589,714,l),
(447,714,ls),
(197,714,o),
(64,591,o),
(64,352,cs),
(64,125,o),
(188,0,o),
(424,0,cs),
(589,0,l),
(589,368,l),
(791,368,l),
(791,185,l),
(817,185,l),
(817,393,l),
(589,393,l)
);
},
{
closed = 1;
nodes = (
(434,25,ls),
(202,25,o),
(91,141,o),
(91,353,cs),
(91,580,o),
(215,689,o),
(444,689,cs),
(563,689,l),
(563,25,l)
);
}
);
userData = {
com.schriftgestaltung.Glyphs.glyph.leftMetricsKey = "Don-oldgeorgian";
com.schriftgestaltung.Glyphs.glyph.rightMetricsKey = "Vin-oldgeorgian";
};
width = 869;
},
{
layerId = m002;
shapes = (
{
closed = 1;
nodes = (
(633,714,l),
(434,714,ls),
(194,714,o),
(61,586,o),
(61,350,cs),
(61,130,o),
(189,0,o),
(413,0,cs),
(633,0,l),
(633,339,l),
(784,339,l),
(784,174,l),
(870,174,l),
(870,417,l),
(633,417,l)
);
},
{
closed = 1;
nodes = (
(426,77,ls),
(247,77,o),
(156,171,o),
(156,353,cs),
(156,541,o),
(253,637,o),
(446,637,cs),
(543,637,l),
(543,77,l)
);
}
);
userData = {
com.schriftgestaltung.Glyphs.glyph.leftMetricsKey = "Don-oldgeorgian";
com.schriftgestaltung.Glyphs.glyph.rightMetricsKey = "Vin-oldgeorgian";
};
width = 914;
},
{
layerId = m004;
shapes = (
{
closed = 1;
nodes = (
(657,714,l),
(426,714,ls),
(199,714,o),
(51,591,o),
(51,342,cs),
(51,121,o),
(180,0,o),
(410,0,cs),
(657,0,l),
(657,283,l),
(740,283,l),
(740,174,l),
(907,174,l),
(907,440,l),
(657,440,l)
);
},
{
closed = 1;
nodes = (
(408,156,ls),
(303,156,o),
(251,219,o),
(251,349,cs),
(251,489,o),
(304,556,o),
(421,556,cs),
(464,556,l),
(464,156,l)
);
}
);
userData = {
com.schriftgestaltung.Glyphs.glyph.leftMetricsKey = "Don-oldgeorgian";
com.schriftgestaltung.Glyphs.glyph.rightMetricsKey = "Vin-oldgeorgian";
};
width = 942;
},
{
layerId = m005;
shapes = (
{
closed = 1;
nodes = (
(404,714,l),
(303,714,ls),
(151,714,o),
(54,596,o),
(54,352,cs),
(54,124,o),
(151,0,o),
(303,0,cs),
(404,0,l),
(404,368,l),
(538,368,l),
(538,214,l),
(564,214,l),
(564,393,l),
(404,393,l)
);
},
{
closed = 1;
nodes = (
(303,25,ls),
(159,25,o),
(81,148,o),
(81,352,cs),
(81,573,o),
(159,689,o),
(303,689,cs),
(378,689,l),
(378,25,l)
);
}
);
userData = {
com.schriftgestaltung.Glyphs.glyph.leftMetricsKey = "Don-oldgeorgian";
com.schriftgestaltung.Glyphs.glyph.rightMetricsKey = "Vin-oldgeorgian";
};
width = 598;
},
{
layerId = m006;
shapes = (
{
closed = 1;
nodes = (
(452,714,l),
(319,714,ls),
(150,714,o),
(48,589,o),
(48,352,cs),
(48,123,o),
(149,0,o),
(314,0,cs),
(452,0,l),
(452,342,l),
(546,342,l),
(546,198,l),
(620,198,l),
(620,411,l),
(452,411,l)
);
},
{
closed = 1;
nodes = (
(315,73,ls),
(196,73,o),
(133,170,o),
(133,355,cs),
(133,544,o),
(196,641,o),
(319,641,cs),
(370,641,l),
(370,73,l)
);
}
);
userData = {
com.schriftgestaltung.Glyphs.glyph.leftMetricsKey = "Don-oldgeorgian";
com.schriftgestaltung.Glyphs.glyph.rightMetricsKey = "Vin-oldgeorgian";
};
width = 654;
},
{
layerId = m008;
shapes = (
{
closed = 1;
nodes = (
(528,714,l),
(344,714,ls),
(150,714,o),
(39,579,o),
(39,352,cs),
(39,121,o),
(145,0,o),
(332,0,cs),
(528,0,l),
(528,301,l),
(607,301,l),
(607,184,l),
(756,184,l),
(756,440,l),
(528,440,l)
);
},
{
closed = 1;
nodes = (
(335,147,ls),
(255,147,o),
(215,204,o),
(215,359,cs),
(215,498,o),
(255,566,o),
(345,566,cs),
(358,566,l),
(358,147,l)
);
}
);
userData = {
com.schriftgestaltung.Glyphs.glyph.leftMetricsKey = "Don-oldgeorgian";
com.schriftgestaltung.Glyphs.glyph.rightMetricsKey = "Vin-oldgeorgian";
};
width = 785;
}
);
note = uni10A7;
unicode = 4263;
}
{
glyphname = "In-oldgeorgian";
kernLeft = "Zen-oldgeorgian";
kernRight = "En-oldgeorgian";
layers = (
{
layerId = m001;
shapes = (
{
closed = 1;
nodes = (
(336,0,l),
(336,714,l),
(10,714,l),
(10,689,l),
(310,689,l),
(310,0,l)
);
}
);
userData = {
com.schriftgestaltung.Glyphs.glyph.leftMetricsKey = "Zen-oldgeorgian";
com.schriftgestaltung.Glyphs.glyph.rightMetricsKey = "En-oldgeorgian";
};
width = 439;
},
{
layerId = m002;
shapes = (
{
closed = 1;
nodes = (
(384,0,l),
(384,714,l),
(5,714,l),
(5,636,l),
(294,636,l),
(294,0,l)
);
}
);
userData = {
com.schriftgestaltung.Glyphs.glyph.leftMetricsKey = "Zen-oldgeorgian";
com.schriftgestaltung.Glyphs.glyph.rightMetricsKey = "En-oldgeorgian";
};
width = 482;
},
{
layerId = m004;
shapes = (
{
closed = 1;
nodes = (
(466,0,l),
(466,714,l),
(-10,714,l),
(-10,558,l),
(272,558,l),
(272,0,l)
);
}
);
userData = {
com.schriftgestaltung.Glyphs.glyph.leftMetricsKey = "Zen-oldgeorgian";
com.schriftgestaltung.Glyphs.glyph.rightMetricsKey = "En-oldgeorgian";
};
width = 543;
},
{
layerId = m005;
shapes = (
{
closed = 1;
nodes = (
(236,0,l),
(236,714,l),
(10,714,l),
(10,689,l),
(210,689,l),
(210,0,l)
);
}
);
userData = {
com.schriftgestaltung.Glyphs.glyph.leftMetricsKey = "Zen-oldgeorgian";
com.schriftgestaltung.Glyphs.glyph.rightMetricsKey = "En-oldgeorgian";
};
width = 314;
},
{
layerId = m006;
shapes = (
{
closed = 1;
nodes = (
(292,0,l),
(292,714,l),
(4,714,l),
(4,641,l),
(210,641,l),
(210,0,l)
);
}
);
userData = {
com.schriftgestaltung.Glyphs.glyph.leftMetricsKey = "Zen-oldgeorgian";
com.schriftgestaltung.Glyphs.glyph.rightMetricsKey = "En-oldgeorgian";
};
width = 364;
},
{
layerId = m008;
shapes = (
{
closed = 1;
nodes = (
(375,0,l),
(375,714,l),
(-10,714,l),
(-10,567,l),
(205,567,l),
(205,0,l)
);
}
);
userData = {
com.schriftgestaltung.Glyphs.glyph.leftMetricsKey = "Zen-oldgeorgian";
com.schriftgestaltung.Glyphs.glyph.rightMetricsKey = "En-oldgeorgian";
};
width = 434;
}
);
note = uni10A8;
unicode = 4264;
}
{
glyphname = "Kan-oldgeorgian";
layers = (
{
layerId = m001;
shapes = (
{
closed = 1;
nodes = (
(603,0,l),
(603,356,ls),
(603,495,o),
(520,616,o),
(356,616,cs),
(264,616,o),
(172,572,o),
(122,468,c),
(118,468,l),
(119,497,o),
(121,527,o),
(121,560,cs),
(121,714,l),
(95,714,l),
(95,362,ls),
(95,214,o),
(190,102,o),
(356,102,cs),
(448,102,o),
(535,147,o),
(575,237,c),
(580,237,l),
(579,215,o),
(577,169,o),
(577,146,cs),
(577,0,l)
);
},
{
closed = 1;
nodes = (
(216,128,o),
(121,215,o),
(121,363,cs),
(121,483,o),
(216,590,o),
(356,590,cs),
(485,590,o),
(577,499,o),
(577,356,cs),
(577,219,o),
(484,128,o),
(356,128,cs)
);
}
);
width = 697;
},
{
layerId = m002;
shapes = (
{
closed = 1;
nodes = (
(623,0,l),
(623,362,ls),
(623,514,o),
(531,624,o),
(375,624,cs),
(290,624,o),
(232,596,o),
(181,522,c),
(175,522,l),
(178,571,o),
(180,600,o),
(180,608,cs),
(180,714,l),
(90,714,l),
(90,362,ls),
(90,206,o),
(184,100,o),
(338,100,c),
(423,100,o),
(485,133,o),
(532,202,c),
(538,202,l),
(536,174,o),
(533,142,o),
(533,116,cs),
(533,0,l)
);
},
{
closed = 1;
nodes = (
(243,178,o),
(180,247,o),
(180,362,cs),
(180,477,o),
(247,546,o),
(362,546,cs),
(469,546,o),
(533,479,o),
(533,362,cs),
(533,248,o),
(466,178,o),
(351,178,cs)
);
}
);
width = 703;
},
{
layerId = m004;
shapes = (
{
closed = 1;
nodes = (
(666,0,l),
(666,374,ls),
(666,533,o),
(583,632,o),
(437,632,cs),
(356,632,o),
(298,603,o),
(261,555,c),
(256,555,l),
(262,600,o),
(263,648,o),
(263,686,cs),
(263,714,l),
(69,714,l),
(69,356,ls),
(69,197,o),
(151,98,o),
(297,98,cs),
(378,98,o),
(436,127,o),
(473,176,c),
(478,176,l),
(472,120,o),
(472,71,o),
(472,28,cs),
(472,0,l)
);
},
{
closed = 1;
nodes = (
(292,255,o),
(263,295,o),
(263,365,cs),
(263,434,o),
(300,475,o),
(370,475,cs),
(441,475,o),
(472,434,o),
(472,365,cs),
(472,295,o),
(435,255,o),
(364,255,cs)
);
}
);
width = 735;
},
{
layerId = m005;
shapes = (
{
closed = 1;
nodes = (
(408,0,l),
(408,355,ls),
(408,509,o),
(356,615,o),
(244,615,cs),
(185,615,o),
(126,575,o),
(99,490,c),
(96,490,l),
(97,514,o),
(98,549,o),
(98,595,cs),
(98,714,l),
(72,714,l),
(72,362,ls),
(72,199,o),
(128,102,o),
(241,102,cs),
(300,102,o),
(354,143,o),
(380,227,c),
(384,227,l),
(383,189,o),
(382,152,o),
(382,109,cs),
(382,0,l)
);
},
{
closed = 1;
nodes = (
(148,127,o),
(98,205,o),
(98,363,cs),
(98,492,o),
(156,590,o),
(244,590,cs),
(331,590,o),
(382,503,o),
(382,355,cs),
(382,216,o),
(317,127,o),
(241,127,cs)
);
}
);
width = 479;
},
{
layerId = m006;
shapes = (
{
closed = 1;
nodes = (
(453,0,l),
(453,365,ls),
(453,520,o),
(400,622,o),
(286,622,cs),
(226,622,o),
(175,586,o),
(148,515,c),
(144,515,l),
(147,544,o),
(147,581,o),
(147,622,cs),
(147,714,l),
(65,714,l),
(65,357,ls),
(65,197,o),
(120,100,o),
(235,100,cs),
(295,100,o),
(343,134,o),
(369,207,c),
(373,207,l),
(372,168,o),
(371,130,o),
(371,91,cs),
(371,0,l)
);
},
{
closed = 1;
nodes = (
(184,170,o),
(148,233,o),
(148,363,cs),
(148,477,o),
(189,552,o),
(261,552,cs),
(333,552,o),
(370,484,o),
(370,360,cs),
(370,239,o),
(325,170,o),
(259,170,cs)
);
}
);
width = 518;
},
{
layerId = m008;
shapes = (
{
closed = 1;
nodes = (
(524,0,l),
(524,381,ls),
(524,538,o),
(470,632,o),
(352,632,cs),
(290,632,o),
(253,603,o),
(226,554,c),
(220,554,l),
(225,592,o),
(225,630,o),
(225,664,cs),
(225,714,l),
(55,714,l),
(55,350,ls),
(55,193,o),
(109,98,o),
(227,98,cs),
(288,98,o),
(327,121,o),
(354,176,c),
(358,176,l),
(355,136,o),
(354,95,o),
(354,62,cs),
(354,0,l)
);
},
{
closed = 1;
nodes = (
(242,237,o),
(227,276,o),
(227,362,cs),
(227,454,o),
(241,493,o),
(289,493,cs),
(338,493,o),
(353,454,o),
(353,367,cs),
(353,276,o),
(338,237,o),
(289,237,cs)
);
}
);
width = 579;
}
);
note = uni10A9;
unicode = 4265;
}
{
glyphname = "Las-oldgeorgian";
kernLeft = "Gan-oldgeorgian";
kernRight = "Zen-oldgeorgian";
layers = (
{
layerId = m001;
shapes = (
{
closed = 1;
nodes = (
(828,-10,o),
(932,99,o),
(932,264,cs),
(932,413,o),
(848,536,o),
(693,536,cs),
(580,536,o),
(501,480,o),
(457,384,c),
(453,384,l),
(454,406,o),
(456,473,o),
(456,519,cs),
(456,714,l),
(86,714,l),
(86,407,l),
(112,407,l),
(112,688,l),
(430,688,l),
(430,260,ls),
(430,95,o),
(512,-10,o),
(670,-10,cs)
);
},
{
closed = 1;
nodes = (
(527,16,o),
(456,114,o),
(456,260,cs),
(456,400,o),
(543,510,o),
(692,510,cs),
(821,510,o),
(905,412,o),
(905,264,cs),
(905,115,o),
(813,16,o),
(670,16,cs)
);
}
);
userData = {
com.schriftgestaltung.Glyphs.glyph.leftMetricsKey = "En-oldgeorgian";
com.schriftgestaltung.Glyphs.glyph.rightMetricsKey = "=Don-oldgeorgian-5";
};
width = 991;
},
{
layerId = m002;
shapes = (
{
closed = 1;
nodes = (
(840,-10,o),
(947,96,o),
(947,269,cs),
(947,427,o),
(858,546,o),
(699,546,cs),
(614,546,o),
(556,518,o),
(505,444,c),
(499,444,l),
(502,493,o),
(504,521,o),
(504,530,cs),
(504,714,l),
(76,714,l),
(76,390,l),
(166,390,l),
(166,636,l),
(414,636,l),
(414,267,ls),
(414,96,o),
(513,-10,o),
(675,-10,cs)
);
},
{
closed = 1;
nodes = (
(566,68,o),
(504,143,o),
(504,267,cs),
(504,392,o),
(570,468,o),
(685,468,cs),
(792,468,o),
(854,396,o),
(854,269,cs),
(854,142,o),
(787,68,o),
(674,68,cs)
);
}
);
userData = {
com.schriftgestaltung.Glyphs.glyph.leftMetricsKey = "En-oldgeorgian";
com.schriftgestaltung.Glyphs.glyph.rightMetricsKey = "=Don-oldgeorgian-5";
};
width = 1003;
},
{
layerId = m004;
shapes = (
{
closed = 1;
nodes = (
(871,-10,o),
(972,99,o),
(972,277,cs),
(972,456,o),
(881,562,o),
(742,562,cs),
(670,562,o),
(621,539,o),
(581,498,c),
(574,498,l),
(579,542,o),
(581,576,o),
(581,615,cs),
(581,714,l),
(63,714,l),
(63,363,l),
(254,363,l),
(254,555,l),
(390,555,l),
(390,279,ls),
(390,96,o),
(479,-10,o),
(674,-10,cs)
);
},
{
closed = 1;
nodes = (
(613,147,o),
(581,184,o),
(581,277,cs),
(581,369,o),
(615,405,o),
(679,405,cs),
(741,405,o),
(773,369,o),
(773,277,cs),
(773,184,o),
(735,147,o),
(674,147,cs)
);
}
);
userData = {
com.schriftgestaltung.Glyphs.glyph.leftMetricsKey = "En-oldgeorgian";
com.schriftgestaltung.Glyphs.glyph.rightMetricsKey = "=Don-oldgeorgian-5";
};
width = 1019;
},
{
layerId = m005;
shapes = (
{
closed = 1;
nodes = (
(589,-10,o),
(637,99,o),
(637,263,cs),
(637,424,o),
(582,535,o),
(474,535,cs),
(404,535,o),
(356,485,o),
(330,408,c),
(327,408,l),
(329,441,o),
(330,481,o),
(330,518,cs),
(330,714,l),
(68,714,l),
(68,407,l),
(94,407,l),
(94,689,l),
(304,689,l),
(304,247,ls),
(304,95,o),
(354,-10,o),
(468,-10,cs)
);
},
{
closed = 1;
nodes = (
(374,15,o),
(330,105,o),
(330,259,cs),
(330,401,o),
(381,510,o),
(474,510,cs),
(555,510,o),
(610,424,o),
(610,263,cs),
(610,103,o),
(563,15,o),
(468,15,cs)
);
}
);
userData = {
com.schriftgestaltung.Glyphs.glyph.leftMetricsKey = "En-oldgeorgian";
com.schriftgestaltung.Glyphs.glyph.rightMetricsKey = "=Don-oldgeorgian-5";
};
width = 686;
},
{
layerId = m006;
shapes = (
{
closed = 1;
nodes = (
(616,-10,o),
(678,99,o),
(678,268,cs),
(678,435,o),
(621,544,o),
(509,544,cs),
(446,544,o),
(402,503,o),
(376,436,c),
(371,436,l),
(374,473,o),
(376,514,o),
(376,552,cs),
(376,714,l),
(60,714,l),
(60,396,l),
(142,396,l),
(142,641,l),
(294,641,l),
(294,258,ls),
(294,96,o),
(351,-10,o),
(482,-10,cs)
);
},
{
closed = 1;
nodes = (
(408,63,o),
(376,134,o),
(376,265,cs),
(376,388,o),
(413,471,o),
(486,471,cs),
(553,471,o),
(592,402,o),
(592,267,cs),
(592,133,o),
(555,63,o),
(483,63,cs)
);
}
);
userData = {
com.schriftgestaltung.Glyphs.glyph.leftMetricsKey = "En-oldgeorgian";
com.schriftgestaltung.Glyphs.glyph.rightMetricsKey = "=Don-oldgeorgian-5";
};
width = 721;
},
{
layerId = m008;
shapes = (
{
closed = 1;
nodes = (
(693,-10,o),
(776,98,o),
(776,276,cs),
(776,451,o),
(716,558,o),
(599,558,cs),
(546,558,o),
(508,532,o),
(482,481,c),
(475,481,l),
(480,522,o),
(482,566,o),
(482,606,cs),
(482,714,l),
(48,714,l),
(48,369,l),
(218,369,l),
(218,567,l),
(312,567,l),
(312,276,ls),
(312,98,o),
(381,-10,o),
(540,-10,cs)
);
},
{
closed = 1;
nodes = (
(494,139,o),
(482,180,o),
(482,274,cs),
(482,368,o),
(497,409,o),
(540,409,cs),
(583,409,o),
(599,367,o),
(599,274,cs),
(599,180,o),
(577,139,o),
(540,139,cs)
);
}
);
userData = {
com.schriftgestaltung.Glyphs.glyph.leftMetricsKey = "En-oldgeorgian";
com.schriftgestaltung.Glyphs.glyph.rightMetricsKey = "=Don-oldgeorgian-5";
};
width = 810;
}
);
note = uni10AA;
unicode = 4266;
}
{
glyphname = "Man-oldgeorgian";
layers = (
{
layerId = m001;
shapes = (
{
closed = 1;
nodes = (
(465,-10,o),
(543,87,o),
(543,272,cs),
(543,428,l),
(705,428,l),
(705,453,l),
(543,453,l),
(543,714,l),
(107,714,l),
(107,689,l),
(517,689,l),
(517,453,l),
(329,453,ls),
(159,453,o),
(64,383,o),
(64,226,cs),
(64,89,o),
(145,-10,o),
(300,-10,cs)
);
},
{
closed = 1;
nodes = (
(166,15,o),
(91,101,o),
(91,226,cs),
(91,371,o),
(179,428,o),
(329,428,cs),
(517,428,l),
(517,272,ls),
(517,102,o),
(444,15,o),
(300,15,cs)
);
}
);
userData = {
com.schriftgestaltung.Glyphs.glyph.leftMetricsKey = "Don-oldgeorgian";
com.schriftgestaltung.Glyphs.glyph.rightMetricsKey = "Vin-oldgeorgian";
};
width = 757;
},
{
layerId = m002;
shapes = (
{
closed = 1;
nodes = (
(488,-10,o),
(575,89,o),
(575,248,cs),
(575,399,l),
(706,399,l),
(706,477,l),
(575,477,l),
(575,714,l),
(116,714,l),
(116,636,l),
(485,636,l),
(485,477,l),
(316,477,ls),
(158,477,o),
(61,389,o),
(61,233,cs),
(61,77,o),
(165,-10,o),
(317,-10,cs)
);
},
{
closed = 1;
nodes = (
(217,68,o),
(152,122,o),
(152,233,cs),
(152,343,o),
(210,399,o),
(321,399,cs),
(485,399,l),
(485,242,ls),
(485,133,o),
(434,68,o),
(312,68,cs)
);
}
);
userData = {
com.schriftgestaltung.Glyphs.glyph.leftMetricsKey = "Don-oldgeorgian";
com.schriftgestaltung.Glyphs.glyph.rightMetricsKey = "Vin-oldgeorgian";
};
width = 750;
},
{
layerId = m003;
shapes = (
{
closed = 1;
nodes = (
(511,-10,o),
(611,93,o),
(611,245,cs),
(611,359,l),
(752,359,l),
(752,478,l),
(611,478,l),
(611,714,l),
(110,714,l),
(110,590,l),
(461,590,l),
(461,478,l),
(342,478,ls),
(158,478,o),
(58,393,o),
(58,235,cs),
(58,82,o),
(164,-10,o),
(337,-10,cs)
);
},
{
closed = 1;
nodes = (
(256,115,o),
(212,157,o),
(212,237,cs),
(212,316,o),
(257,359,o),
(340,359,cs),
(461,359,l),
(461,248,ls),
(461,168,o),
(420,115,o),
(337,115,cs)
);
}
);
userData = {
com.schriftgestaltung.Glyphs.glyph.leftMetricsKey = "Don-oldgeorgian";
com.schriftgestaltung.Glyphs.glyph.rightMetricsKey = "Vin-oldgeorgian";
};
width = 791;
},
{
layerId = m004;
shapes = (
{
closed = 1;
nodes = (
(514,-10,o),
(623,96,o),
(623,243,cs),
(623,332,l),
(787,332,l),
(787,479,l),
(623,479,l),
(623,714,l),
(83,714,l),
(83,558,l),
(432,558,l),
(432,479,l),
(337,479,ls),
(155,479,o),
(51,395,o),
(51,237,cs),
(51,85,o),
(166,-10,o),
(335,-10,cs)
);
},
{
closed = 1;
nodes = (
(286,147,o),
(250,181,o),
(250,239,cs),
(250,298,o),
(286,332,o),
(337,332,cs),
(432,332,l),
(432,252,ls),
(432,192,o),
(398,147,o),
(337,147,cs)
);
}
);
userData = {
com.schriftgestaltung.Glyphs.glyph.leftMetricsKey = "Don-oldgeorgian";
com.schriftgestaltung.Glyphs.glyph.rightMetricsKey = "Vin-oldgeorgian";
};
width = 822;
},
{
layerId = m005;
shapes = (
{
closed = 1;
nodes = (
(308,-10,o),
(352,83,o),
(352,232,cs),
(352,425,l),
(446,425,l),
(446,450,l),
(352,450,l),
(352,714,l),
(89,714,l),
(89,689,l),
(326,689,l),
(326,450,l),
(230,450,ls),
(116,450,o),
(54,384,o),
(54,225,cs),
(54,83,o),
(102,-10,o),
(204,-10,cs)
);
},
{
closed = 1;
nodes = (
(122,15,o),
(81,93,o),
(81,225,cs),
(81,373,o),
(134,425,o),
(230,425,cs),
(326,425,l),
(326,233,ls),
(326,93,o),
(288,15,o),
(204,15,cs)
);
}
);
userData = {
com.schriftgestaltung.Glyphs.glyph.leftMetricsKey = "Don-oldgeorgian";
com.schriftgestaltung.Glyphs.glyph.rightMetricsKey = "Vin-oldgeorgian";
};
width = 480;
},
{
layerId = m006;
shapes = (
{
closed = 1;
nodes = (
(365,-10,o),
(425,85,o),
(425,242,cs),
(425,393,l),
(529,393,l),
(529,462,l),
(425,462,l),
(425,714,l),
(89,714,l),
(89,641,l),
(343,641,l),
(343,462,l),
(256,462,ls),
(124,462,o),
(48,396,o),
(48,230,cs),
(48,85,o),
(116,-10,o),
(239,-10,cs)
);
},
{
closed = 1;
nodes = (
(168,63,o),
(133,127,o),
(133,231,cs),
(133,353,o),
(174,392,o),
(256,392,cs),
(342,392,l),
(342,242,ls),
(342,127,o),
(310,63,o),
(238,63,cs)
);
}
);
userData = {
com.schriftgestaltung.Glyphs.glyph.leftMetricsKey = "Don-oldgeorgian";
com.schriftgestaltung.Glyphs.glyph.rightMetricsKey = "Vin-oldgeorgian";
};
width = 563;
},
{
layerId = m007;
shapes = (
{
closed = 1;
nodes = (
(394,-10,o),
(470,86,o),
(470,239,cs),
(470,361,l),
(584,361,l),
(584,473,l),
(470,473,l),
(470,714,l),
(83,714,l),
(83,595,l),
(333,595,l),
(333,473,l),
(266,473,ls),
(142,473,o),
(43,408,o),
(43,234,cs),
(43,86,o),
(125,-10,o),
(256,-10,cs)
);
},
{
closed = 1;
nodes = (
(210,105,o),
(185,154,o),
(185,237,cs),
(185,333,o),
(224,360,o),
(266,360,cs),
(332,360,l),
(332,240,ls),
(332,154,o),
(307,105,o),
(256,105,cs)
);
}
);
userData = {
com.schriftgestaltung.Glyphs.glyph.leftMetricsKey = "Don-oldgeorgian";
com.schriftgestaltung.Glyphs.glyph.rightMetricsKey = "Vin-oldgeorgian";
};
width = 616;
},
{
layerId = m008;
shapes = (
{
closed = 1;
nodes = (
(428,-10,o),
(509,87,o),
(509,237,cs),
(509,341,l),
(628,341,l),
(628,480,l),
(509,480,l),
(509,714,l),
(89,714,l),
(89,567,l),
(339,567,l),
(339,480,l),
(278,480,ls),
(147,480,o),
(39,416,o),
(39,237,cs),
(39,87,o),
(135,-10,o),
(277,-10,cs)
);
},
{
closed = 1;
nodes = (
(239,130,o),
(216,170,o),
(216,240,cs),
(216,321,o),
(248,341,o),
(289,341,cs),
(339,341,l),
(339,255,ls),
(339,170,o),
(321,130,o),
(277,130,cs)
);
}
);
userData = {
com.schriftgestaltung.Glyphs.glyph.leftMetricsKey = "Don-oldgeorgian";
com.schriftgestaltung.Glyphs.glyph.rightMetricsKey = "Vin-oldgeorgian";
};
width = 657;
}
);
note = uni10AB;
unicode = 4267;
}
{
glyphname = "Nar-oldgeorgian";
kernLeft = "Tar-oldgeorgian";
kernRight = "Don-oldgeorgian";
layers = (
{
layerId = m001;
shapes = (
{
closed = 1;
nodes = (
(129,0,l),
(129,224,ls),
(129,378,o),
(212,456,o),
(337,456,cs),
(457,456,o),
(536,388,o),
(536,224,cs),
(536,0,l),
(562,0,l),
(562,225,ls),
(562,420,o),
(457,482,o),
(339,482,cs),
(216,482,o),
(159,417,o),
(129,351,c),
(126,351,l),
(128,380,o),
(129,430,o),
(129,447,cs),
(129,689,l),
(533,689,l),
(533,714,l),
(103,714,l),
(103,0,l)
);
}
);
userData = {
com.schriftgestaltung.Glyphs.glyph.leftMetricsKey = "Nar-oldgeorgian";
com.schriftgestaltung.Glyphs.glyph.rightMetricsKey = "=En-oldgeorgian-5";
};
width = 660;
},
{
layerId = m002;
shapes = (
{
closed = 1;
nodes = (
(188,0,l),
(188,220,ls),
(188,337,o),
(257,410,o),
(374,410,cs),
(473,410,o),
(527,352,o),
(527,230,cs),
(527,0,l),
(617,0,l),
(617,229,ls),
(617,401,o),
(533,488,o),
(391,488,cs),
(303,488,o),
(237,456,o),
(189,386,c),
(183,386,l),
(187,435,o),
(188,464,o),
(188,472,cs),
(188,636,l),
(589,636,l),
(589,714,l),
(98,714,l),
(98,0,l)
);
}
);
userData = {
com.schriftgestaltung.Glyphs.glyph.leftMetricsKey = "Nar-oldgeorgian";
com.schriftgestaltung.Glyphs.glyph.rightMetricsKey = "=En-oldgeorgian-5";
};
width = 710;
},
{
layerId = m004;
shapes = (
{
closed = 1;
nodes = (
(271,0,l),
(271,157,ls),
(271,270,o),
(306,325,o),
(388,325,cs),
(447,325,o),
(490,286,o),
(490,205,cs),
(490,0,l),
(684,0,l),
(684,224,ls),
(684,383,o),
(598,482,o),
(445,482,cs),
(370,482,o),
(306,451,o),
(267,395,c),
(262,395,l),
(269,454,o),
(271,505,o),
(271,551,cs),
(271,558,l),
(657,558,l),
(657,714,l),
(77,714,l),
(77,0,l)
);
}
);
userData = {
com.schriftgestaltung.Glyphs.glyph.leftMetricsKey = "Nar-oldgeorgian";
com.schriftgestaltung.Glyphs.glyph.rightMetricsKey = "=En-oldgeorgian-5";
};
width = 756;
},
{
layerId = m005;
shapes = (
{
closed = 1;
nodes = (
(97,0,l),
(97,224,ls),
(97,385,o),
(147,456,o),
(233,456,cs),
(321,456,o),
(360,394,o),
(360,245,cs),
(360,0,l),
(386,0,l),
(386,247,ls),
(386,426,o),
(326,481,o),
(235,481,cs),
(157,481,o),
(118,431,o),
(97,367,c),
(95,367,l),
(97,394,o),
(97,426,o),
(97,444,cs),
(97,689,l),
(370,689,l),
(370,714,l),
(71,714,l),
(71,0,l)
);
}
);
userData = {
com.schriftgestaltung.Glyphs.glyph.leftMetricsKey = "Nar-oldgeorgian";
com.schriftgestaltung.Glyphs.glyph.rightMetricsKey = "=En-oldgeorgian-5";
};
width = 459;
},
{
layerId = m006;
shapes = (
{
closed = 1;
nodes = (
(148,0,l),
(148,212,ls),
(148,355,o),
(190,413,o),
(263,413,cs),
(338,413,o),
(371,360,o),
(371,236,cs),
(371,0,l),
(453,0,l),
(453,242,ls),
(453,408,o),
(394,481,o),
(290,481,cs),
(213,481,o),
(172,439,o),
(147,380,c),
(145,380,l),
(147,411,o),
(148,448,o),
(148,472,cs),
(148,641,l),
(433,641,l),
(433,714,l),
(66,714,l),
(66,0,l)
);
}
);
userData = {
com.schriftgestaltung.Glyphs.glyph.leftMetricsKey = "Nar-oldgeorgian";
com.schriftgestaltung.Glyphs.glyph.rightMetricsKey = "=En-oldgeorgian-5";
};
width = 520;
},
{
layerId = m008;
shapes = (
{
closed = 1;
nodes = (
(229,0,l),
(229,194,ls),
(229,307,o),
(257,347,o),
(311,347,cs),
(365,347,o),
(388,308,o),
(388,222,cs),
(388,0,l),
(559,0,l),
(559,234,ls),
(559,380,o),
(501,482,o),
(376,482,cs),
(302,482,o),
(256,451,o),
(227,401,c),
(223,401,l),
(227,437,o),
(229,482,o),
(229,515,cs),
(229,567,l),
(531,567,l),
(531,714,l),
(59,714,l),
(59,0,l)
);
}
);
userData = {
com.schriftgestaltung.Glyphs.glyph.leftMetricsKey = "Nar-oldgeorgian";
com.schriftgestaltung.Glyphs.glyph.rightMetricsKey = "=En-oldgeorgian-5";
};
width = 613;
}
);
note = uni10AC;
unicode = 4268;
}
{
glyphname = "On-oldgeorgian";
kernLeft = "Tan-oldgeorgian";
layers = (
{
layerId = m001;
shapes = (
{
closed = 1;
nodes = (
(457,-10,o),
(522,12,o),
(571,51,c),
(603,13,o),
(638,-10,o),
(691,-10,cs),
(762,-10,o),
(796,47,o),
(796,113,c),
(769,113,l),
(769,60,o),
(739,12,o),
(691,12,cs),
(648,12,o),
(616,34,o),
(589,67,c),
(657,132,o),
(691,235,o),
(691,358,cs),
(691,590,o),
(580,724,o),
(383,724,cs),
(178,724,o),
(64,574,o),
(64,359,cs),
(64,143,o),
(169,-10,o),
(377,-10,cs)
);
},
{
closed = 1;
nodes = (
(183,15,o),
(91,159,o),
(91,359,cs),
(91,556,o),
(187,699,o),
(383,699,cs),
(563,699,o),
(664,575,o),
(664,358,cs),
(664,156,o),
(574,15,o),
(378,15,cs)
);
}
);
userData = {
com.schriftgestaltung.Glyphs.glyph.leftMetricsKey = "Don-oldgeorgian";
com.schriftgestaltung.Glyphs.glyph.rightMetricsKey = "Gan-oldgeorgian";
};
width = 806;
},
{
layerId = m002;
shapes = (
{
closed = 1;
nodes = (
(474,-10,o),
(543,12,o),
(595,52,c),
(632,15,o),
(675,-10,o),
(725,-10,cs),
(816,-10,o),
(854,50,o),
(854,137,c),
(772,137,l),
(772,82,o),
(754,57,o),
(716,57,cs),
(686,57,o),
(663,69,o),
(636,92,c),
(692,156,o),
(720,248,o),
(720,358,cs),
(720,579,o),
(606,724,o),
(392,724,cs),
(168,724,o),
(61,577,o),
(61,359,cs),
(61,138,o),
(168,-10,o),
(391,-10,cs)
);
},
{
closed = 1;
nodes = (
(230,68,o),
(156,178,o),
(156,358,cs),
(156,537,o),
(230,645,o),
(392,645,cs),
(553,645,o),
(625,537,o),
(625,358,cs),
(625,178,o),
(553,68,o),
(391,68,cs)
);
}
);
userData = {
com.schriftgestaltung.Glyphs.glyph.leftMetricsKey = "Don-oldgeorgian";
com.schriftgestaltung.Glyphs.glyph.rightMetricsKey = "Gan-oldgeorgian";
};
width = 864;
},
{
layerId = m003;
shapes = (
{
closed = 1;
nodes = (
(486,-10,o),
(557,11,o),
(610,50,c),
(652,14,o),
(700,-10,o),
(754,-10,cs),
(876,-10,o),
(914,59,o),
(915,178,c),
(786,178,l),
(786,123,o),
(765,94,o),
(727,94,cs),
(707,94,o),
(691,100,o),
(671,113,c),
(716,175,o),
(738,259,o),
(738,358,cs),
(738,579,o),
(631,724,o),
(399,724,cs),
(165,724,o),
(58,579,o),
(58,359,cs),
(58,137,o),
(165,-10,o),
(398,-10,cs)
);
},
{
closed = 1;
nodes = (
(271,117,o),
(217,208,o),
(217,358,cs),
(217,507,o),
(271,598,o),
(399,598,cs),
(527,598,o),
(579,507,o),
(579,358,cs),
(579,208,o),
(527,117,o),
(398,117,cs)
);
}
);
userData = {
com.schriftgestaltung.Glyphs.glyph.leftMetricsKey = "Don-oldgeorgian";
com.schriftgestaltung.Glyphs.glyph.rightMetricsKey = "Gan-oldgeorgian";
};
width = 920;
},
{
layerId = m004;
shapes = (
{
closed = 1;
nodes = (
(490,-10,o),
(562,11,o),
(616,49,c),
(661,13,o),
(712,-10,o),
(770,-10,cs),
(913,-10,o),
(951,65,o),
(953,207,c),
(791,207,l),
(791,151,o),
(768,120,o),
(729,120,cs),
(716,120,o),
(705,121,o),
(691,128,c),
(728,189,o),
(745,267,o),
(745,358,cs),
(745,579,o),
(643,724,o),
(399,724,cs),
(158,724,o),
(51,580,o),
(51,359,cs),
(51,136,o),
(158,-10,o),
(398,-10,cs)
);
},
{
closed = 1;
nodes = (
(295,151,o),
(254,229,o),
(254,358,cs),
(254,487,o),
(294,566,o),
(399,566,cs),
(504,566,o),
(542,487,o),
(542,358,cs),
(542,229,o),
(504,151,o),
(398,151,cs)
);
}
);
userData = {
com.schriftgestaltung.Glyphs.glyph.leftMetricsKey = "Don-oldgeorgian";
com.schriftgestaltung.Glyphs.glyph.rightMetricsKey = "Gan-oldgeorgian";
};
width = 953;
},
{
layerId = m005;
shapes = (
{
closed = 1;
nodes = (
(305,-10,o),
(342,6,o),
(370,33,c),
(393,7,o),
(419,-10,o),
(451,-10,cs),
(509,-10,o),
(536,30,o),
(536,93,c),
(509,93,l),
(509,43,o),
(491,12,o),
(451,12,cs),
(427,12,o),
(405,26,o),
(385,49,c),
(440,117,o),
(457,234,o),
(457,358,cs),
(457,570,o),
(404,724,o),
(257,724,cs),
(126,724,o),
(54,602,o),
(54,358,cs),
(54,173,o),
(97,-10,o),
(257,-10,cs)
);
},
{
closed = 1;
nodes = (
(143,15,o),
(80,141,o),
(80,358,cs),
(80,574,o),
(137,699,o),
(257,699,cs),
(374,699,o),
(431,577,o),
(431,358,cs),
(431,135,o),
(374,15,o),
(257,15,cs)
);
}
);
userData = {
com.schriftgestaltung.Glyphs.glyph.leftMetricsKey = "Don-oldgeorgian";
com.schriftgestaltung.Glyphs.glyph.rightMetricsKey = "Gan-oldgeorgian";
};
width = 546;
},
{
layerId = m006;
shapes = (
{
closed = 1;
nodes = (
(323,-10,o),
(362,5,o),
(394,31,c),
(416,9,o),
(445,-10,o),
(486,-10,cs),
(567,-10,o),
(605,40,o),
(605,127,c),
(523,127,l),
(523,87,o),
(506,57,o),
(474,57,cs),
(459,57,o),
(445,63,o),
(432,73,c),
(479,140,o),
(499,242,o),
(499,358,cs),
(499,563,o),
(436,724,o),
(274,724,cs),
(124,724,o),
(48,603,o),
(48,359,cs),
(48,156,o),
(109,-10,o),
(274,-10,cs)
);
},
{
closed = 1;
nodes = (
(183,67,o),
(135,166,o),
(135,358,cs),
(135,549,o),
(181,648,o),
(274,648,cs),
(364,648,o),
(410,551,o),
(410,358,cs),
(410,163,o),
(363,67,o),
(273,67,cs)
);
}
);
userData = {
com.schriftgestaltung.Glyphs.glyph.leftMetricsKey = "Don-oldgeorgian";
com.schriftgestaltung.Glyphs.glyph.rightMetricsKey = "Gan-oldgeorgian";
};
width = 615;
},
{
layerId = m007;
shapes = (
{
closed = 1;
nodes = (
(358,-10,o),
(405,7,o),
(444,39,c),
(475,12,o),
(515,-10,o),
(562,-10,cs),
(659,-10,o),
(702,55,o),
(702,170,c),
(577,170,l),
(577,126,o),
(563,95,o),
(527,95,cs),
(516,95,o),
(506,98,o),
(497,104,c),
(533,166,o),
(551,254,o),
(551,358,cs),
(551,583,o),
(470,724,o),
(298,724,cs),
(132,724,o),
(43,598,o),
(43,359,cs),
(43,134,o),
(126,-10,o),
(298,-10,cs)
);
},
{
closed = 1;
nodes = (
(223,111,o),
(185,194,o),
(185,358,cs),
(185,522,o),
(222,605,o),
(298,605,cs),
(372,605,o),
(408,525,o),
(408,358,cs),
(408,190,o),
(372,111,o),
(297,111,cs)
);
}
);
userData = {
com.schriftgestaltung.Glyphs.glyph.leftMetricsKey = "Don-oldgeorgian";
com.schriftgestaltung.Glyphs.glyph.rightMetricsKey = "Gan-oldgeorgian";
};
width = 707;
},
{
layerId = m008;
shapes = (
{
closed = 1;
nodes = (
(378,-10,o),
(432,8,o),
(475,44,c),
(511,14,o),
(559,-10,o),
(610,-10,cs),
(717,-10,o),
(763,65,o),
(763,197,c),
(611,197,l),
(611,151,o),
(598,120,o),
(559,120,cs),
(551,120,o),
(544,121,o),
(537,124,c),
(567,183,o),
(582,261,o),
(582,358,cs),
(582,598,o),
(489,724,o),
(311,724,cs),
(134,724,o),
(39,596,o),
(39,359,cs),
(39,119,o),
(135,-10,o),
(311,-10,cs)
);
},
{
closed = 1;
nodes = (
(248,139,o),
(216,212,o),
(216,358,cs),
(216,505,o),
(248,578,o),
(311,578,cs),
(374,578,o),
(405,508,o),
(405,358,cs),
(405,208,o),
(375,139,o),
(311,139,cs)
);
}
);
userData = {
com.schriftgestaltung.Glyphs.glyph.leftMetricsKey = "Don-oldgeorgian";
com.schriftgestaltung.Glyphs.glyph.rightMetricsKey = "Gan-oldgeorgian";
};
width = 763;
}
);
note = uni10AD;
unicode = 4269;
}
{
glyphname = "Par-oldgeorgian";
kernLeft = "Zen-oldgeorgian";
kernRight = "En-oldgeorgian";
layers = (
{
layerId = m001;
shapes = (
{
closed = 1;
nodes = (
(638,-10,o),
(746,74,o),
(746,252,cs),
(746,714,l),
(720,714,l),
(720,244,ls),
(720,92,o),
(626,15,o),
(484,15,cs),
(335,15,o),
(249,96,o),
(249,256,cs),
(249,714,l),
(10,714,l),
(10,689,l),
(223,689,l),
(223,254,ls),
(223,81,o),
(318,-10,o),
(483,-10,cs)
);
}
);
userData = {
com.schriftgestaltung.Glyphs.glyph.leftMetricsKey = "Zen-oldgeorgian";
com.schriftgestaltung.Glyphs.glyph.rightMetricsKey = "=En-oldgeorgian-5";
};
width = 844;
},
{
layerId = m002;
shapes = (
{
closed = 1;
nodes = (
(661,-10,o),
(760,90,o),
(760,254,cs),
(760,714,l),
(670,714,l),
(670,251,ls),
(670,134,o),
(608,68,o),
(483,68,cs),
(364,68,o),
(299,135,o),
(299,252,cs),
(299,714,l),
(5,714,l),
(5,636,l),
(210,636,l),
(210,252,ls),
(210,88,o),
(314,-10,o),
(488,-10,cs)
);
}
);
userData = {
com.schriftgestaltung.Glyphs.glyph.leftMetricsKey = "Zen-oldgeorgian";
com.schriftgestaltung.Glyphs.glyph.rightMetricsKey = "=En-oldgeorgian-5";
};
width = 853;
},
{
layerId = m004;
shapes = (
{
closed = 1;
nodes = (
(684,-10,o),
(786,104,o),
(786,284,cs),
(786,714,l),
(593,714,l),
(593,296,ls),
(593,194,o),
(560,151,o),
(481,151,cs),
(407,151,o),
(369,194,o),
(369,295,cs),
(369,714,l),
(-10,714,l),
(-10,556,l),
(175,556,l),
(175,280,ls),
(175,95,o),
(281,-10,o),
(478,-10,cs)
);
}
);
userData = {
com.schriftgestaltung.Glyphs.glyph.leftMetricsKey = "Zen-oldgeorgian";
com.schriftgestaltung.Glyphs.glyph.rightMetricsKey = "=En-oldgeorgian-5";
};
width = 858;
},
{
layerId = m005;
shapes = (
{
closed = 1;
nodes = (
(430,-10,o),
(506,42,o),
(506,217,cs),
(506,714,l),
(480,714,l),
(480,221,ls),
(480,63,o),
(420,15,o),
(335,15,cs),
(244,15,o),
(190,71,o),
(190,221,cs),
(190,714,l),
(10,714,l),
(10,689,l),
(164,689,l),
(164,217,ls),
(164,59,o),
(225,-10,o),
(335,-10,cs)
);
}
);
userData = {
com.schriftgestaltung.Glyphs.glyph.leftMetricsKey = "Zen-oldgeorgian";
com.schriftgestaltung.Glyphs.glyph.rightMetricsKey = "=En-oldgeorgian-5";
};
width = 579;
},
{
layerId = m006;
shapes = (
{
closed = 1;
nodes = (
(469,-10,o),
(548,56,o),
(548,227,cs),
(548,714,l),
(466,714,l),
(466,231,ls),
(466,104,o),
(421,63,o),
(351,63,cs),
(278,63,o),
(236,109,o),
(236,231,cs),
(236,714,l),
(4,714,l),
(4,641,l),
(153,641,l),
(153,225,ls),
(153,64,o),
(223,-10,o),
(350,-10,cs)
);
}
);
userData = {
com.schriftgestaltung.Glyphs.glyph.leftMetricsKey = "Zen-oldgeorgian";
com.schriftgestaltung.Glyphs.glyph.rightMetricsKey = "=En-oldgeorgian-5";
};
width = 615;
},
{
layerId = m008;
shapes = (
{
closed = 1;
nodes = (
(528,-10,o),
(613,77,o),
(613,242,cs),
(613,714,l),
(443,714,l),
(443,247,ls),
(443,167,o),
(422,139,o),
(374,139,cs),
(329,139,o),
(306,168,o),
(306,246,cs),
(306,714,l),
(-10,714,l),
(-10,567,l),
(136,567,l),
(136,238,ls),
(136,72,o),
(220,-10,o),
(372,-10,cs)
);
}
);
userData = {
com.schriftgestaltung.Glyphs.glyph.leftMetricsKey = "Zen-oldgeorgian";
com.schriftgestaltung.Glyphs.glyph.rightMetricsKey = "=En-oldgeorgian-5";
};
width = 667;
}
);
note = uni10AE;
unicode = 4270;
}
{
glyphname = "Zhar-oldgeorgian";
kernRight = "En-oldgeorgian";
layers = (
{
layerId = m001;
shapes = (
{
closed = 1;
nodes = (
(582,0,l),
(582,714,l),
(556,714,l),
(556,486,ls),
(556,313,o),
(454,248,o),
(344,248,cs),
(235,248,o),
(155,317,o),
(155,467,cs),
(155,568,o),
(195,634,o),
(279,686,c),
(279,714,l),
(15,714,l),
(15,689,l),
(243,689,l),
(243,687,l),
(174,644,o),
(128,570,o),
(128,467,cs),
(128,303,o),
(218,221,o),
(344,221,cs),
(437,221,o),
(520,270,o),
(554,353,c),
(559,353,l),
(558,333,o),
(556,293,o),
(556,248,cs),
(556,0,l)
);
}
);
userData = {
com.schriftgestaltung.Glyphs.glyph.leftMetricsKey = "=Zen-oldgeorgian+5";
com.schriftgestaltung.Glyphs.glyph.rightMetricsKey = "En-oldgeorgian";
};
width = 685;
},
{
layerId = m002;
shapes = (
{
closed = 1;
nodes = (
(641,0,l),
(641,714,l),
(551,714,l),
(551,507,ls),
(551,358,o),
(492,293,o),
(364,293,cs),
(262,293,o),
(211,352,o),
(211,469,cs),
(211,526,o),
(232,609,o),
(325,636,c),
(325,714,l),
(10,714,l),
(10,636,l),
(200,636,l),
(200,633,l),
(151,597,o),
(116,537,o),
(116,451,cs),
(116,308,o),
(210,215,o),
(346,215,cs),
(432,215,o),
(511,254,o),
(550,312,c),
(555,312,l),
(552,280,o),
(550,252,o),
(550,214,cs),
(550,0,l)
);
}
);
userData = {
com.schriftgestaltung.Glyphs.glyph.leftMetricsKey = "=Zen-oldgeorgian+5";
com.schriftgestaltung.Glyphs.glyph.rightMetricsKey = "En-oldgeorgian";
};
width = 739;
},
{
layerId = m004;
shapes = (
{
closed = 1;
nodes = (
(711,0,l),
(711,714,l),
(517,714,l),
(517,508,ls),
(517,415,o),
(469,360,o),
(392,360,cs),
(324,360,o),
(283,396,o),
(283,467,cs),
(283,525,o),
(308,564,o),
(360,578,c),
(360,714,l),
(-5,714,l),
(-5,556,l),
(135,556,l),
(135,552,l),
(110,524,o),
(89,482,o),
(89,421,cs),
(89,300,o),
(182,203,o),
(333,203,cs),
(419,203,o),
(483,238,o),
(521,290,c),
(526,290,l),
(519,231,o),
(517,179,o),
(517,133,cs),
(517,0,l)
);
}
);
userData = {
com.schriftgestaltung.Glyphs.glyph.leftMetricsKey = "=Zen-oldgeorgian+5";
com.schriftgestaltung.Glyphs.glyph.rightMetricsKey = "En-oldgeorgian";
};
width = 788;
},
{
layerId = m005;
shapes = (
{
closed = 1;
nodes = (
(384,0,l),
(384,714,l),
(358,714,l),
(358,484,ls),
(358,300,o),
(300,243,o),
(222,243,cs),
(139,243,o),
(102,327,o),
(102,450,cs),
(102,546,o),
(121,616,o),
(186,685,c),
(186,714,l),
(15,714,l),
(15,689,l),
(159,689,l),
(159,687,l),
(95,627,o),
(75,540,o),
(75,450,cs),
(75,304,o),
(128,218,o),
(222,218,cs),
(287,218,o),
(336,255,o),
(358,333,c),
(360,333,l),
(359,311,o),
(358,263,o),
(358,218,cs),
(358,0,l)
);
}
);
userData = {
com.schriftgestaltung.Glyphs.glyph.leftMetricsKey = "=Zen-oldgeorgian+5";
com.schriftgestaltung.Glyphs.glyph.rightMetricsKey = "En-oldgeorgian";
};
width = 462;
},
{
layerId = m006;
shapes = (
{
closed = 1;
nodes = (
(468,0,l),
(468,714,l),
(385,714,l),
(385,501,ls),
(385,341,o),
(337,283,o),
(268,283,cs),
(198,283,o),
(164,350,o),
(164,459,cs),
(164,528,o),
(178,589,o),
(234,641,c),
(234,714,l),
(9,714,l),
(9,641,l),
(151,641,l),
(151,638,l),
(102,589,o),
(79,520,o),
(79,452,cs),
(79,306,o),
(142,214,o),
(245,214,cs),
(314,214,o),
(360,250,o),
(386,322,c),
(390,322,l),
(387,288,o),
(385,241,o),
(385,198,cs),
(385,0,l)
);
}
);
userData = {
com.schriftgestaltung.Glyphs.glyph.leftMetricsKey = "=Zen-oldgeorgian+5";
com.schriftgestaltung.Glyphs.glyph.rightMetricsKey = "En-oldgeorgian";
};
width = 540;
},
{
layerId = m008;
shapes = (
{
closed = 1;
nodes = (
(578,0,l),
(578,714,l),
(408,714,l),
(408,504,ls),
(408,402,o),
(374,345,o),
(320,345,cs),
(269,345,o),
(240,386,o),
(240,456,cs),
(240,512,o),
(262,556,o),
(304,578,c),
(304,714,l),
(-5,714,l),
(-5,567,l),
(121,567,l),
(121,563,l),
(87,529,o),
(65,485,o),
(65,416,cs),
(65,309,o),
(143,209,o),
(261,209,cs),
(335,209,o),
(378,243,o),
(410,305,c),
(416,305,l),
(411,251,o),
(408,206,o),
(408,167,cs),
(408,0,l)
);
}
);
userData = {
com.schriftgestaltung.Glyphs.glyph.leftMetricsKey = "=Zen-oldgeorgian+5";
com.schriftgestaltung.Glyphs.glyph.rightMetricsKey = "En-oldgeorgian";
};
width = 637;
}
);
note = uni10AF;
unicode = 4271;
}
{
glyphname = "Rae-oldgeorgian";
kernLeft = "Rae-oldgeorgian";
layers = (
{
layerId = m001;
shapes = (
{
closed = 1;
nodes = (
(430,-10,o),
(498,93,o),
(498,250,cs),
(498,310,ls),
(498,444,o),
(581,513,o),
(660,513,cs),
(755,513,o),
(802,438,o),
(802,355,cs),
(802,316,o),
(791,275,o),
(771,242,c),
(793,232,l),
(817,269,o),
(829,313,o),
(829,356,cs),
(829,450,o),
(772,538,o),
(660,538,cs),
(580,538,o),
(526,489,o),
(498,417,c),
(495,417,l),
(497,446,o),
(498,496,o),
(498,513,cs),
(498,714,l),
(472,714,l),
(472,250,ls),
(472,98,o),
(403,16,o),
(277,16,cs),
(156,16,o),
(85,99,o),
(85,219,cs),
(85,267,o),
(99,319,o),
(128,367,c),
(107,377,l),
(74,326,o),
(59,271,o),
(59,218,cs),
(59,87,o),
(140,-10,o),
(277,-10,cs)
);
}
);
userData = {
com.schriftgestaltung.Glyphs.glyph.leftMetricsKey = "=Don-oldgeorgian-5";
com.schriftgestaltung.Glyphs.glyph.rightMetricsKey = "Vin-oldgeorgian";
};
width = 881;
},
{
layerId = m002;
shapes = (
{
closed = 1;
nodes = (
(448,-10,o),
(539,86,o),
(539,252,cs),
(539,328,ls),
(539,415,o),
(588,468,o),
(665,468,cs),
(741,468,o),
(781,410,o),
(781,343,cs),
(781,312,o),
(773,279,o),
(756,248,c),
(835,223,l),
(859,263,o),
(872,309,o),
(872,352,cs),
(872,454,o),
(808,546,o),
(692,546,cs),
(634,546,o),
(578,524,o),
(540,464,c),
(534,464,l),
(538,513,o),
(539,542,o),
(539,550,cs),
(539,714,l),
(449,714,l),
(449,252,ls),
(449,129,o),
(395,68,o),
(297,68,cs),
(201,68,o),
(150,145,o),
(150,234,cs),
(150,277,o),
(162,324,o),
(188,366,c),
(111,398,l),
(74,346,o),
(56,294,o),
(56,232,cs),
(56,95,o),
(148,-10,o),
(298,-10,cs)
);
}
);
userData = {
com.schriftgestaltung.Glyphs.glyph.leftMetricsKey = "=Don-oldgeorgian-5";
com.schriftgestaltung.Glyphs.glyph.rightMetricsKey = "Vin-oldgeorgian";
};
width = 916;
},
{
layerId = m003;
shapes = (
{
closed = 1;
nodes = (
(507,-10,o),
(604,91,o),
(604,257,cs),
(604,319,ls),
(604,391,o),
(639,431,o),
(697,431,cs),
(756,431,o),
(786,384,o),
(786,330,cs),
(786,301,o),
(778,271,o),
(762,244,c),
(895,203,l),
(923,245,o),
(940,298,o),
(940,350,cs),
(940,455,o),
(875,555,o),
(756,555,cs),
(685,555,o),
(641,532,o),
(602,476,c),
(597,476,l),
(602,531,o),
(604,567,o),
(604,598,cs),
(604,714,l),
(452,714,l),
(452,276,ls),
(452,167,o),
(409,117,o),
(329,117,cs),
(254,117,o),
(210,174,o),
(210,254,cs),
(210,298,o),
(223,339,o),
(247,377,c),
(119,431,l),
(74,373,o),
(53,311,o),
(53,247,cs),
(53,107,o),
(158,-10,o),
(333,-10,cs)
);
}
);
userData = {
com.schriftgestaltung.Glyphs.glyph.leftMetricsKey = "=Don-oldgeorgian-5";
com.schriftgestaltung.Glyphs.glyph.rightMetricsKey = "Vin-oldgeorgian";
};
width = 979;
},
{
layerId = m004;
shapes = (
{
closed = 1;
nodes = (
(543,-10,o),
(644,94,o),
(644,260,cs),
(644,313,ls),
(644,374,o),
(669,405,o),
(714,405,cs),
(762,405,o),
(784,366,o),
(784,321,cs),
(784,294,o),
(776,266,o),
(762,242,c),
(932,189,l),
(963,232,o),
(982,290,o),
(982,348,cs),
(982,456,o),
(917,562,o),
(795,562,cs),
(715,562,o),
(679,537,o),
(640,485,c),
(635,485,l),
(642,544,o),
(644,585,o),
(644,631,cs),
(644,714,l),
(450,714,l),
(450,293,ls),
(450,194,o),
(413,151,o),
(347,151,cs),
(286,151,o),
(247,194,o),
(247,268,cs),
(247,312,o),
(260,349,o),
(283,385,c),
(120,454,l),
(69,391,o),
(46,323,o),
(46,258,cs),
(46,115,o),
(160,-10,o),
(352,-10,cs)
);
}
);
userData = {
com.schriftgestaltung.Glyphs.glyph.leftMetricsKey = "=Don-oldgeorgian-5";
com.schriftgestaltung.Glyphs.glyph.rightMetricsKey = "Vin-oldgeorgian";
};
width = 1017;
},
{
layerId = m005;
shapes = (
{
closed = 1;
nodes = (
(303,-10,o),
(342,86,o),
(342,220,cs),
(342,333,ls),
(342,454,o),
(392,512,o),
(450,512,cs),
(512,512,o),
(543,454,o),
(543,382,cs),
(543,338,o),
(531,289,o),
(508,245,c),
(531,236,l),
(555,281,o),
(570,333,o),
(570,381,cs),
(570,465,o),
(530,537,o),
(450,537,cs),
(407,537,o),
(363,507,o),
(342,442,c),
(340,442,l),
(342,469,o),
(342,501,o),
(342,519,cs),
(342,714,l),
(316,714,l),
(316,220,ls),
(316,88,o),
(277,15,o),
(197,15,cs),
(121,15,o),
(76,87,o),
(76,208,cs),
(76,270,o),
(91,325,o),
(113,361,c),
(93,370,l),
(70,335,o),
(49,281,o),
(49,207,cs),
(49,87,o),
(94,-10,o),
(198,-10,cs)
);
}
);
userData = {
com.schriftgestaltung.Glyphs.glyph.leftMetricsKey = "=Don-oldgeorgian-5";
com.schriftgestaltung.Glyphs.glyph.rightMetricsKey = "Vin-oldgeorgian";
};
width = 604;
},
{
layerId = m006;
shapes = (
{
closed = 1;
nodes = (
(357,-10,o),
(413,83,o),
(413,234,cs),
(413,358,ls),
(413,445,o),
(455,479,o),
(499,479,cs),
(551,479,o),
(585,438,o),
(585,369,cs),
(585,336,o),
(575,300,o),
(554,266,c),
(627,245,l),
(653,285,o),
(668,332,o),
(668,389,cs),
(668,466,o),
(616,547,o),
(525,547,cs),
(478,547,o),
(437,525,o),
(412,473,c),
(410,473,l),
(412,504,o),
(413,541,o),
(413,565,cs),
(413,714,l),
(331,714,l),
(331,239,ls),
(331,126,o),
(300,63,o),
(233,63,cs),
(168,63,o),
(132,126,o),
(132,210,cs),
(132,262,o),
(142,313,o),
(163,359,c),
(89,385,l),
(60,338,o),
(43,276,o),
(43,213,cs),
(43,84,o),
(112,-10,o),
(235,-10,cs)
);
}
);
userData = {
com.schriftgestaltung.Glyphs.glyph.leftMetricsKey = "=Don-oldgeorgian-5";
com.schriftgestaltung.Glyphs.glyph.rightMetricsKey = "Vin-oldgeorgian";
};
width = 702;
},
{
layerId = m007;
shapes = (
{
closed = 1;
nodes = (
(404,-10,o),
(477,81,o),
(477,250,cs),
(477,351,ls),
(477,417,o),
(508,447,o),
(544,447,cs),
(585,447,o),
(607,411,o),
(607,360,cs),
(607,330,o),
(600,296,o),
(583,267,c),
(704,231,l),
(735,269,o),
(751,320,o),
(751,382,cs),
(751,465,o),
(695,557,o),
(598,557,cs),
(547,557,o),
(503,537,o),
(476,486,c),
(472,486,l),
(476,520,o),
(477,562,o),
(477,592,cs),
(477,714,l),
(340,714,l),
(340,260,ls),
(340,163,o),
(317,110,o),
(261,110,cs),
(208,110,o),
(182,164,o),
(182,235,cs),
(182,278,o),
(192,328,o),
(211,366,c),
(91,407,l),
(56,355,o),
(38,293,o),
(38,232,cs),
(38,101,o),
(118,-10,o),
(263,-10,cs)
);
}
);
userData = {
com.schriftgestaltung.Glyphs.glyph.leftMetricsKey = "=Don-oldgeorgian-5";
com.schriftgestaltung.Glyphs.glyph.rightMetricsKey = "Vin-oldgeorgian";
};
width = 783;
},
{
layerId = m008;
shapes = (
{
closed = 1;
nodes = (
(432,-10,o),
(515,79,o),
(515,260,cs),
(515,347,ls),
(515,400,o),
(539,428,o),
(571,428,cs),
(604,428,o),
(620,394,o),
(620,354,cs),
(620,326,o),
(614,294,o),
(600,268,c),
(750,223,l),
(783,260,o),
(801,313,o),
(801,377,cs),
(801,464,o),
(742,563,o),
(642,563,cs),
(588,563,o),
(542,544,o),
(513,494,c),
(509,494,l),
(513,530,o),
(515,575,o),
(515,608,cs),
(515,714,l),
(345,714,l),
(345,273,ls),
(345,185,o),
(326,139,o),
(277,139,cs),
(232,139,o),
(211,187,o),
(211,250,cs),
(211,288,o),
(221,337,o),
(239,370,c),
(92,420,l),
(53,366,o),
(34,303,o),
(34,243,cs),
(34,112,o),
(121,-10,o),
(279,-10,cs)
);
}
);
userData = {
com.schriftgestaltung.Glyphs.glyph.leftMetricsKey = "=Don-oldgeorgian-5";
com.schriftgestaltung.Glyphs.glyph.rightMetricsKey = "Vin-oldgeorgian";
};
width = 830;
}
);
note = uni10B0;
unicode = 4272;
}
{
glyphname = "San-oldgeorgian";
kernLeft = "San-oldgeorgian";
layers = (
{
layerId = m001;
shapes = (
{
closed = 1;
nodes = (
(456,-10,o),
(537,87,o),
(537,218,cs),
(537,271,o),
(522,326,o),
(489,377,c),
(468,367,l),
(497,319,o),
(511,267,o),
(511,219,cs),
(511,99,o),
(440,16,o),
(319,16,cs),
(193,16,o),
(124,98,o),
(124,250,cs),
(124,714,l),
(98,714,l),
(98,250,l),
(98,93,o),
(166,-10,o),
(319,-10,cs)
);
}
);
userData = {
com.schriftgestaltung.Glyphs.glyph.leftMetricsKey = "=Nar-oldgeorgian-5";
com.schriftgestaltung.Glyphs.glyph.rightMetricsKey = "=Don-oldgeorgian-5";
};
width = 596;
},
{
layerId = m002;
shapes = (
{
closed = 1;
nodes = (
(484,-10,o),
(576,95,o),
(576,232,cs),
(576,294,o),
(558,346,o),
(521,398,c),
(444,366,l),
(470,324,o),
(482,277,o),
(482,234,cs),
(482,145,o),
(431,68,o),
(335,68,cs),
(237,68,o),
(183,129,o),
(183,252,cs),
(183,714,l),
(93,714,l),
(93,252,ls),
(93,86,o),
(184,-10,o),
(334,-10,cs)
);
}
);
userData = {
com.schriftgestaltung.Glyphs.glyph.leftMetricsKey = "=Nar-oldgeorgian-5";
com.schriftgestaltung.Glyphs.glyph.rightMetricsKey = "=Don-oldgeorgian-5";
};
width = 632;
},
{
layerId = m004;
shapes = (
{
closed = 1;
nodes = (
(556,-10,o),
(670,115,o),
(670,258,cs),
(670,323,o),
(647,391,o),
(596,454,c),
(433,385,l),
(456,349,o),
(469,312,o),
(469,268,cs),
(469,194,o),
(430,151,o),
(369,151,cs),
(303,151,o),
(266,194,o),
(266,293,cs),
(266,714,l),
(72,714,l),
(72,270,ls),
(72,104,o),
(173,-10,o),
(364,-10,cs)
);
}
);
userData = {
com.schriftgestaltung.Glyphs.glyph.leftMetricsKey = "=Nar-oldgeorgian-5";
com.schriftgestaltung.Glyphs.glyph.rightMetricsKey = "=Don-oldgeorgian-5";
};
width = 717;
},
{
layerId = m005;
shapes = (
{
closed = 1;
nodes = (
(314,-10,o),
(359,87,o),
(359,207,cs),
(359,281,o),
(338,335,o),
(315,370,c),
(295,361,l),
(317,325,o),
(332,270,o),
(332,208,cs),
(332,87,o),
(287,15,o),
(211,15,cs),
(131,15,o),
(92,88,o),
(92,220,cs),
(92,714,l),
(66,714,l),
(66,220,ls),
(66,86,o),
(105,-10,o),
(210,-10,cs)
);
}
);
userData = {
com.schriftgestaltung.Glyphs.glyph.leftMetricsKey = "=Nar-oldgeorgian-5";
com.schriftgestaltung.Glyphs.glyph.rightMetricsKey = "=Don-oldgeorgian-5";
};
width = 408;
},
{
layerId = m006;
shapes = (
{
closed = 1;
nodes = (
(368,-10,o),
(431,84,o),
(431,213,cs),
(431,276,o),
(414,338,o),
(385,385,c),
(311,359,l),
(332,313,o),
(342,262,o),
(342,210,cs),
(342,126,o),
(312,63,o),
(247,63,cs),
(180,63,o),
(143,126,o),
(143,239,cs),
(143,714,l),
(61,714,l),
(61,234,l),
(61,83,o),
(123,-10,o),
(245,-10,cs)
);
}
);
userData = {
com.schriftgestaltung.Glyphs.glyph.leftMetricsKey = "=Nar-oldgeorgian-5";
com.schriftgestaltung.Glyphs.glyph.rightMetricsKey = "=Don-oldgeorgian-5";
};
width = 474;
},
{
layerId = m008;
shapes = (
{
closed = 1;
nodes = (
(458,-10,o),
(535,112,o),
(535,243,cs),
(535,303,o),
(516,366,o),
(477,420,c),
(330,370,l),
(348,337,o),
(358,288,o),
(358,250,cs),
(358,187,o),
(337,139,o),
(292,139,cs),
(243,139,o),
(224,185,o),
(224,273,cs),
(224,714,l),
(54,714,l),
(54,260,ls),
(54,79,o),
(157,-10,o),
(300,-10,cs)
);
}
);
userData = {
com.schriftgestaltung.Glyphs.glyph.leftMetricsKey = "=Nar-oldgeorgian-5";
com.schriftgestaltung.Glyphs.glyph.rightMetricsKey = "=Don-oldgeorgian-5";
};
width = 569;
}
);
note = uni10B1;
unicode = 4273;
}
{
glyphname = "Tar-oldgeorgian";
kernLeft = "Tar-oldgeorgian";
layers = (
{
layerId = m001;
shapes = (
{
closed = 1;
nodes = (
(502,0,l),
(502,25,l),
(129,25,l),
(129,305,l),
(256,305,ls),
(414,305,o),
(516,364,o),
(516,519,cs),
(516,658,o),
(429,714,o),
(270,714,cs),
(103,714,l),
(103,0,l)
);
},
{
closed = 1;
nodes = (
(129,689,l),
(266,689,ls),
(418,689,o),
(489,639,o),
(489,518,cs),
(489,372,o),
(394,330,o),
(254,330,cs),
(129,330,l)
);
}
);
userData = {
com.schriftgestaltung.Glyphs.glyph.leftMetricsKey = "Nar-oldgeorgian";
com.schriftgestaltung.Glyphs.glyph.rightMetricsKey = "Don-oldgeorgian";
};
width = 580;
},
{
layerId = m002;
shapes = (
{
closed = 1;
nodes = (
(527,0,l),
(527,78,l),
(188,78,l),
(188,278,l),
(270,278,ls),
(451,278,o),
(555,358,o),
(555,504,cs),
(555,644,o),
(466,714,o),
(287,714,cs),
(98,714,l),
(98,0,l)
);
},
{
closed = 1;
nodes = (
(188,637,l),
(279,637,ls),
(404,637,o),
(462,592,o),
(462,500,cs),
(462,398,o),
(402,355,o),
(260,355,cs),
(188,355,l)
);
}
);
userData = {
com.schriftgestaltung.Glyphs.glyph.leftMetricsKey = "Nar-oldgeorgian";
com.schriftgestaltung.Glyphs.glyph.rightMetricsKey = "Don-oldgeorgian";
};
width = 616;
},
{
layerId = m004;
shapes = (
{
closed = 1;
nodes = (
(561,0,l),
(561,156,l),
(270,156,l),
(270,237,l),
(324,237,ls),
(527,237,o),
(595,357,o),
(595,487,cs),
(595,632,o),
(505,714,o),
(324,714,cs),
(77,714,l),
(77,0,l)
);
},
{
closed = 1;
nodes = (
(270,558,l),
(320,558,ls),
(376,558,o),
(402,527,o),
(402,482,cs),
(402,417,o),
(358,394,o),
(308,394,cs),
(270,394,l)
);
}
);
userData = {
com.schriftgestaltung.Glyphs.glyph.leftMetricsKey = "Nar-oldgeorgian";
com.schriftgestaltung.Glyphs.glyph.rightMetricsKey = "Don-oldgeorgian";
};
width = 647;
},
{
layerId = m005;
shapes = (
{
closed = 1;
nodes = (
(344,0,l),
(344,25,l),
(97,25,l),
(97,306,l),
(165,306,ls),
(296,306,o),
(355,366,o),
(355,519,cs),
(355,663,o),
(293,714,o),
(165,714,cs),
(71,714,l),
(71,0,l)
);
},
{
closed = 1;
nodes = (
(97,689,l),
(164,689,ls),
(275,689,o),
(328,645,o),
(328,520,cs),
(328,385,o),
(278,331,o),
(171,331,cs),
(97,331,l)
);
}
);
userData = {
com.schriftgestaltung.Glyphs.glyph.leftMetricsKey = "Nar-oldgeorgian";
com.schriftgestaltung.Glyphs.glyph.rightMetricsKey = "Don-oldgeorgian";
};
width = 409;
},
{
layerId = m006;
shapes = (
{
closed = 1;
nodes = (
(390,0,l),
(390,73,l),
(148,73,l),
(148,279,l),
(203,279,ls),
(344,279,o),
(408,357,o),
(408,507,cs),
(408,651,o),
(341,714,o),
(206,714,cs),
(66,714,l),
(66,0,l)
);
},
{
closed = 1;
nodes = (
(148,643,l),
(199,643,ls),
(284,643,o),
(325,605,o),
(325,507,cs),
(325,395,o),
(283,351,o),
(199,351,cs),
(148,351,l)
);
}
);
userData = {
com.schriftgestaltung.Glyphs.glyph.leftMetricsKey = "Nar-oldgeorgian";
com.schriftgestaltung.Glyphs.glyph.rightMetricsKey = "Don-oldgeorgian";
};
width = 456;
},
{
layerId = m008;
shapes = (
{
closed = 1;
nodes = (
(463,0,l),
(463,147,l),
(229,147,l),
(229,237,l),
(262,237,ls),
(420,237,o),
(492,344,o),
(492,487,cs),
(492,632,o),
(418,714,o),
(271,714,cs),
(59,714,l),
(59,0,l)
);
},
{
closed = 1;
nodes = (
(229,570,l),
(255,570,ls),
(300,570,o),
(322,542,o),
(322,486,cs),
(322,410,o),
(291,381,o),
(244,381,cs),
(229,381,l)
);
}
);
userData = {
com.schriftgestaltung.Glyphs.glyph.leftMetricsKey = "Nar-oldgeorgian";
com.schriftgestaltung.Glyphs.glyph.rightMetricsKey = "Don-oldgeorgian";
};
width = 531;
}
);
note = uni10B2;
unicode = 4274;
}
{
glyphname = "Un-oldgeorgian";
kernLeft = "Tan-oldgeorgian";
layers = (
{
layerId = m001;
shapes = (
{
closed = 1;
nodes = (
(681,-150,o),
(734,-102,o),
(734,-21,cs),
(734,55,o),
(673,95,o),
(624,108,c),
(668,172,o),
(691,257,o),
(691,358,cs),
(691,590,o),
(580,725,o),
(383,725,cs),
(178,725,o),
(64,574,o),
(64,359,cs),
(64,143,o),
(169,-10,o),
(377,-10,cs),
(479,-10,o),
(557,26,o),
(609,88,c),
(662,74,o),
(707,35,o),
(707,-22,cs),
(707,-80,o),
(674,-124,o),
(602,-124,cs),
(589,-124,o),
(575,-123,o),
(566,-122,c),
(566,-147,l),
(574,-149,o),
(591,-150,o),
(602,-150,cs)
);
},
{
closed = 1;
nodes = (
(183,15,o),
(91,159,o),
(91,359,cs),
(91,556,o),
(187,700,o),
(383,700,cs),
(563,700,o),
(664,575,o),
(664,358,cs),
(664,156,o),
(574,15,o),
(378,15,cs)
);
}
);
userData = {
com.schriftgestaltung.Glyphs.glyph.leftMetricsKey = "Don-oldgeorgian";
com.schriftgestaltung.Glyphs.glyph.rightMetricsKey = "=Gan-oldgeorgian+10";
};
width = 754;
},
{
layerId = m002;
shapes = (
{
closed = 1;
nodes = (
(695,-170,o),
(760,-109,o),
(760,-17,cs),
(760,55,o),
(716,95,o),
(649,110,c),
(700,187,o),
(720,265,o),
(720,358,cs),
(720,588,o),
(599,724,o),
(392,724,cs),
(179,724,o),
(61,591,o),
(61,359,cs),
(61,125,o),
(181,-10,o),
(391,-10,cs),
(476,-10,o),
(546,13,o),
(603,59,c),
(642,50,o),
(672,21,o),
(672,-17,cs),
(672,-63,o),
(645,-92,o),
(595,-92,cs),
(579,-92,o),
(565,-90,o),
(553,-88,c),
(553,-166,l),
(570,-168,o),
(584,-170,o),
(595,-170,cs)
);
},
{
closed = 1;
nodes = (
(237,68,o),
(156,169,o),
(156,358,cs),
(156,546,o),
(237,645,o),
(392,645,cs),
(545,645,o),
(625,549,o),
(625,358,cs),
(625,167,o),
(544,68,o),
(391,68,cs)
);
}
);
userData = {
com.schriftgestaltung.Glyphs.glyph.leftMetricsKey = "Don-oldgeorgian";
com.schriftgestaltung.Glyphs.glyph.rightMetricsKey = "=Gan-oldgeorgian+10";
};
width = 780;
},
{
layerId = m004;
shapes = (
{
closed = 1;
nodes = (
(718,-195,o),
(787,-145,o),
(787,-40,cs),
(787,41,o),
(728,98,o),
(673,125,c),
(728,190,o),
(745,269,o),
(745,358,cs),
(745,579,o),
(643,724,o),
(399,724,cs),
(158,724,o),
(51,580,o),
(51,359,cs),
(51,136,o),
(158,-10,o),
(398,-10,cs),
(485,-10,o),
(539,5,o),
(587,39,c),
(606,16,o),
(616,0,o),
(616,-21,cs),
(616,-43,o),
(598,-59,o),
(565,-59,cs),
(550,-59,o),
(536,-57,o),
(524,-53,c),
(524,-184,l),
(547,-192,o),
(577,-195,o),
(609,-195,cs)
);
},
{
closed = 1;
nodes = (
(295,151,o),
(254,229,o),
(254,358,cs),
(254,486,o),
(294,566,o),
(399,566,cs),
(504,566,o),
(542,486,o),
(542,358,cs),
(542,229,o),
(504,151,o),
(398,151,cs)
);
}
);
userData = {
com.schriftgestaltung.Glyphs.glyph.leftMetricsKey = "Don-oldgeorgian";
com.schriftgestaltung.Glyphs.glyph.rightMetricsKey = "=Gan-oldgeorgian+10";
};
width = 797;
},
{
layerId = m005;
shapes = (
{
closed = 1;
nodes = (
(449,-138,o),
(489,-103,o),
(489,-33,cs),
(489,37,o),
(449,75,o),
(416,100,c),
(447,168,o),
(457,261,o),
(457,358,cs),
(457,570,o),
(404,724,o),
(257,724,cs),
(126,724,o),
(54,602,o),
(54,358,cs),
(54,173,o),
(97,-10,o),
(257,-10,cs),
(327,-10,o),
(374,24,o),
(405,79,c),
(436,54,o),
(463,25,o),
(463,-33,cs),
(463,-84,o),
(436,-113,o),
(382,-113,cs),
(373,-113,o),
(364,-112,o),
(357,-110,c),
(357,-135,l),
(364,-137,o),
(375,-138,o),
(382,-138,cs)
);
},
{
closed = 1;
nodes = (
(143,15,o),
(80,141,o),
(80,358,cs),
(80,574,o),
(137,699,o),
(257,699,cs),
(374,699,o),
(431,577,o),
(431,358,cs),
(431,135,o),
(374,15,o),
(257,15,cs)
);
}
);
userData = {
com.schriftgestaltung.Glyphs.glyph.leftMetricsKey = "Don-oldgeorgian";
com.schriftgestaltung.Glyphs.glyph.rightMetricsKey = "=Gan-oldgeorgian+10";
};
width = 509;
},
{
layerId = m006;
shapes = (
{
closed = 1;
nodes = (
(496,-164,o),
(538,-113,o),
(538,-34,cs),
(538,37,o),
(496,84,o),
(464,112,c),
(494,176,o),
(506,263,o),
(506,358,cs),
(506,581,o),
(437,724,o),
(278,724,cs),
(129,724,o),
(48,600,o),
(48,358,cs),
(48,152,o),
(112,-10,o),
(278,-10,cs),
(342,-10,o),
(389,16,o),
(424,59,c),
(445,38,o),
(464,10,o),
(464,-29,cs),
(464,-69,o),
(444,-100,o),
(409,-100,cs),
(398,-100,o),
(388,-99,o),
(379,-96,c),
(379,-157,l),
(392,-161,o),
(409,-164,o),
(423,-164,cs)
);
},
{
closed = 1;
nodes = (
(184,63,o),
(133,169,o),
(133,358,cs),
(133,547,o),
(180,652,o),
(278,652,cs),
(374,652,o),
(421,550,o),
(421,358,cs),
(421,163,o),
(374,63,o),
(278,63,cs)
);
}
);
userData = {
com.schriftgestaltung.Glyphs.glyph.leftMetricsKey = "Don-oldgeorgian";
com.schriftgestaltung.Glyphs.glyph.rightMetricsKey = "=Gan-oldgeorgian+10";
};
width = 558;
},
{
layerId = m008;
shapes = (
{
closed = 1;
nodes = (
(570,-188,o),
(624,-128,o),
(624,-36,cs),
(624,44,o),
(584,94,o),
(539,130,c),
(567,188,o),
(582,265,o),
(582,358,cs),
(582,598,o),
(489,724,o),
(311,724,cs),
(134,724,o),
(39,596,o),
(39,359,cs),
(39,119,o),
(135,-10,o),
(311,-10,cs),
(366,-10,o),
(414,3,o),
(453,29,c),
(468,14,o),
(475,1,o),
(475,-22,cs),
(475,-46,o),
(458,-64,o),
(437,-64,cs),
(423,-64,o),
(410,-62,o),
(398,-58,c),
(398,-177,l),
(421,-184,o),
(448,-188,o),
(472,-188,cs)
);
},
{
closed = 1;
nodes = (
(248,139,o),
(216,212,o),
(216,358,cs),
(216,504,o),
(248,578,o),
(311,578,cs),
(374,578,o),
(405,508,o),
(405,358,cs),
(405,208,o),
(375,139,o),
(311,139,cs)
);
}
);
userData = {
com.schriftgestaltung.Glyphs.glyph.leftMetricsKey = "Don-oldgeorgian";
com.schriftgestaltung.Glyphs.glyph.rightMetricsKey = "=Gan-oldgeorgian+10";
};
width = 634;
}
);
note = uni10B3;
unicode = 4275;
}
{
glyphname = "Phar-oldgeorgian";
layers = (
{
layerId = m001;
shapes = (
{
closed = 1;
nodes = (
(391,0,l),
(391,186,l),
(570,191,o),
(692,276,o),
(692,465,cs),
(692,655,o),
(546,725,o),
(378,725,cs),
(202,725,o),
(64,639,o),
(64,459,cs),
(64,272,o),
(190,189,o),
(365,186,c),
(365,0,l)
);
},
{
closed = 1;
nodes = (
(196,216,o),
(91,289,o),
(91,459,cs),
(91,623,o),
(214,695,o),
(365,700,c),
(365,211,l)
);
},
{
closed = 1;
nodes = (
(391,700,l),
(547,695,o),
(665,630,o),
(665,465,cs),
(665,292,o),
(558,216,o),
(391,211,c)
);
}
);
userData = {
com.schriftgestaltung.Glyphs.glyph.leftMetricsKey = "Don-oldgeorgian";
com.schriftgestaltung.Glyphs.glyph.rightMetricsKey = "Don-oldgeorgian";
};
width = 756;
},
{
layerId = m002;
shapes = (
{
closed = 1;
nodes = (
(456,0,l),
(456,178,l),
(638,178,o),
(762,274,o),
(762,448,cs),
(762,630,o),
(642,724,o),
(414,724,cs),
(187,724,o),
(61,626,o),
(61,448,cs),
(61,278,o),
(182,178,o),
(367,178,c),
(367,0,l)
);
},
{
closed = 1;
nodes = (
(229,252,o),
(152,323,o),
(152,449,cs),
(152,572,o),
(230,645,o),
(367,648,c),
(367,252,l)
);
},
{
closed = 1;
nodes = (
(456,648,l),
(594,645,o),
(671,574,o),
(671,449,cs),
(671,323,o),
(593,252,o),
(456,252,c)
);
}
);
userData = {
com.schriftgestaltung.Glyphs.glyph.leftMetricsKey = "Don-oldgeorgian";
com.schriftgestaltung.Glyphs.glyph.rightMetricsKey = "Don-oldgeorgian";
};
width = 823;
},
{
layerId = m003;
shapes = (
{
closed = 1;
nodes = (
(511,0,l),
(511,162,l),
(694,162,o),
(828,268,o),
(828,442,cs),
(828,625,o),
(692,724,o),
(442,724,cs),
(224,724,o),
(58,641,o),
(58,442,cs),
(58,271,o),
(189,162,o),
(375,162,c),
(375,0,l)
);
},
{
closed = 1;
nodes = (
(266,279,o),
(200,344,o),
(200,443,cs),
(200,540,o),
(268,600,o),
(375,600,c),
(375,279,l)
);
},
{
closed = 1;
nodes = (
(511,600,l),
(618,600,o),
(686,539,o),
(686,443,cs),
(686,345,o),
(620,279,o),
(511,279,c)
);
}
);
userData = {
com.schriftgestaltung.Glyphs.glyph.leftMetricsKey = "Don-oldgeorgian";
com.schriftgestaltung.Glyphs.glyph.rightMetricsKey = "Don-oldgeorgian";
};
width = 886;
},
{
layerId = m004;
shapes = (
{
closed = 1;
nodes = (
(554,0,l),
(554,152,l),
(739,157,o),
(871,264,o),
(871,438,cs),
(871,620,o),
(729,724,o),
(458,724,cs),
(237,724,o),
(51,649,o),
(51,438,cs),
(51,266,o),
(181,157,o),
(368,152,c),
(368,0,l)
);
},
{
closed = 1;
nodes = (
(290,304,o),
(239,357,o),
(239,439,cs),
(239,519,o),
(290,564,o),
(368,569,c),
(368,299,l)
);
},
{
closed = 1;
nodes = (
(554,569,l),
(632,564,o),
(683,516,o),
(683,439,cs),
(683,358,o),
(632,304,o),
(554,299,c)
);
}
);
userData = {
com.schriftgestaltung.Glyphs.glyph.leftMetricsKey = "Don-oldgeorgian";
com.schriftgestaltung.Glyphs.glyph.rightMetricsKey = "Don-oldgeorgian";
};
width = 923;
},
{
layerId = m005;
shapes = (
{
closed = 1;
nodes = (
(278,0,l),
(278,187,l),
(395,194,o),
(475,276,o),
(475,467,cs),
(475,657,o),
(384,724,o),
(265,724,cs),
(143,724,o),
(54,639,o),
(54,460,cs),
(54,271,o),
(136,192,o),
(252,187,c),
(252,0,l)
);
},
{
closed = 1;
nodes = (
(149,218,o),
(81,285,o),
(81,460,cs),
(81,628,o),
(156,693,o),
(252,699,c),
(252,212,l)
);
},
{
closed = 1;
nodes = (
(278,699,l),
(374,693,o),
(448,635,o),
(448,467,cs),
(448,289,o),
(381,219,o),
(278,212,c)
);
}
);
userData = {
com.schriftgestaltung.Glyphs.glyph.leftMetricsKey = "Don-oldgeorgian";
com.schriftgestaltung.Glyphs.glyph.rightMetricsKey = "Don-oldgeorgian";
};
width = 529;
},
{
layerId = m006;
shapes = (
{
closed = 1;
nodes = (
(349,0,l),
(349,176,l),
(480,183,o),
(571,272,o),
(571,456,cs),
(571,645,o),
(463,724,o),
(311,724,cs),
(158,724,o),
(48,634,o),
(48,452,cs),
(48,269,o),
(140,182,o),
(271,176,c),
(271,0,l)
);
},
{
closed = 1;
nodes = (
(188,252,o),
(131,310,o),
(131,452,cs),
(131,591,o),
(192,648,o),
(271,654,c),
(271,246,l)
);
},
{
closed = 1;
nodes = (
(349,654,l),
(427,648,o),
(488,594,o),
(488,456,cs),
(488,312,o),
(432,253,o),
(349,246,c)
);
}
);
userData = {
com.schriftgestaltung.Glyphs.glyph.leftMetricsKey = "Don-oldgeorgian";
com.schriftgestaltung.Glyphs.glyph.rightMetricsKey = "Don-oldgeorgian";
};
width = 619;
},
{
layerId = m007;
shapes = (
{
closed = 1;
nodes = (
(417,0,l),
(417,166,l),
(562,173,o),
(663,269,o),
(663,446,cs),
(663,635,o),
(539,724,o),
(355,724,cs),
(172,724,o),
(43,631,o),
(43,444,cs),
(43,268,o),
(144,172,o),
(289,166,c),
(289,0,l)
);
},
{
closed = 1;
nodes = (
(225,284,o),
(179,333,o),
(179,445,cs),
(179,556,o),
(227,606,o),
(289,612,c),
(289,278,l)
);
},
{
closed = 1;
nodes = (
(417,612,l),
(479,606,o),
(527,556,o),
(527,446,cs),
(527,335,o),
(480,285,o),
(417,278,c)
);
}
);
userData = {
com.schriftgestaltung.Glyphs.glyph.leftMetricsKey = "Don-oldgeorgian";
com.schriftgestaltung.Glyphs.glyph.rightMetricsKey = "Don-oldgeorgian";
};
width = 705;
},
{
layerId = m008;
shapes = (
{
closed = 1;
nodes = (
(460,0,l),
(460,159,l),
(613,166,o),
(721,267,o),
(721,439,cs),
(721,628,o),
(587,724,o),
(382,724,cs),
(181,724,o),
(39,628,o),
(39,439,cs),
(39,267,o),
(146,166,o),
(300,159,c),
(300,0,l)
);
},
{
closed = 1;
nodes = (
(248,305,o),
(209,348,o),
(209,440,cs),
(209,533,o),
(248,578,o),
(300,585,c),
(300,298,l)
);
},
{
closed = 1;
nodes = (
(460,585,l),
(511,578,o),
(551,531,o),
(551,440,cs),
(551,349,o),
(511,305,o),
(460,298,c)
);
}
);
userData = {
com.schriftgestaltung.Glyphs.glyph.leftMetricsKey = "Don-oldgeorgian";
com.schriftgestaltung.Glyphs.glyph.rightMetricsKey = "Don-oldgeorgian";
};
width = 760;
}
);
note = uni10B4;
unicode = 4276;
}
{
glyphname = "Khar-oldgeorgian";
layers = (
{
layerId = m001;
shapes = (
{
closed = 1;
nodes = (
(303,0,l),
(303,428,l),
(526,428,l),
(526,453,l),
(303,453,l),
(303,714,l),
(277,714,l),
(277,453,l),
(54,453,l),
(54,428,l),
(277,428,l),
(277,0,l)
);
}
);
userData = {
com.schriftgestaltung.Glyphs.glyph.leftMetricsKey = "=Don-oldgeorgian-10";
com.schriftgestaltung.Glyphs.glyph.rightMetricsKey = "Don-oldgeorgian";
};
width = 590;
},
{
layerId = m002;
shapes = (
{
closed = 1;
nodes = (
(348,0,l),
(348,399,l),
(555,399,l),
(555,477,l),
(348,477,l),
(348,714,l),
(258,714,l),
(258,477,l),
(51,477,l),
(51,399,l),
(258,399,l),
(258,0,l)
);
}
);
userData = {
com.schriftgestaltung.Glyphs.glyph.leftMetricsKey = "=Don-oldgeorgian-10";
com.schriftgestaltung.Glyphs.glyph.rightMetricsKey = "Don-oldgeorgian";
};
width = 616;
},
{
layerId = m003;
shapes = (
{
closed = 1;
nodes = (
(406,0,l),
(406,353,l),
(614,353,l),
(614,478,l),
(406,478,l),
(406,714,l),
(256,714,l),
(256,478,l),
(48,478,l),
(48,353,l),
(256,353,l),
(256,0,l)
);
}
);
userData = {
com.schriftgestaltung.Glyphs.glyph.leftMetricsKey = "=Don-oldgeorgian-10";
com.schriftgestaltung.Glyphs.glyph.rightMetricsKey = "Don-oldgeorgian";
};
width = 672;
},
{
layerId = m004;
shapes = (
{
closed = 1;
nodes = (
(442,0,l),
(442,322,l),
(650,322,l),
(650,479,l),
(442,479,l),
(442,714,l),
(249,714,l),
(249,479,l),
(41,479,l),
(41,322,l),
(249,322,l),
(249,0,l)
);
}
);
userData = {
com.schriftgestaltung.Glyphs.glyph.leftMetricsKey = "=Don-oldgeorgian-10";
com.schriftgestaltung.Glyphs.glyph.rightMetricsKey = "Don-oldgeorgian";
};
width = 702;
},
{
layerId = m005;
shapes = (
{
closed = 1;
nodes = (
(220,0,l),
(220,425,l),
(370,425,l),
(370,450,l),
(220,450,l),
(220,714,l),
(194,714,l),
(194,450,l),
(44,450,l),
(44,425,l),
(194,425,l),
(194,0,l)
);
}
);
userData = {
com.schriftgestaltung.Glyphs.glyph.leftMetricsKey = "=Don-oldgeorgian-10";
com.schriftgestaltung.Glyphs.glyph.rightMetricsKey = "Don-oldgeorgian";
};
width = 424;
},
{
layerId = m006;
shapes = (
{
closed = 1;
nodes = (
(270,0,l),
(270,392,l),
(420,392,l),
(420,462,l),
(270,462,l),
(270,714,l),
(188,714,l),
(188,462,l),
(38,462,l),
(38,392,l),
(188,392,l),
(188,0,l)
);
}
);
userData = {
com.schriftgestaltung.Glyphs.glyph.leftMetricsKey = "=Don-oldgeorgian-10";
com.schriftgestaltung.Glyphs.glyph.rightMetricsKey = "Don-oldgeorgian";
};
width = 468;
},
{
layerId = m007;
shapes = (
{
closed = 1;
nodes = (
(320,0,l),
(320,360,l),
(470,360,l),
(470,473,l),
(320,473,l),
(320,714,l),
(183,714,l),
(183,473,l),
(33,473,l),
(33,360,l),
(183,360,l),
(183,0,l)
);
}
);
userData = {
com.schriftgestaltung.Glyphs.glyph.leftMetricsKey = "=Don-oldgeorgian-10";
com.schriftgestaltung.Glyphs.glyph.rightMetricsKey = "Don-oldgeorgian";
};
width = 512;
},
{
layerId = m008;
shapes = (
{
closed = 1;
nodes = (
(349,0,l),
(349,341,l),
(500,341,l),
(500,480,l),
(349,480,l),
(349,714,l),
(179,714,l),
(179,480,l),
(29,480,l),
(29,341,l),
(179,341,l),
(179,0,l)
);
}
);
userData = {
com.schriftgestaltung.Glyphs.glyph.leftMetricsKey = "=Don-oldgeorgian-10";
com.schriftgestaltung.Glyphs.glyph.rightMetricsKey = "Don-oldgeorgian";
};
width = 539;
}
);
note = uni10B5;
unicode = 4277;
}
{
glyphname = "Ghan-oldgeorgian";
kernLeft = "San-oldgeorgian";
kernRight = "En-oldgeorgian";
layers = (
{
layerId = m001;
shapes = (
{
closed = 1;
nodes = (
(124,0,l),
(124,462,ls),
(124,623,o),
(218,699,o),
(360,699,cs),
(509,699,o),
(595,620,o),
(595,459,cs),
(595,0,l),
(621,0,l),
(621,460,ls),
(621,633,o),
(526,724,o),
(361,724,cs),
(206,724,o),
(98,640,o),
(98,462,cs),
(98,0,l)
);
}
);
userData = {
com.schriftgestaltung.Glyphs.glyph.leftMetricsKey = "=Nar-oldgeorgian-5";
com.schriftgestaltung.Glyphs.glyph.rightMetricsKey = "=En-oldgeorgian-5";
};
width = 719;
},
{
layerId = m002;
shapes = (
{
closed = 1;
nodes = (
(182,0,l),
(182,462,ls),
(182,581,o),
(248,646,o),
(366,646,cs),
(489,646,o),
(553,582,o),
(553,463,cs),
(553,0,l),
(643,0,l),
(643,460,ls),
(643,624,o),
(544,724,o),
(371,724,cs),
(197,724,o),
(93,625,o),
(93,462,cs),
(93,0,l)
);
}
);
userData = {
com.schriftgestaltung.Glyphs.glyph.leftMetricsKey = "=Nar-oldgeorgian-5";
com.schriftgestaltung.Glyphs.glyph.rightMetricsKey = "=En-oldgeorgian-5";
};
width = 736;
},
{
layerId = m003;
shapes = (
{
closed = 1;
nodes = (
(236,0,l),
(236,436,ls),
(236,547,o),
(278,597,o),
(377,597,cs),
(479,597,o),
(520,548,o),
(520,437,cs),
(520,0,l),
(671,0,l),
(671,460,ls),
(671,624,o),
(564,724,o),
(381,724,cs),
(205,724,o),
(85,631,o),
(85,462,cs),
(85,0,l)
);
}
);
userData = {
com.schriftgestaltung.Glyphs.glyph.leftMetricsKey = "=Nar-oldgeorgian-5";
com.schriftgestaltung.Glyphs.glyph.rightMetricsKey = "=En-oldgeorgian-5";
};
width = 756;
},
{
layerId = m004;
shapes = (
{
closed = 1;
nodes = (
(265,0,l),
(265,418,ls),
(265,520,o),
(298,563,o),
(377,563,cs),
(451,563,o),
(489,520,o),
(489,419,cs),
(489,0,l),
(683,0,l),
(683,434,ls),
(683,619,o),
(577,724,o),
(380,724,cs),
(174,724,o),
(72,610,o),
(72,430,cs),
(72,0,l)
);
}
);
userData = {
com.schriftgestaltung.Glyphs.glyph.leftMetricsKey = "=Nar-oldgeorgian-5";
com.schriftgestaltung.Glyphs.glyph.rightMetricsKey = "=En-oldgeorgian-5";
};
width = 755;
},
{
layerId = m005;
shapes = (
{
closed = 1;
nodes = (
(92,0,l),
(92,493,ls),
(92,651,o),
(152,699,o),
(237,699,cs),
(328,699,o),
(382,643,o),
(382,493,cs),
(382,0,l),
(408,0,l),
(408,497,ls),
(408,655,o),
(347,724,o),
(237,724,cs),
(142,724,o),
(66,672,o),
(66,497,cs),
(66,0,l)
);
}
);
userData = {
com.schriftgestaltung.Glyphs.glyph.leftMetricsKey = "=Nar-oldgeorgian-5";
com.schriftgestaltung.Glyphs.glyph.rightMetricsKey = "=En-oldgeorgian-5";
};
width = 481;
},
{
layerId = m006;
shapes = (
{
closed = 1;
nodes = (
(143,0,l),
(143,483,ls),
(143,610,o),
(188,651,o),
(259,651,cs),
(332,651,o),
(373,605,o),
(373,483,cs),
(373,0,l),
(456,0,l),
(456,489,ls),
(456,650,o),
(386,724,o),
(259,724,cs),
(141,724,o),
(61,658,o),
(61,487,cs),
(61,0,l)
);
}
);
userData = {
com.schriftgestaltung.Glyphs.glyph.leftMetricsKey = "=Nar-oldgeorgian-5";
com.schriftgestaltung.Glyphs.glyph.rightMetricsKey = "=En-oldgeorgian-5";
};
width = 523;
},
{
layerId = m007;
shapes = (
{
closed = 1;
nodes = (
(193,0,l),
(193,473,ls),
(193,572,o),
(223,604,o),
(280,604,cs),
(336,604,o),
(366,569,o),
(366,474,cs),
(366,0,l),
(502,0,l),
(502,481,ls),
(502,645,o),
(423,724,o),
(281,724,cs),
(140,724,o),
(57,645,o),
(57,478,cs),
(57,0,l)
);
}
);
userData = {
com.schriftgestaltung.Glyphs.glyph.leftMetricsKey = "=Nar-oldgeorgian-5";
com.schriftgestaltung.Glyphs.glyph.rightMetricsKey = "=En-oldgeorgian-5";
};
width = 561;
},
{
layerId = m008;
shapes = (
{
closed = 1;
nodes = (
(224,0,l),
(224,467,ls),
(224,547,o),
(245,575,o),
(293,575,cs),
(338,575,o),
(361,546,o),
(361,468,cs),
(361,0,l),
(531,0,l),
(531,476,ls),
(531,642,o),
(447,724,o),
(295,724,cs),
(139,724,o),
(54,637,o),
(54,472,cs),
(54,0,l)
);
}
);
userData = {
com.schriftgestaltung.Glyphs.glyph.leftMetricsKey = "=Nar-oldgeorgian-5";
com.schriftgestaltung.Glyphs.glyph.rightMetricsKey = "=En-oldgeorgian-5";
};
width = 585;
}
);
note = uni10B6;
unicode = 4278;
}
{
glyphname = "Qar-oldgeorgian";
kernLeft = "Ban-oldgeorgian";
kernRight = "En-oldgeorgian";
layers = (
{
layerId = m001;
shapes = (
{
closed = 1;
nodes = (
(517,0,l),
(517,714,l),
(491,714,l),
(491,486,ls),
(491,309,o),
(396,244,o),
(281,244,cs),
(158,244,o),
(86,333,o),
(86,457,cs),
(86,572,o),
(116,646,o),
(165,714,c),
(133,714,l),
(83,635,o),
(59,566,o),
(59,457,cs),
(59,309,o),
(150,218,o),
(281,218,cs),
(379,218,o),
(459,266,o),
(491,353,c),
(493,353,l),
(492,329,o),
(491,274,o),
(491,233,cs),
(491,0,l)
);
}
);
userData = {
com.schriftgestaltung.Glyphs.glyph.leftMetricsKey = "=Don-oldgeorgian-5";
com.schriftgestaltung.Glyphs.glyph.rightMetricsKey = "En-oldgeorgian";
};
width = 620;
},
{
layerId = m002;
shapes = (
{
closed = 1;
nodes = (
(581,0,l),
(581,714,l),
(491,714,l),
(491,507,ls),
(491,356,o),
(431,293,o),
(300,293,cs),
(198,293,o),
(151,358,o),
(151,469,cs),
(151,561,o),
(187,659,o),
(235,714,c),
(130,714,l),
(81,635,o),
(56,554,o),
(56,470,cs),
(56,308,o),
(140,215,o),
(286,215,cs),
(371,215,o),
(451,253,o),
(490,312,c),
(495,312,l),
(492,274,o),
(490,250,o),
(490,242,cs),
(490,0,l)
);
}
);
userData = {
com.schriftgestaltung.Glyphs.glyph.leftMetricsKey = "=Don-oldgeorgian-5";
com.schriftgestaltung.Glyphs.glyph.rightMetricsKey = "En-oldgeorgian";
};
width = 679;
},
{
layerId = m004;
shapes = (
{
closed = 1;
nodes = (
(673,0,l),
(673,714,l),
(479,714,l),
(479,528,ls),
(479,415,o),
(431,360,o),
(354,360,cs),
(285,360,o),
(240,396,o),
(240,473,cs),
(240,555,o),
(264,640,o),
(307,714,c),
(104,714,l),
(66,640,o),
(46,556,o),
(46,461,cs),
(46,300,o),
(145,203,o),
(295,203,cs),
(381,203,o),
(445,238,o),
(483,290,c),
(488,290,l),
(481,231,o),
(479,179,o),
(479,133,cs),
(479,0,l)
);
}
);
userData = {
com.schriftgestaltung.Glyphs.glyph.leftMetricsKey = "=Don-oldgeorgian-5";
com.schriftgestaltung.Glyphs.glyph.rightMetricsKey = "En-oldgeorgian";
};
width = 750;
},
{
layerId = m005;
shapes = (
{
closed = 1;
nodes = (
(358,0,l),
(358,714,l),
(332,714,l),
(332,484,ls),
(332,300,o),
(274,243,o),
(196,243,cs),
(113,243,o),
(76,327,o),
(76,450,cs),
(76,566,o),
(97,644,o),
(129,714,c),
(100,714,l),
(66,635,o),
(49,560,o),
(49,450,cs),
(49,304,o),
(102,218,o),
(196,218,cs),
(261,218,o),
(310,255,o),
(332,333,c),
(334,333,l),
(333,311,o),
(332,263,o),
(332,218,cs),
(332,0,l)
);
}
);
userData = {
com.schriftgestaltung.Glyphs.glyph.leftMetricsKey = "=Don-oldgeorgian-5";
com.schriftgestaltung.Glyphs.glyph.rightMetricsKey = "En-oldgeorgian";
};
width = 436;
},
{
layerId = m006;
shapes = (
{
closed = 1;
nodes = (
(432,0,l),
(432,714,l),
(349,714,l),
(349,501,ls),
(349,341,o),
(301,283,o),
(232,283,cs),
(162,283,o),
(128,350,o),
(128,461,cs),
(128,566,o),
(147,644,o),
(177,714,c),
(91,714,l),
(60,638,o),
(43,561,o),
(43,460,cs),
(43,306,o),
(106,214,o),
(209,214,cs),
(278,214,o),
(324,250,o),
(350,322,c),
(354,322,l),
(351,288,o),
(349,241,o),
(349,198,cs),
(349,0,l)
);
}
);
userData = {
com.schriftgestaltung.Glyphs.glyph.leftMetricsKey = "=Don-oldgeorgian-5";
com.schriftgestaltung.Glyphs.glyph.rightMetricsKey = "En-oldgeorgian";
};
width = 504;
},
{
layerId = m008;
shapes = (
{
closed = 1;
nodes = (
(547,0,l),
(547,714,l),
(377,714,l),
(377,527,ls),
(377,405,o),
(343,345,o),
(289,345,cs),
(238,345,o),
(209,386,o),
(209,477,cs),
(209,567,o),
(225,643,o),
(253,714,c),
(78,714,l),
(52,643,o),
(34,563,o),
(34,475,cs),
(34,309,o),
(112,209,o),
(230,209,cs),
(304,209,o),
(347,243,o),
(379,305,c),
(385,305,l),
(380,251,o),
(377,206,o),
(377,167,cs),
(377,0,l)
);
}
);
userData = {
com.schriftgestaltung.Glyphs.glyph.leftMetricsKey = "=Don-oldgeorgian-5";
com.schriftgestaltung.Glyphs.glyph.rightMetricsKey = "En-oldgeorgian";
};
width = 606;
}
);
note = uni10B7;
unicode = 4279;
}
{
glyphname = "Shin-oldgeorgian";
kernLeft = "San-oldgeorgian";
kernRight = "En-oldgeorgian";
layers = (
{
layerId = m001;
shapes = (
{
closed = 1;
nodes = (
(457,-10,o),
(547,86,o),
(547,230,cs),
(547,714,l),
(521,714,l),
(521,584,ls),
(521,433,o),
(441,352,o),
(314,352,cs),
(193,352,o),
(124,423,o),
(124,565,cs),
(124,714,l),
(98,714,l),
(98,565,ls),
(98,408,o),
(176,326,o),
(314,326,cs),
(397,326,o),
(476,358,o),
(521,457,c),
(524,457,l),
(522,427,o),
(521,362,o),
(521,348,cs),
(521,230,ls),
(521,113,o),
(448,16,o),
(325,16,cs),
(216,16,o),
(134,86,o),
(134,187,cs),
(134,211,o),
(137,233,o),
(145,257,c),
(122,264,l),
(113,239,o),
(107,213,o),
(107,186,cs),
(107,72,o),
(200,-10,o),
(325,-10,cs)
);
}
);
userData = {
com.schriftgestaltung.Glyphs.glyph.leftMetricsKey = "=Nar-oldgeorgian-5";
com.schriftgestaltung.Glyphs.glyph.rightMetricsKey = "En-oldgeorgian";
};
width = 650;
},
{
layerId = m002;
shapes = (
{
closed = 1;
nodes = (
(504,-10,o),
(602,87,o),
(602,242,cs),
(602,714,l),
(512,714,l),
(512,594,ls),
(512,477,o),
(442,404,o),
(336,404,cs),
(237,404,o),
(183,464,o),
(183,584,cs),
(183,714,l),
(93,714,l),
(93,585,ls),
(93,421,o),
(180,326,o),
(319,326,cs),
(397,326,o),
(462,357,o),
(511,428,c),
(517,428,l),
(514,388,o),
(512,348,o),
(512,326,cs),
(512,242,ls),
(512,133,o),
(451,68,o),
(350,68,cs),
(254,68,o),
(200,119,o),
(200,199,cs),
(200,215,o),
(202,231,o),
(208,248,c),
(128,274,l),
(113,247,o),
(107,224,o),
(107,193,cs),
(107,77,o),
(207,-10,o),
(351,-10,cs)
);
}
);
userData = {
com.schriftgestaltung.Glyphs.glyph.leftMetricsKey = "=Nar-oldgeorgian-5";
com.schriftgestaltung.Glyphs.glyph.rightMetricsKey = "En-oldgeorgian";
};
width = 700;
},
{
layerId = m004;
shapes = (
{
closed = 1;
nodes = (
(554,-10,o),
(669,82,o),
(669,269,cs),
(669,714,l),
(475,714,l),
(475,648,ls),
(475,535,o),
(440,480,o),
(368,480,cs),
(309,480,o),
(266,519,o),
(266,600,cs),
(266,714,l),
(72,714,l),
(72,581,ls),
(72,422,o),
(158,323,o),
(311,323,cs),
(386,323,o),
(440,354,o),
(479,410,c),
(484,410,l),
(477,359,o),
(475,333,o),
(475,301,cs),
(475,263,ls),
(475,186,o),
(429,146,o),
(373,146,cs),
(316,146,o),
(275,173,o),
(275,220,cs),
(275,229,o),
(276,239,o),
(279,249,c),
(106,306,l),
(88,272,o),
(79,236,o),
(79,198,cs),
(79,69,o),
(212,-10,o),
(373,-10,cs)
);
}
);
userData = {
com.schriftgestaltung.Glyphs.glyph.leftMetricsKey = "=Nar-oldgeorgian-5";
com.schriftgestaltung.Glyphs.glyph.rightMetricsKey = "En-oldgeorgian";
};
width = 746;
},
{
layerId = m005;
shapes = (
{
closed = 1;
nodes = (
(336,-10,o),
(381,74,o),
(381,198,cs),
(381,714,l),
(355,714,l),
(355,583,ls),
(355,422,o),
(305,351,o),
(219,351,cs),
(131,351,o),
(92,413,o),
(92,542,cs),
(92,714,l),
(66,714,l),
(66,535,ls),
(66,376,o),
(126,326,o),
(217,326,cs),
(295,326,o),
(334,376,o),
(355,440,c),
(357,440,l),
(355,413,o),
(355,371,o),
(355,333,cs),
(355,198,ls),
(355,78,o),
(310,15,o),
(225,15,cs),
(156,15,o),
(100,65,o),
(100,149,cs),
(100,181,o),
(106,211,o),
(118,238,c),
(96,246,l),
(82,219,o),
(73,185,o),
(73,146,cs),
(73,49,o),
(139,-10,o),
(225,-10,cs)
);
}
);
userData = {
com.schriftgestaltung.Glyphs.glyph.leftMetricsKey = "=Nar-oldgeorgian-5";
com.schriftgestaltung.Glyphs.glyph.rightMetricsKey = "En-oldgeorgian";
};
width = 459;
},
{
layerId = m006;
shapes = (
{
closed = 1;
nodes = (
(388,-10,o),
(448,76,o),
(448,223,cs),
(448,714,l),
(366,714,l),
(366,596,ls),
(366,454,o),
(325,395,o),
(251,395,cs),
(176,395,o),
(144,448,o),
(144,572,cs),
(144,714,l),
(61,714,l),
(61,566,ls),
(61,396,o),
(120,327,o),
(224,327,cs),
(300,327,o),
(341,369,o),
(367,428,c),
(370,428,l),
(367,397,o),
(366,354,o),
(366,318,cs),
(366,224,ls),
(366,120,o),
(331,63,o),
(255,63,cs),
(185,63,o),
(152,115,o),
(152,173,cs),
(152,195,o),
(157,220,o),
(166,243,c),
(91,266,l),
(72,233,o),
(66,199,o),
(66,167,cs),
(66,72,o),
(138,-10,o),
(256,-10,cs)
);
}
);
userData = {
com.schriftgestaltung.Glyphs.glyph.leftMetricsKey = "=Nar-oldgeorgian-5";
com.schriftgestaltung.Glyphs.glyph.rightMetricsKey = "En-oldgeorgian";
};
width = 520;
},
{
layerId = m008;
shapes = (
{
closed = 1;
nodes = (
(471,-10,o),
(554,79,o),
(554,260,cs),
(554,714,l),
(384,714,l),
(384,616,ls),
(384,503,o),
(356,463,o),
(302,463,cs),
(248,463,o),
(225,502,o),
(225,588,cs),
(225,714,l),
(54,714,l),
(54,576,ls),
(54,420,o),
(112,328,o),
(237,328,cs),
(308,328,o),
(354,359,o),
(386,409,c),
(390,409,l),
(386,373,o),
(384,328,o),
(384,295,cs),
(384,251,ls),
(384,182,o),
(365,136,o),
(312,136,cs),
(266,136,o),
(239,161,o),
(239,207,cs),
(239,218,o),
(241,231,o),
(245,243,c),
(87,285,l),
(73,251,o),
(67,218,o),
(67,189,cs),
(67,69,o),
(165,-10,o),
(311,-10,cs)
);
}
);
userData = {
com.schriftgestaltung.Glyphs.glyph.leftMetricsKey = "=Nar-oldgeorgian-5";
com.schriftgestaltung.Glyphs.glyph.rightMetricsKey = "En-oldgeorgian";
};
width = 613;
}
);
note = uni10B8;
unicode = 4280;
}
{
glyphname = "Chin-oldgeorgian";
kernLeft = "Tar-oldgeorgian";
kernRight = "Chin-oldgeorgian";
layers = (
{
layerId = m001;
shapes = (
{
closed = 1;
nodes = (
(129,0,l),
(129,406,l),
(516,406,l),
(516,0,l),
(542,0,l),
(542,432,l),
(129,432,l),
(129,714,l),
(103,714,l),
(103,0,l)
);
}
);
userData = {
com.schriftgestaltung.Glyphs.glyph.rightMetricsKey = "=En-oldgeorgian-10";
};
width = 635;
},
{
layerId = m002;
shapes = (
{
closed = 1;
nodes = (
(188,0,l),
(188,370,l),
(507,370,l),
(507,0,l),
(597,0,l),
(597,448,l),
(188,448,l),
(188,714,l),
(98,714,l),
(98,0,l)
);
}
);
userData = {
com.schriftgestaltung.Glyphs.glyph.rightMetricsKey = "=En-oldgeorgian-10";
};
width = 685;
},
{
layerId = m003;
shapes = (
{
closed = 1;
nodes = (
(237,0,l),
(237,338,l),
(486,338,l),
(486,0,l),
(637,0,l),
(637,462,l),
(237,462,l),
(237,714,l),
(86,714,l),
(86,0,l)
);
}
);
userData = {
com.schriftgestaltung.Glyphs.glyph.rightMetricsKey = "=En-oldgeorgian-10";
};
width = 717;
},
{
layerId = m004;
shapes = (
{
closed = 1;
nodes = (
(271,0,l),
(271,315,l),
(470,315,l),
(470,0,l),
(664,0,l),
(664,472,l),
(271,472,l),
(271,714,l),
(77,714,l),
(77,0,l)
);
}
);
userData = {
com.schriftgestaltung.Glyphs.glyph.rightMetricsKey = "=En-oldgeorgian-10";
};
width = 731;
},
{
layerId = m005;
shapes = (
{
closed = 1;
nodes = (
(104,0,l),
(104,406,l),
(362,406,l),
(362,0,l),
(388,0,l),
(388,431,l),
(104,431,l),
(104,714,l),
(78,714,l),
(78,0,l)
);
}
);
userData = {
com.schriftgestaltung.Glyphs.glyph.rightMetricsKey = "=En-oldgeorgian-10";
};
width = 456;
},
{
layerId = m006;
shapes = (
{
closed = 1;
nodes = (
(154,0,l),
(154,380,l),
(357,380,l),
(357,0,l),
(439,0,l),
(439,448,l),
(154,448,l),
(154,714,l),
(72,714,l),
(72,0,l)
);
}
);
userData = {
com.schriftgestaltung.Glyphs.glyph.rightMetricsKey = "=En-oldgeorgian-10";
};
width = 501;
},
{
layerId = m007;
shapes = (
{
closed = 1;
nodes = (
(201,0,l),
(201,353,l),
(355,353,l),
(355,0,l),
(492,0,l),
(492,463,l),
(201,463,l),
(201,714,l),
(64,714,l),
(64,0,l)
);
}
);
userData = {
com.schriftgestaltung.Glyphs.glyph.rightMetricsKey = "=En-oldgeorgian-10";
};
width = 546;
},
{
layerId = m008;
shapes = (
{
closed = 1;
nodes = (
(229,0,l),
(229,337,l),
(353,337,l),
(353,0,l),
(524,0,l),
(524,472,l),
(229,472,l),
(229,714,l),
(59,714,l),
(59,0,l)
);
}
);
userData = {
com.schriftgestaltung.Glyphs.glyph.rightMetricsKey = "=En-oldgeorgian-10";
};
width = 573;
}
);
note = uni10B9;
unicode = 4281;
}
{
glyphname = "Can-oldgeorgian";
kernLeft = "Tan-oldgeorgian";
layers = (
{
layerId = m001;
shapes = (
{
closed = 1;
nodes = (
(454,-10,o),
(526,21,o),
(587,56,c),
(587,0,l),
(613,0,l),
(613,295,l),
(587,295,l),
(587,85,l),
(526,46,o),
(443,15,o),
(361,15,cs),
(195,15,o),
(90,151,o),
(90,358,cs),
(90,565,o),
(204,699,o),
(376,699,cs),
(435,699,o),
(497,686,o),
(547,663,c),
(559,688,l),
(504,713,o),
(448,724,o),
(376,724,cs),
(184,724,o),
(63,572,o),
(63,358,cs),
(63,133,o),
(181,-10,o),
(360,-10,cs)
);
}
);
width = 694;
},
{
layerId = m002;
shapes = (
{
closed = 1;
nodes = (
(430,-10,o),
(493,5,o),
(549,35,c),
(549,0,l),
(639,0,l),
(639,295,l),
(549,295,l),
(549,114,l),
(492,84,o),
(434,69,o),
(375,69,cs),
(240,69,o),
(156,178,o),
(156,357,cs),
(156,535,o),
(249,645,o),
(403,645,cs),
(454,645,o),
(508,632,o),
(565,606,c),
(601,682,l),
(545,710,o),
(479,724,o),
(404,724,cs),
(191,724,o),
(61,581,o),
(61,358,cs),
(61,129,o),
(173,-10,o),
(361,-10,cs)
);
}
);
width = 704;
},
{
layerId = m004;
shapes = (
{
closed = 1;
nodes = (
(423,-8,o),
(464,2,o),
(491,18,c),
(491,0,l),
(672,0,l),
(672,307,l),
(491,307,l),
(491,167,l),
(470,156,o),
(436,149,o),
(406,149,cs),
(310,149,o),
(250,219,o),
(250,354,cs),
(250,482,o),
(308,566,o),
(427,566,cs),
(490,566,o),
(550,550,o),
(597,528,c),
(657,679,l),
(599,706,o),
(515,724,o),
(427,724,cs),
(191,724,o),
(51,592,o),
(51,356,cs),
(51,120,o),
(176,-8,o),
(381,-8,cs)
);
}
);
width = 740;
},
{
layerId = m005;
shapes = (
{
closed = 1;
nodes = (
(317,-10,o),
(357,17,o),
(391,50,c),
(391,0,l),
(417,0,l),
(417,295,l),
(391,295,l),
(391,82,l),
(353,42,o),
(311,15,o),
(253,15,cs),
(138,15,o),
(81,145,o),
(81,358,cs),
(81,568,o),
(147,699,o),
(263,699,cs),
(305,699,o),
(341,684,o),
(372,665,c),
(385,689,l),
(349,711,o),
(312,724,o),
(263,724,cs),
(122,724,o),
(54,571,o),
(54,358,cs),
(54,133,o),
(118,-10,o),
(253,-10,cs)
);
}
);
width = 473;
},
{
layerId = m006;
shapes = (
{
closed = 1;
nodes = (
(318,-10,o),
(355,10,o),
(385,38,c),
(385,0,l),
(466,0,l),
(466,300,l),
(385,300,l),
(385,109,l),
(358,82,o),
(324,63,o),
(277,63,cs),
(183,63,o),
(134,170,o),
(134,358,cs),
(134,541,o),
(192,652,o),
(297,652,cs),
(342,652,o),
(382,637,o),
(416,616,c),
(443,685,l),
(400,710,o),
(352,724,o),
(296,724,cs),
(134,724,o),
(48,578,o),
(48,358,cs),
(48,129,o),
(123,-10,o),
(263,-10,cs)
);
}
);
width = 520;
},
{
layerId = m008;
shapes = (
{
closed = 1;
nodes = (
(320,-9,o),
(352,0,o),
(377,20,c),
(377,0,l),
(544,0,l),
(544,307,l),
(377,307,l),
(377,152,l),
(365,144,o),
(345,137,o),
(316,137,cs),
(253,138,o),
(216,209,o),
(216,357,cs),
(216,499,o),
(263,578,o),
(350,578,cs),
(400,578,o),
(447,564,o),
(486,540,c),
(533,679,l),
(481,707,o),
(414,724,o),
(347,724,cs),
(152,724,o),
(39,589,o),
(39,357,cs),
(39,124,o),
(132,-9,o),
(278,-9,cs)
);
}
);
width = 593;
}
);
note = uni10BA;
unicode = 4282;
}
{
glyphname = "Jil-oldgeorgian";
layers = (
{
layerId = m001;
shapes = (
{
closed = 1;
nodes = (
(435,-10,o),
(513,87,o),
(513,242,cs),
(513,428,l),
(740,428,l),
(740,0,l),
(766,0,l),
(766,453,l),
(513,453,l),
(513,714,l),
(487,714,l),
(487,453,l),
(309,453,ls),
(149,453,o),
(64,363,o),
(64,226,cs),
(64,89,o),
(145,-10,o),
(290,-10,cs)
);
},
{
closed = 1;
nodes = (
(166,15,o),
(91,101,o),
(91,226,cs),
(91,351,o),
(169,428,o),
(309,428,cs),
(487,428,l),
(487,242,ls),
(487,102,o),
(414,15,o),
(290,15,cs)
);
}
);
userData = {
com.schriftgestaltung.Glyphs.glyph.leftMetricsKey = "Don-oldgeorgian";
com.schriftgestaltung.Glyphs.glyph.rightMetricsKey = "=En-oldgeorgian-10";
};
width = 859;
},
{
layerId = m002;
shapes = (
{
closed = 1;
nodes = (
(456,-10,o),
(543,79,o),
(543,248,cs),
(543,399,l),
(714,399,l),
(714,0,l),
(800,0,l),
(800,477,l),
(543,477,l),
(543,714,l),
(453,714,l),
(453,477,l),
(314,477,ls),
(153,477,o),
(61,383,o),
(61,233,cs),
(61,87,o),
(153,-10,o),
(305,-10,cs)
);
},
{
closed = 1;
nodes = (
(205,68,o),
(150,132,o),
(150,233,cs),
(150,343,o),
(205,399,o),
(317,399,cs),
(453,399,l),
(453,242,ls),
(453,123,o),
(402,68,o),
(300,68,cs)
);
}
);
userData = {
com.schriftgestaltung.Glyphs.glyph.leftMetricsKey = "Don-oldgeorgian";
com.schriftgestaltung.Glyphs.glyph.rightMetricsKey = "=En-oldgeorgian-10";
};
width = 888;
},
{
layerId = m004;
shapes = (
{
closed = 1;
nodes = (
(506,-10,o),
(615,86,o),
(615,243,cs),
(615,330,l),
(726,330,l),
(726,0,l),
(893,0,l),
(893,487,l),
(615,487,l),
(615,714,l),
(424,714,l),
(424,487,l),
(327,487,ls),
(155,487,o),
(51,392,o),
(51,241,cs),
(51,86,o),
(166,-10,o),
(335,-10,cs)
);
},
{
closed = 1;
nodes = (
(286,147,o),
(250,182,o),
(250,243,cs),
(250,295,o),
(286,330,o),
(337,330,cs),
(424,330,l),
(424,242,ls),
(424,182,o),
(390,147,o),
(337,147,cs)
);
}
);
userData = {
com.schriftgestaltung.Glyphs.glyph.leftMetricsKey = "Don-oldgeorgian";
com.schriftgestaltung.Glyphs.glyph.rightMetricsKey = "=En-oldgeorgian-10";
};
width = 960;
},
{
layerId = m005;
shapes = (
{
closed = 1;
nodes = (
(298,-10,o),
(342,83,o),
(342,225,cs),
(342,425,l),
(508,425,l),
(508,0,l),
(534,0,l),
(534,450,l),
(342,450,l),
(342,714,l),
(316,714,l),
(316,450,l),
(225,450,ls),
(116,450,o),
(54,364,o),
(54,225,cs),
(54,83,o),
(102,-10,o),
(199,-10,cs)
);
},
{
closed = 1;
nodes = (
(122,15,o),
(81,93,o),
(81,225,cs),
(81,353,o),
(134,425,o),
(225,425,cs),
(316,425,l),
(316,226,ls),
(316,93,o),
(278,15,o),
(199,15,cs)
);
}
);
userData = {
com.schriftgestaltung.Glyphs.glyph.leftMetricsKey = "Don-oldgeorgian";
com.schriftgestaltung.Glyphs.glyph.rightMetricsKey = "=En-oldgeorgian-10";
};
width = 602;
},
{
layerId = m006;
shapes = (
{
closed = 1;
nodes = (
(355,-10,o),
(415,80,o),
(415,227,cs),
(415,392,l),
(546,392,l),
(546,0,l),
(620,0,l),
(620,462,l),
(415,462,l),
(415,714,l),
(333,714,l),
(333,462,l),
(251,462,ls),
(124,462,o),
(48,376,o),
(48,230,cs),
(48,85,o),
(116,-10,o),
(234,-10,cs)
);
},
{
closed = 1;
nodes = (
(168,63,o),
(133,127,o),
(133,231,cs),
(133,333,o),
(174,392,o),
(251,392,cs),
(332,392,l),
(332,227,ls),
(332,122,o),
(300,63,o),
(233,63,cs)
);
}
);
userData = {
com.schriftgestaltung.Glyphs.glyph.leftMetricsKey = "Don-oldgeorgian";
com.schriftgestaltung.Glyphs.glyph.rightMetricsKey = "=En-oldgeorgian-10";
};
width = 682;
},
{
layerId = m008;
shapes = (
{
closed = 1;
nodes = (
(413,-10,o),
(501,85,o),
(501,236,cs),
(501,341,l),
(585,341,l),
(585,0,l),
(734,0,l),
(734,480,l),
(501,480,l),
(501,714,l),
(331,714,l),
(331,480,l),
(279,480,ls),
(137,480,o),
(39,396,o),
(39,237,cs),
(39,87,o),
(137,-10,o),
(274,-10,cs)
);
},
{
closed = 1;
nodes = (
(237,139,o),
(216,179,o),
(216,240,cs),
(216,301,o),
(238,341,o),
(283,341,cs),
(331,341,l),
(331,243,ls),
(331,177,o),
(312,139,o),
(274,139,cs)
);
}
);
userData = {
com.schriftgestaltung.Glyphs.glyph.leftMetricsKey = "Don-oldgeorgian";
com.schriftgestaltung.Glyphs.glyph.rightMetricsKey = "=En-oldgeorgian-10";
};
width = 783;
}
);
unicode = 4283;
}
{
glyphname = "Cil-oldgeorgian";
kernLeft = "Tar-oldgeorgian";
kernRight = "Cil-oldgeorgian";
layers = (
{
layerId = m001;
shapes = (
{
closed = 1;
nodes = (
(129,0,l),
(129,174,l),
(313,174,l),
(313,50,l),
(339,50,l),
(339,199,l),
(129,199,l),
(129,305,l),
(256,305,ls),
(414,305,o),
(516,364,o),
(516,519,cs),
(516,658,o),
(429,714,o),
(270,714,cs),
(103,714,l),
(103,0,l)
);
},
{
closed = 1;
nodes = (
(129,689,l),
(266,689,ls),
(418,689,o),
(489,639,o),
(489,518,cs),
(489,372,o),
(394,330,o),
(254,330,cs),
(129,330,l)
);
}
);
width = 573;
},
{
layerId = m002;
shapes = (
{
closed = 1;
nodes = (
(188,0,l),
(188,131,l),
(339,131,l),
(339,50,l),
(425,50,l),
(425,208,l),
(188,208,l),
(188,292,l),
(270,292,ls),
(454,292,o),
(555,371,o),
(555,511,cs),
(555,646,o),
(466,714,o),
(287,714,cs),
(98,714,l),
(98,0,l)
);
},
{
closed = 1;
nodes = (
(188,637,l),
(279,637,ls),
(404,637,o),
(462,594,o),
(462,507,cs),
(462,411,o),
(401,369,o),
(260,369,cs),
(188,369,l)
);
}
);
width = 606;
},
{
layerId = m004;
shapes = (
{
closed = 1;
nodes = (
(270,0,l),
(270,91,l),
(361,91,l),
(361,34,l),
(528,34,l),
(528,248,l),
(270,248,l),
(270,284,l),
(324,284,ls),
(527,284,o),
(595,392,o),
(595,509,cs),
(595,640,o),
(505,714,o),
(324,714,cs),
(77,714,l),
(77,0,l)
);
},
{
closed = 1;
nodes = (
(270,559,l),
(320,559,ls),
(376,559,o),
(402,536,o),
(402,504,cs),
(402,457,o),
(358,440,o),
(308,440,cs),
(270,440,l)
);
}
);
width = 632;
},
{
layerId = m005;
shapes = (
{
closed = 1;
nodes = (
(104,0,l),
(104,173,l),
(230,173,l),
(230,60,l),
(256,60,l),
(256,198,l),
(104,198,l),
(104,306,l),
(172,306,ls),
(303,306,o),
(362,366,o),
(362,519,cs),
(362,663,o),
(300,714,o),
(172,714,cs),
(78,714,l),
(78,0,l)
);
},
{
closed = 1;
nodes = (
(104,689,l),
(171,689,ls),
(282,689,o),
(335,645,o),
(335,520,cs),
(335,385,o),
(285,331,o),
(178,331,cs),
(104,331,l)
);
}
);
width = 395;
},
{
layerId = m006;
shapes = (
{
closed = 1;
nodes = (
(153,0,l),
(153,148,l),
(262,148,l),
(262,48,l),
(336,48,l),
(336,218,l),
(153,218,l),
(153,297,l),
(208,297,ls),
(349,297,o),
(413,376,o),
(413,513,cs),
(413,651,o),
(346,714,o),
(211,714,cs),
(71,714,l),
(71,0,l)
);
},
{
closed = 1;
nodes = (
(153,643,l),
(204,643,ls),
(289,643,o),
(330,607,o),
(330,513,cs),
(330,413,o),
(288,369,o),
(204,369,cs),
(153,369,l)
);
}
);
width = 444;
},
{
layerId = m008;
shapes = (
{
closed = 1;
nodes = (
(229,0,l),
(229,109,l),
(311,109,l),
(311,44,l),
(460,44,l),
(460,248,l),
(229,248,l),
(229,284,l),
(262,284,ls),
(420,284,o),
(492,391,o),
(492,503,cs),
(492,632,o),
(418,714,o),
(271,714,cs),
(59,714,l),
(59,0,l)
);
},
{
closed = 1;
nodes = (
(229,570,l),
(255,570,ls),
(300,570,o),
(322,548,o),
(322,502,cs),
(322,456,o),
(291,428,o),
(244,428,cs),
(229,428,l)
);
}
);
width = 520;
}
);
note = uni10BC;
unicode = 4284;
}
{
glyphname = "Char-oldgeorgian";
layers = (
{
layerId = m001;
shapes = (
{
closed = 1;
nodes = (
(427,-10,o),
(499,63,o),
(499,175,cs),
(499,289,o),
(434,332,o),
(296,383,cs),
(180,426,o),
(127,466,o),
(127,555,cs),
(127,644,o),
(191,699,o),
(296,699,cs),
(391,699,o),
(455,642,o),
(455,575,cs),
(455,565,o),
(454,555,o),
(452,547,c),
(479,547,l),
(481,555,o),
(482,567,o),
(482,576,cs),
(482,658,o),
(407,724,o),
(297,724,cs),
(179,724,o),
(100,660,o),
(100,555,cs),
(100,464,o),
(139,411,o),
(287,356,cs),
(414,309,o),
(472,277,o),
(472,174,cs),
(472,80,o),
(414,15,o),
(288,15,cs),
(157,15,o),
(84,84,o),
(84,175,cs),
(84,197,o),
(86,217,o),
(92,234,c),
(64,234,l),
(60,216,o),
(57,197,o),
(57,175,cs),
(57,63,o),
(147,-10,o),
(287,-10,cs)
);
}
);
width = 569;
},
{
layerId = m002;
shapes = (
{
closed = 1;
nodes = (
(433,-10,o),
(518,66,o),
(518,188,cs),
(518,302,o),
(449,350,o),
(323,397,cs),
(224,434,o),
(167,462,o),
(167,541,cs),
(167,606,o),
(217,645,o),
(295,645,cs),
(369,645,o),
(411,606,o),
(411,551,cs),
(411,543,o),
(410,535,o),
(409,528,c),
(499,528,l),
(500,535,o),
(501,544,o),
(501,552,c),
(501,656,o),
(428,724,o),
(297,724,cs),
(167,724,o),
(76,653,o),
(76,542,cs),
(76,440,o),
(128,379,o),
(260,330,cs),
(364,291,o),
(428,262,o),
(428,183,cs),
(428,111,o),
(383,68,o),
(283,68,cs),
(183,68,o),
(135,112,o),
(135,181,cs),
(135,201,o),
(137,218,o),
(142,234,c),
(52,234,l),
(48,217,o),
(45,199,o),
(45,179,cs),
(45,61,o),
(131,-10,o),
(282,-10,cs)
);
}
);
width = 576;
},
{
layerId = m004;
shapes = (
{
closed = 1;
nodes = (
(471,-10,o),
(561,67,o),
(561,207,cs),
(561,338,o),
(469,388,o),
(363,432,cs),
(294,461,o),
(238,477,o),
(238,519,cs),
(238,549,o),
(262,567,o),
(298,567,cs),
(334,567,o),
(361,549,o),
(361,515,cs),
(361,509,o),
(360,503,o),
(359,498,c),
(544,498,l),
(545,502,o),
(546,512,o),
(546,520,cs),
(546,657,o),
(438,724,o),
(296,724,cs),
(157,724,o),
(53,656,o),
(53,512,cs),
(53,381,o),
(166,330,o),
(261,287,cs),
(323,259,o),
(375,243,o),
(375,201,cs),
(375,164,o),
(346,146,o),
(300,146,cs),
(253,146,o),
(226,168,o),
(226,204,cs),
(226,214,o),
(228,227,o),
(231,234,c),
(47,234,l),
(43,222,o),
(40,202,o),
(40,185,cs),
(40,63,o),
(126,-10,o),
(295,-10,cs)
);
}
);
width = 606;
},
{
layerId = m005;
shapes = (
{
closed = 1;
nodes = (
(288,-10,o),
(342,55,o),
(342,165,cs),
(342,287,o),
(277,335,o),
(215,378,cs),
(153,421,o),
(100,455,o),
(100,555,cs),
(100,643,o),
(134,699,o),
(206,699,cs),
(274,699,o),
(308,645,o),
(308,575,cs),
(308,565,o),
(307,555,o),
(305,547,c),
(332,547,l),
(334,555,o),
(335,567,o),
(335,576,cs),
(335,658,o),
(290,724,o),
(207,724,cs),
(122,724,o),
(73,659,o),
(73,555,cs),
(73,441,o),
(137,399,o),
(199,356,cs),
(258,315,o),
(315,271,o),
(315,164,cs),
(315,72,o),
(271,15,o),
(201,15,cs),
(120,15,o),
(77,74,o),
(77,165,cs),
(77,188,o),
(79,212,o),
(85,234,c),
(57,234,l),
(53,216,o),
(50,188,o),
(50,165,cs),
(50,53,o),
(110,-10,o),
(200,-10,cs)
);
}
);
width = 396;
},
{
layerId = m006;
shapes = (
{
closed = 1;
nodes = (
(327,-10,o),
(389,58,o),
(389,174,cs),
(389,296,o),
(322,347,o),
(255,393,cs),
(190,438,o),
(143,467,o),
(143,546,cs),
(143,613,o),
(167,655,o),
(221,655,cs),
(272,655,o),
(297,614,o),
(297,555,cs),
(297,547,o),
(296,538,o),
(294,531,c),
(376,531,l),
(377,538,o),
(378,549,o),
(378,557,cs),
(378,657,o),
(320,724,o),
(222,724,cs),
(121,724,o),
(60,655,o),
(60,543,cs),
(60,427,o),
(131,382,o),
(199,333,cs),
(252,295,o),
(306,258,o),
(306,171,cs),
(306,101,o),
(271,59,o),
(218,59,cs),
(158,59,o),
(125,103,o),
(125,172,cs),
(125,196,o),
(127,216,o),
(131,234,c),
(50,234,l),
(47,217,o),
(44,193,o),
(44,170,cs),
(44,57,o),
(109,-10,o),
(218,-10,cs)
);
}
);
width = 435;
},
{
layerId = m008;
shapes = (
{
closed = 1;
nodes = (
(388,-10,o),
(462,63,o),
(462,189,cs),
(462,310,o),
(392,365,o),
(317,417,cs),
(248,465,o),
(210,485,o),
(210,533,cs),
(210,566,o),
(220,585,o),
(245,585,cs),
(269,585,o),
(280,566,o),
(280,525,cs),
(280,519,o),
(279,511,o),
(278,506,c),
(444,506,l),
(445,512,o),
(445,520,o),
(445,527,cs),
(445,656,o),
(368,724,o),
(245,724,cs),
(119,724,o),
(41,649,o),
(41,525,cs),
(41,406,o),
(123,356,o),
(199,298,cs),
(245,263,o),
(292,237,o),
(292,183,cs),
(292,146,o),
(272,129,o),
(246,129,cs),
(219,129,o),
(200,149,o),
(200,184,cs),
(200,209,o),
(202,223,o),
(204,234,c),
(40,234,l),
(37,219,o),
(35,201,o),
(35,179,cs),
(35,63,o),
(108,-10,o),
(246,-10,cs)
);
}
);
width = 497;
}
);
note = uni10BD;
unicode = 4285;
}
{
glyphname = "Xan-oldgeorgian";
kernLeft = "Tar-oldgeorgian";
kernRight = "En-oldgeorgian";
layers = (
{
layerId = m001;
shapes = (
{
closed = 1;
nodes = (
(103,0,l),
(523,0,l),
(523,25,l),
(129,25,l),
(129,302,l),
(542,302,l),
(542,714,l),
(516,714,l),
(516,328,l),
(129,328,l),
(129,714,l),
(103,714,l)
);
}
);
userData = {
com.schriftgestaltung.Glyphs.glyph.leftMetricsKey = "Nar-oldgeorgian";
com.schriftgestaltung.Glyphs.glyph.rightMetricsKey = "En-oldgeorgian";
};
width = 645;
},
{
layerId = m002;
shapes = (
{
closed = 1;
nodes = (
(98,0,l),
(577,0,l),
(577,78,l),
(188,78,l),
(188,286,l),
(597,286,l),
(597,714,l),
(507,714,l),
(507,364,l),
(188,364,l),
(188,714,l),
(98,714,l)
);
}
);
userData = {
com.schriftgestaltung.Glyphs.glyph.leftMetricsKey = "Nar-oldgeorgian";
com.schriftgestaltung.Glyphs.glyph.rightMetricsKey = "En-oldgeorgian";
};
width = 695;
},
{
layerId = m004;
shapes = (
{
closed = 1;
nodes = (
(77,0,l),
(657,0,l),
(657,156,l),
(271,156,l),
(271,262,l),
(664,262,l),
(664,714,l),
(470,714,l),
(470,419,l),
(271,419,l),
(271,714,l),
(77,714,l)
);
}
);
userData = {
com.schriftgestaltung.Glyphs.glyph.leftMetricsKey = "Nar-oldgeorgian";
com.schriftgestaltung.Glyphs.glyph.rightMetricsKey = "En-oldgeorgian";
};
width = 741;
},
{
layerId = m005;
shapes = (
{
closed = 1;
nodes = (
(71,0,l),
(365,0,l),
(365,25,l),
(97,25,l),
(97,303,l),
(381,303,l),
(381,714,l),
(355,714,l),
(355,328,l),
(97,328,l),
(97,714,l),
(71,714,l)
);
}
);
userData = {
com.schriftgestaltung.Glyphs.glyph.leftMetricsKey = "Nar-oldgeorgian";
com.schriftgestaltung.Glyphs.glyph.rightMetricsKey = "En-oldgeorgian";
};
width = 459;
},
{
layerId = m006;
shapes = (
{
closed = 1;
nodes = (
(66,0,l),
(423,0,l),
(423,73,l),
(148,73,l),
(148,286,l),
(433,286,l),
(433,714,l),
(351,714,l),
(351,354,l),
(148,354,l),
(148,714,l),
(66,714,l)
);
}
);
userData = {
com.schriftgestaltung.Glyphs.glyph.leftMetricsKey = "Nar-oldgeorgian";
com.schriftgestaltung.Glyphs.glyph.rightMetricsKey = "En-oldgeorgian";
};
width = 505;
},
{
layerId = m008;
shapes = (
{
closed = 1;
nodes = (
(59,0,l),
(502,0,l),
(502,147,l),
(229,147,l),
(229,262,l),
(524,262,l),
(524,714,l),
(353,714,l),
(353,397,l),
(229,397,l),
(229,714,l),
(59,714,l)
);
}
);
userData = {
com.schriftgestaltung.Glyphs.glyph.leftMetricsKey = "Nar-oldgeorgian";
com.schriftgestaltung.Glyphs.glyph.rightMetricsKey = "En-oldgeorgian";
};
width = 583;
}
);
note = uni10BE;
unicode = 4286;
}
{
glyphname = "Jhan-oldgeorgian";
layers = (
{
layerId = m001;
shapes = (
{
closed = 1;
nodes = (
(87,0,l),
(325,350,l),
(563,0,l),
(594,0,l),
(343,370,l),
(556,696,l),
(556,714,l),
(15,714,l),
(15,689,l),
(97,689,l),
(308,370,l),
(56,0,l)
);
},
{
closed = 1;
nodes = (
(127,689,l),
(520,689,l),
(326,390,l)
);
}
);
userData = {
com.schriftgestaltung.Glyphs.glyph.rightMetricsKey = "Gan-oldgeorgian";
};
width = 604;
},
{
layerId = m002;
shapes = (
{
closed = 1;
nodes = (
(131,0,l),
(336,307,l),
(541,0,l),
(641,0,l),
(389,371,l),
(577,645,l),
(577,714,l),
(15,714,l),
(15,636,l),
(111,636,l),
(286,369,l),
(36,0,l)
);
},
{
closed = 1;
nodes = (
(209,636,l),
(478,636,l),
(339,431,l)
);
}
);
userData = {
com.schriftgestaltung.Glyphs.glyph.rightMetricsKey = "Gan-oldgeorgian";
};
width = 651;
},
{
layerId = m003;
shapes = (
{
closed = 1;
nodes = (
(197,0,l),
(359,263,l),
(521,0,l),
(687,0,l),
(457,353,l),
(615,603,l),
(615,714,l),
(20,714,l),
(20,594,l),
(118,594,l),
(268,361,l),
(35,0,l)
);
},
{
closed = 1;
nodes = (
(280,594,l),
(451,594,l),
(367,450,l)
);
}
);
userData = {
com.schriftgestaltung.Glyphs.glyph.rightMetricsKey = "Gan-oldgeorgian";
};
width = 692;
},
{
layerId = m004;
shapes = (
{
closed = 1;
nodes = (
(224,0,l),
(362,228,l),
(500,0,l),
(716,0,l),
(481,355,l),
(654,595,l),
(654,714,l),
(20,714,l),
(20,558,l),
(120,558,l),
(243,370,l),
(6,0,l)
);
},
{
closed = 1;
nodes = (
(312,564,l),
(419,564,l),
(365,473,l)
);
}
);
userData = {
com.schriftgestaltung.Glyphs.glyph.rightMetricsKey = "Gan-oldgeorgian";
};
width = 716;
},
{
layerId = m005;
shapes = (
{
closed = 1;
nodes = (
(70,0,l),
(226,349,l),
(382,0,l),
(410,0,l),
(242,371,l),
(382,699,l),
(382,714,l),
(10,714,l),
(10,689,l),
(76,689,l),
(209,370,l),
(42,0,l)
);
},
{
closed = 1;
nodes = (
(104,689,l),
(351,689,l),
(226,391,l)
);
}
);
userData = {
com.schriftgestaltung.Glyphs.glyph.rightMetricsKey = "Gan-oldgeorgian";
};
width = 420;
},
{
layerId = m006;
shapes = (
{
closed = 1;
nodes = (
(121,0,l),
(254,301,l),
(387,0,l),
(476,0,l),
(306,367,l),
(436,660,l),
(436,714,l),
(14,714,l),
(14,641,l),
(84,641,l),
(202,367,l),
(30,0,l)
);
},
{
closed = 1;
nodes = (
(165,641,l),
(345,641,l),
(254,429,l)
);
}
);
userData = {
com.schriftgestaltung.Glyphs.glyph.rightMetricsKey = "Gan-oldgeorgian";
};
width = 486;
},
{
layerId = m007;
shapes = (
{
closed = 1;
nodes = (
(170,0,l),
(281,256,l),
(392,0,l),
(540,0,l),
(367,363,l),
(488,624,l),
(488,714,l),
(18,714,l),
(18,596,l),
(91,596,l),
(196,364,l),
(18,0,l)
);
},
{
closed = 1;
nodes = (
(220,600,l),
(345,600,l),
(282,455,l)
);
}
);
userData = {
com.schriftgestaltung.Glyphs.glyph.rightMetricsKey = "Gan-oldgeorgian";
};
width = 545;
},
{
layerId = m008;
shapes = (
{
closed = 1;
nodes = (
(201,0,l),
(298,227,l),
(395,0,l),
(580,0,l),
(397,360,l),
(520,600,l),
(520,714,l),
(20,714,l),
(20,567,l),
(95,567,l),
(200,362,l),
(16,0,l)
);
},
{
closed = 1;
nodes = (
(247,571,l),
(351,571,l),
(299,463,l)
);
}
);
userData = {
com.schriftgestaltung.Glyphs.glyph.rightMetricsKey = "Gan-oldgeorgian";
};
width = 580;
}
);
note = uni10BF;
unicode = 4287;
}
{
glyphname = "Hae-oldgeorgian";
kernLeft = "Gan-oldgeorgian";
kernRight = "Zen-oldgeorgian";
layers = (
{
layerId = m001;
shapes = (
{
closed = 1;
nodes = (
(788,-10,o),
(869,87,o),
(869,218,cs),
(869,271,o),
(854,326,o),
(821,377,c),
(800,367,l),
(829,319,o),
(843,267,o),
(843,219,cs),
(843,99,o),
(772,16,o),
(651,16,cs),
(525,16,o),
(456,98,o),
(456,250,cs),
(456,714,l),
(86,714,l),
(86,407,l),
(112,407,l),
(112,688,l),
(430,688,l),
(430,250,ls),
(430,93,o),
(498,-10,o),
(651,-10,cs)
);
}
);
userData = {
com.schriftgestaltung.Glyphs.glyph.leftMetricsKey = "En-oldgeorgian";
com.schriftgestaltung.Glyphs.glyph.rightMetricsKey = "=Don-oldgeorgian-5";
};
width = 928;
},
{
layerId = m002;
shapes = (
{
closed = 1;
nodes = (
(805,-10,o),
(897,95,o),
(897,232,cs),
(897,294,o),
(879,346,o),
(842,398,c),
(765,366,l),
(791,324,o),
(803,277,o),
(803,234,cs),
(803,145,o),
(752,68,o),
(656,68,cs),
(558,68,o),
(504,129,o),
(504,252,cs),
(504,714,l),
(76,714,l),
(76,390,l),
(166,390,l),
(166,636,l),
(414,636,l),
(414,252,ls),
(414,86,o),
(505,-10,o),
(655,-10,cs)
);
}
);
userData = {
com.schriftgestaltung.Glyphs.glyph.leftMetricsKey = "En-oldgeorgian";
com.schriftgestaltung.Glyphs.glyph.rightMetricsKey = "=Don-oldgeorgian-5";
};
width = 953;
},
{
layerId = m004;
shapes = (
{
closed = 1;
nodes = (
(872,-10,o),
(986,115,o),
(986,258,cs),
(986,323,o),
(963,391,o),
(912,454,c),
(749,385,l),
(772,349,o),
(785,312,o),
(785,268,cs),
(785,194,o),
(746,151,o),
(685,151,cs),
(619,151,o),
(582,194,o),
(582,293,cs),
(582,714,l),
(63,714,l),
(63,363,l),
(254,363,l),
(254,555,l),
(388,555,l),
(388,270,ls),
(388,104,o),
(489,-10,o),
(680,-10,cs)
);
}
);
userData = {
com.schriftgestaltung.Glyphs.glyph.leftMetricsKey = "En-oldgeorgian";
com.schriftgestaltung.Glyphs.glyph.rightMetricsKey = "=Don-oldgeorgian-5";
};
width = 1033;
},
{
layerId = m005;
shapes = (
{
closed = 1;
nodes = (
(552,-10,o),
(597,87,o),
(597,207,cs),
(597,281,o),
(576,335,o),
(553,370,c),
(533,361,l),
(555,325,o),
(570,270,o),
(570,208,cs),
(570,87,o),
(525,15,o),
(449,15,cs),
(369,15,o),
(330,88,o),
(330,220,cs),
(330,714,l),
(68,714,l),
(68,407,l),
(94,407,l),
(94,689,l),
(304,689,l),
(304,220,ls),
(304,86,o),
(343,-10,o),
(448,-10,cs)
);
}
);
userData = {
com.schriftgestaltung.Glyphs.glyph.leftMetricsKey = "En-oldgeorgian";
com.schriftgestaltung.Glyphs.glyph.rightMetricsKey = "=Don-oldgeorgian-5";
};
width = 646;
},
{
layerId = m006;
shapes = (
{
closed = 1;
nodes = (
(599,-10,o),
(664,84,o),
(664,213,cs),
(664,276,o),
(647,338,o),
(618,385,c),
(544,359,l),
(565,313,o),
(575,262,o),
(575,210,cs),
(575,126,o),
(543,63,o),
(478,63,cs),
(411,63,o),
(376,126,o),
(376,239,cs),
(376,714,l),
(60,714,l),
(60,396,l),
(142,396,l),
(142,641,l),
(294,641,l),
(294,234,ls),
(294,83,o),
(354,-10,o),
(476,-10,cs)
);
}
);
userData = {
com.schriftgestaltung.Glyphs.glyph.leftMetricsKey = "En-oldgeorgian";
com.schriftgestaltung.Glyphs.glyph.rightMetricsKey = "=Don-oldgeorgian-5";
};
width = 707;
},
{
layerId = m008;
shapes = (
{
closed = 1;
nodes = (
(716,-10,o),
(793,103,o),
(793,234,cs),
(793,303,o),
(774,366,o),
(735,420,c),
(588,370,l),
(606,337,o),
(616,288,o),
(616,250,cs),
(616,187,o),
(595,139,o),
(550,139,cs),
(501,139,o),
(482,185,o),
(482,273,cs),
(482,714,l),
(48,714,l),
(48,369,l),
(218,369,l),
(218,567,l),
(312,567,l),
(312,250,ls),
(312,69,o),
(407,-10,o),
(550,-10,cs)
);
}
);
userData = {
com.schriftgestaltung.Glyphs.glyph.leftMetricsKey = "En-oldgeorgian";
com.schriftgestaltung.Glyphs.glyph.rightMetricsKey = "=Don-oldgeorgian-5";
};
width = 827;
}
);
note = uni10C0;
unicode = 4288;
}
{
glyphname = "He-oldgeorgian";
kernLeft = "Tar-oldgeorgian";
layers = (
{
layerId = m001;
shapes = (
{
closed = 1;
nodes = (
(129,0,l),
(129,313,ls),
(129,416,o),
(196,513,o),
(310,513,cs),
(401,513,o),
(444,453,o),
(444,313,cs),
(444,283,l),
(592,283,l),
(592,308,l),
(470,308,l),
(470,465,o),
(428,538,o),
(311,538,cs),
(249,538,o),
(167,509,o),
(129,418,c),
(127,418,l),
(128,454,o),
(129,488,o),
(129,524,cs),
(129,714,l),
(103,714,l),
(103,0,l)
);
}
);
width = 612;
},
{
layerId = m002;
shapes = (
{
closed = 1;
nodes = (
(188,0,l),
(188,286,ls),
(188,407,o),
(241,468,o),
(346,468,cs),
(434,468,o),
(470,421,o),
(470,332,cs),
(470,252,l),
(674,252,l),
(674,330,l),
(560,330,l),
(560,469,o),
(489,546,o),
(358,546,cs),
(287,546,o),
(230,518,o),
(189,462,c),
(184,462,l),
(187,491,o),
(188,515,o),
(188,532,c),
(188,714,l),
(98,714,l),
(98,0,l)
);
}
);
width = 694;
},
{
layerId = m004;
shapes = (
{
closed = 1;
nodes = (
(271,0,l),
(271,243,ls),
(271,356,o),
(304,411,o),
(381,411,cs),
(451,411,o),
(481,362,o),
(481,281,cs),
(481,222,l),
(763,222,l),
(763,380,l),
(666,380,l),
(647,490,o),
(574,568,o),
(451,568,cs),
(366,568,o),
(306,537,o),
(267,481,c),
(262,481,l),
(269,540,o),
(271,592,o),
(271,638,cs),
(271,714,l),
(77,714,l),
(77,0,l)
);
}
);
width = 783;
},
{
layerId = m005;
shapes = (
{
closed = 1;
nodes = (
(104,0,l),
(104,311,ls),
(104,420,o),
(141,512,o),
(214,512,cs),
(280,512,o),
(305,456,o),
(305,311,cs),
(305,286,l),
(410,286,l),
(410,311,l),
(331,311,l),
(331,470,o),
(299,537,o),
(216,537,cs),
(164,537,o),
(123,503,o),
(102,433,c),
(101,433,l),
(103,465,o),
(104,490,o),
(104,524,cs),
(104,714,l),
(78,714,l),
(78,0,l)
);
}
);
width = 430;
},
{
layerId = m006;
shapes = (
{
closed = 1;
nodes = (
(153,0,l),
(153,296,ls),
(153,406,o),
(187,478,o),
(252,478,cs),
(314,478,o),
(338,429,o),
(338,307,cs),
(338,261,l),
(495,261,l),
(495,331,l),
(419,331,l),
(414,475,o),
(372,546,o),
(279,546,cs),
(218,546,o),
(175,513,o),
(151,451,c),
(149,451,l),
(152,485,o),
(153,517,o),
(153,551,cs),
(153,714,l),
(71,714,l),
(71,0,l)
);
}
);
width = 515;
},
{
layerId = m008;
shapes = (
{
closed = 1;
nodes = (
(229,0,l),
(229,272,ls),
(229,385,o),
(257,425,o),
(311,425,cs),
(365,425,o),
(388,386,o),
(388,300,cs),
(388,222,l),
(627,222,l),
(627,361,l),
(556,361,l),
(543,482,o),
(484,560,o),
(376,560,cs),
(302,560,o),
(256,529,o),
(227,479,c),
(223,479,l),
(227,515,o),
(229,560,o),
(229,593,cs),
(229,714,l),
(59,714,l),
(59,0,l)
);
}
);
width = 647;
}
);
note = uni10C1;
unicode = 4289;
}
{
glyphname = "Hie-oldgeorgian";
kernRight = "Don-oldgeorgian";
layers = (
{
layerId = m001;
shapes = (
{
closed = 1;
nodes = (
(409,-10,o),
(524,111,o),
(524,309,cs),
(524,508,o),
(401,625,o),
(215,625,cs),
(143,625,l),
(143,714,l),
(117,714,l),
(117,600,l),
(212,600,ls),
(381,600,o),
(497,497,o),
(497,309,cs),
(497,133,o),
(400,15,o),
(230,15,cs),
(162,15,o),
(117,26,o),
(63,41,c),
(63,15,l),
(111,0,o),
(153,-10,o),
(230,-10,cs)
);
}
);
width = 588;
},
{
layerId = m002;
shapes = (
{
closed = 1;
nodes = (
(425,-10,o),
(554,114,o),
(554,312,cs),
(554,517,o),
(437,630,o),
(226,630,cs),
(166,630,l),
(166,714,l),
(80,714,l),
(80,551,l),
(212,551,ls),
(370,551,o),
(459,467,o),
(459,312,cs),
(459,162,o),
(365,69,o),
(219,69,cs),
(162,69,o),
(105,78,o),
(42,97,c),
(42,19,l),
(99,-2,o),
(152,-10,o),
(226,-10,cs)
);
}
);
width = 615;
},
{
layerId = m003;
shapes = (
{
closed = 1;
nodes = (
(456,-10,o),
(609,106,o),
(609,315,cs),
(609,520,o),
(487,630,o),
(252,630,cs),
(209,630,l),
(209,714,l),
(71,714,l),
(71,504,l),
(238,504,ls),
(388,504,o),
(453,441,o),
(453,316,cs),
(453,191,o),
(375,116,o),
(236,116,cs),
(183,116,o),
(120,129,o),
(48,154,c),
(48,27,l),
(114,0,o),
(167,-10,o),
(238,-10,cs)
);
}
);
width = 663;
},
{
layerId = m004;
shapes = (
{
closed = 1;
nodes = (
(504,-10,o),
(646,104,o),
(646,320,cs),
(646,525,o),
(509,630,o),
(259,630,cs),
(248,630,l),
(248,714,l),
(65,714,l),
(65,474,l),
(245,474,ls),
(386,474,o),
(447,419,o),
(447,314,cs),
(447,205,o),
(374,148,o),
(240,148,cs),
(174,148,o),
(99,168,o),
(42,193,c),
(42,30,l),
(107,0,o),
(175,-10,o),
(253,-10,cs)
);
}
);
width = 698;
},
{
layerId = m005;
shapes = (
{
closed = 1;
nodes = (
(289,-10,o),
(363,121,o),
(363,308,cs),
(363,478,o),
(303,625,o),
(148,625,cs),
(113,625,l),
(113,714,l),
(87,714,l),
(87,600,l),
(148,600,ls),
(284,600,o),
(336,459,o),
(336,307,cs),
(336,144,o),
(274,15,o),
(154,15,cs),
(109,15,o),
(77,30,o),
(53,41,c),
(53,14,l),
(82,0,o),
(116,-10,o),
(154,-10,cs)
);
}
);
width = 417;
},
{
layerId = m006;
shapes = (
{
closed = 1;
nodes = (
(322,-10,o),
(408,115,o),
(408,312,cs),
(408,495,o),
(331,627,o),
(181,627,cs),
(153,627,l),
(153,714,l),
(74,714,l),
(74,557,l),
(153,557,ls),
(275,557,o),
(322,449,o),
(322,310,cs),
(322,164,o),
(267,63,o),
(166,63,cs),
(118,63,o),
(81,79,o),
(51,96,c),
(51,19,l),
(89,1,o),
(125,-10,o),
(176,-10,cs)
);
}
);
width = 456;
},
{
layerId = m007;
shapes = (
{
closed = 1;
nodes = (
(354,-10,o),
(451,109,o),
(451,315,cs),
(451,512,o),
(359,629,o),
(213,629,cs),
(192,629,l),
(192,714,l),
(63,714,l),
(63,517,l),
(159,517,ls),
(267,517,o),
(310,440,o),
(310,313,cs),
(310,183,o),
(261,108,o),
(178,108,cs),
(128,108,o),
(85,126,o),
(50,148,c),
(50,25,l),
(96,2,o),
(135,-10,o),
(197,-10,cs)
);
}
);
width = 494;
},
{
layerId = m008;
shapes = (
{
closed = 1;
nodes = (
(374,-10,o),
(479,105,o),
(479,317,cs),
(479,522,o),
(376,630,o),
(233,630,cs),
(216,630,l),
(216,714,l),
(56,714,l),
(56,491,l),
(163,491,ls),
(262,491,o),
(302,434,o),
(302,315,cs),
(302,195,o),
(257,137,o),
(185,137,cs),
(134,137,o),
(88,156,o),
(49,182,c),
(49,28,l),
(100,2,o),
(141,-10,o),
(211,-10,cs)
);
}
);
width = 518;
}
);
note = uni10C2;
unicode = 4290;
}
{
glyphname = "We-oldgeorgian";
kernRight = "En-oldgeorgian";
layers = (
{
layerId = m001;
shapes = (
{
closed = 1;
nodes = (
(497,0,l),
(497,714,l),
(471,714,l),
(471,456,ls),
(471,283,o),
(379,218,o),
(269,218,cs),
(160,218,o),
(86,287,o),
(86,417,cs),
(86,465,o),
(99,518,o),
(128,566,c),
(107,576,l),
(74,525,o),
(59,470,o),
(59,417,cs),
(59,273,o),
(143,191,o),
(269,191,cs),
(362,191,o),
(435,240,o),
(469,323,c),
(474,323,l),
(473,303,o),
(471,263,o),
(471,218,cs),
(471,0,l)
);
}
);
userData = {
com.schriftgestaltung.Glyphs.glyph.leftMetricsKey = "=Don-oldgeorgian-5";
};
width = 600;
},
{
layerId = m002;
shapes = (
{
closed = 1;
nodes = (
(571,0,l),
(571,714,l),
(481,714,l),
(481,477,ls),
(481,324,o),
(420,263,o),
(295,263,cs),
(198,263,o),
(151,321,o),
(151,415,cs),
(151,452,o),
(162,499,o),
(188,541,c),
(111,573,l),
(74,521,o),
(56,469,o),
(56,407,cs),
(56,263,o),
(150,185,o),
(286,185,cs),
(361,185,o),
(441,223,o),
(480,282,c),
(485,282,l),
(482,244,o),
(480,220,o),
(480,212,cs),
(480,0,l)
);
}
);
userData = {
com.schriftgestaltung.Glyphs.glyph.leftMetricsKey = "=Don-oldgeorgian-5";
};
width = 669;
},
{
layerId = m004;
shapes = (
{
closed = 1;
nodes = (
(663,0,l),
(663,714,l),
(469,714,l),
(469,475,ls),
(469,365,o),
(417,316,o),
(340,316,cs),
(285,316,o),
(247,352,o),
(247,411,cs),
(247,455,o),
(260,492,o),
(283,528,c),
(120,597,l),
(69,534,o),
(46,466,o),
(46,401,cs),
(46,249,o),
(145,159,o),
(282,159,cs),
(371,159,o),
(436,194,o),
(473,246,c),
(478,246,l),
(471,187,o),
(469,135,o),
(469,89,cs),
(469,0,l)
);
}
);
userData = {
com.schriftgestaltung.Glyphs.glyph.leftMetricsKey = "=Don-oldgeorgian-5";
};
width = 740;
},
{
layerId = m005;
shapes = (
{
closed = 1;
nodes = (
(358,0,l),
(358,714,l),
(332,714,l),
(332,454,ls),
(332,270,o),
(274,213,o),
(196,213,cs),
(113,213,o),
(76,297,o),
(76,410,cs),
(76,482,o),
(91,537,o),
(113,573,c),
(93,582,l),
(70,547,o),
(49,493,o),
(49,409,cs),
(49,274,o),
(102,188,o),
(196,188,cs),
(261,188,o),
(310,225,o),
(332,303,c),
(334,303,l),
(333,281,o),
(332,233,o),
(332,188,cs),
(332,0,l)
);
}
);
userData = {
com.schriftgestaltung.Glyphs.glyph.leftMetricsKey = "=Don-oldgeorgian-5";
};
width = 436;
},
{
layerId = m006;
shapes = (
{
closed = 1;
nodes = (
(432,0,l),
(432,714,l),
(349,714,l),
(349,464,ls),
(349,311,o),
(302,246,o),
(231,246,cs),
(162,246,o),
(128,309,o),
(128,398,cs),
(128,450,o),
(138,501,o),
(159,547,c),
(85,573,l),
(56,526,o),
(43,459,o),
(43,396,cs),
(43,265,o),
(105,177,o),
(209,177,cs),
(278,177,o),
(324,213,o),
(350,285,c),
(354,285,l),
(351,251,o),
(349,204,o),
(349,161,cs),
(349,0,l)
);
}
);
userData = {
com.schriftgestaltung.Glyphs.glyph.leftMetricsKey = "=Don-oldgeorgian-5";
};
width = 502;
},
{
layerId = m008;
shapes = (
{
closed = 1;
nodes = (
(537,0,l),
(537,714,l),
(367,714,l),
(367,499,ls),
(367,395,o),
(337,317,o),
(285,317,cs),
(239,317,o),
(209,348,o),
(209,409,cs),
(209,447,o),
(221,497,o),
(239,530,c),
(92,580,l),
(53,526,o),
(34,464,o),
(34,403,cs),
(34,271,o),
(109,181,o),
(220,181,cs),
(294,181,o),
(337,215,o),
(369,277,c),
(375,277,l),
(370,223,o),
(367,178,o),
(367,139,cs),
(367,0,l)
);
}
);
userData = {
com.schriftgestaltung.Glyphs.glyph.leftMetricsKey = "=Don-oldgeorgian-5";
};
width = 596;
}
);
note = uni10C3;
unicode = 4291;
}
{
glyphname = "Har-oldgeorgian";
kernLeft = "Ban-oldgeorgian";
layers = (
{
layerId = m001;
shapes = (
{
closed = 1;
nodes = (
(368,0,l),
(368,265,l),
(515,270,o),
(616,355,o),
(616,527,cs),
(616,714,l),
(590,714,l),
(590,519,ls),
(590,367,o),
(496,290,o),
(354,290,cs),
(204,290,o),
(120,371,o),
(120,531,cs),
(120,714,l),
(94,714,l),
(94,529,ls),
(94,360,o),
(184,269,o),
(342,265,c),
(342,0,l)
);
}
);
width = 710;
},
{
layerId = m002;
shapes = (
{
closed = 1;
nodes = (
(395,0,l),
(395,243,l),
(542,261,o),
(625,355,o),
(625,502,cs),
(625,714,l),
(536,714,l),
(536,502,ls),
(536,384,o),
(471,318,o),
(352,318,cs),
(227,318,o),
(165,384,o),
(165,501,cs),
(165,714,l),
(75,714,l),
(75,504,ls),
(75,354,o),
(157,258,o),
(305,242,c),
(305,0,l)
);
}
);
width = 700;
},
{
layerId = m003;
shapes = (
{
closed = 1;
nodes = (
(444,0,l),
(444,232,l),
(582,257,o),
(661,353,o),
(661,488,cs),
(661,714,l),
(510,714,l),
(510,514,ls),
(510,401,o),
(468,353,o),
(370,353,cs),
(269,353,o),
(227,402,o),
(227,513,cs),
(227,714,l),
(76,714,l),
(76,490,ls),
(76,349,o),
(155,255,o),
(293,232,c),
(293,0,l)
);
}
);
width = 737;
},
{
layerId = m004;
shapes = (
{
closed = 1;
nodes = (
(472,0,l),
(472,225,l),
(611,257,o),
(680,361,o),
(680,509,cs),
(680,714,l),
(487,714,l),
(487,521,ls),
(487,419,o),
(454,376,o),
(375,376,cs),
(301,376,o),
(263,419,o),
(263,520,cs),
(263,714,l),
(69,714,l),
(69,505,ls),
(69,352,o),
(141,254,o),
(278,224,c),
(278,0,l)
);
}
);
width = 749;
},
{
layerId = m005;
shapes = (
{
closed = 1;
nodes = (
(255,0,l),
(255,266,l),
(354,273,o),
(415,353,o),
(415,528,cs),
(415,714,l),
(389,714,l),
(389,528,ls),
(389,358,o),
(331,291,o),
(242,291,cs),
(148,291,o),
(95,358,o),
(95,531,cs),
(95,714,l),
(69,714,l),
(69,530,ls),
(69,352,o),
(127,273,o),
(229,266,c),
(229,0,l)
);
}
);
width = 484;
},
{
layerId = m006;
shapes = (
{
closed = 1;
nodes = (
(303,0,l),
(303,251,l),
(402,266,o),
(461,345,o),
(461,503,cs),
(461,714,l),
(379,714,l),
(379,505,ls),
(379,370,o),
(335,318,o),
(262,318,cs),
(187,318,o),
(146,370,o),
(146,506,cs),
(146,714,l),
(64,714,l),
(64,502,ls),
(64,342,o),
(121,265,o),
(221,251,c),
(221,0,l)
);
}
);
width = 524;
},
{
layerId = m007;
shapes = (
{
closed = 1;
nodes = (
(348,0,l),
(348,237,l),
(447,259,o),
(504,337,o),
(504,478,cs),
(504,714,l),
(368,714,l),
(368,482,ls),
(368,381,o),
(338,344,o),
(281,344,cs),
(224,344,o),
(194,382,o),
(194,482,cs),
(194,714,l),
(58,714,l),
(58,476,ls),
(58,333,o),
(114,258,o),
(213,237,c),
(213,0,l)
);
}
);
width = 563;
},
{
layerId = m008;
shapes = (
{
closed = 1;
nodes = (
(378,0,l),
(378,228,l),
(476,255,o),
(532,332,o),
(532,463,cs),
(532,714,l),
(362,714,l),
(362,468,ls),
(362,388,o),
(341,360,o),
(293,360,cs),
(248,360,o),
(225,389,o),
(225,467,cs),
(225,714,l),
(55,714,l),
(55,459,ls),
(55,327,o),
(111,253,o),
(208,228,c),
(208,0,l)
);
}
);
width = 587;
}
);
note = uni10C4;
unicode = 4292;
}
{
glyphname = "Hoe-oldgeorgian";
kernRight = "Cil-oldgeorgian";
layers = (
{
layerId = m001;
shapes = (
{
closed = 1;
nodes = (
(296,-10,o),
(352,60,o),
(352,189,cs),
(352,257,l),
(631,257,l),
(631,110,l),
(657,110,l),
(657,283,l),
(352,283,l),
(352,413,l),
(550,413,ls),
(672,413,o),
(751,465,o),
(751,563,cs),
(751,671,o),
(670,724,o),
(541,724,cs),
(416,724,o),
(326,645,o),
(326,502,cs),
(326,283,l),
(243,283,ls),
(132,283,o),
(50,234,o),
(50,135,cs),
(50,34,o),
(111,-10,o),
(197,-10,cs)
);
},
{
closed = 1;
nodes = (
(128,15,o),
(77,54,o),
(77,136,cs),
(77,215,o),
(145,257,o),
(242,257,cs),
(326,257,l),
(326,189,ls),
(326,78,o),
(277,15,o),
(197,15,cs)
);
},
{
closed = 1;
nodes = (
(352,502,ls),
(352,624,o),
(423,699,o),
(541,699,cs),
(667,699,o),
(724,643,o),
(724,563,cs),
(724,487,o),
(667,439,o),
(550,439,cs),
(352,439,l)
);
}
);
width = 811;
},
{
layerId = m002;
shapes = (
{
closed = 1;
nodes = (
(354,-10,o),
(424,69,o),
(424,192,cs),
(424,231,l),
(620,231,l),
(620,114,l),
(706,114,l),
(706,309,l),
(424,309,l),
(424,386,l),
(560,386,ls),
(707,386,o),
(791,445,o),
(791,552,cs),
(791,661,o),
(707,724,o),
(563,724,cs),
(421,724,o),
(334,646,o),
(334,518,cs),
(334,309,l),
(255,309,ls),
(118,309,o),
(50,251,o),
(50,150,cs),
(50,46,o),
(118,-10,o),
(237,-10,cs)
);
},
{
closed = 1;
nodes = (
(177,68,o),
(145,92,o),
(145,149,cs),
(145,206,o),
(181,231,o),
(261,231,cs),
(334,231,l),
(334,192,ls),
(334,114,o),
(300,68,o),
(240,68,cs)
);
},
{
closed = 1;
nodes = (
(424,521,ls),
(424,603,o),
(471,646,o),
(559,646,cs),
(651,646,o),
(696,612,o),
(696,553,cs),
(696,493,o),
(650,464,o),
(553,464,cs),
(424,464,l)
);
}
);
width = 841;
},
{
layerId = m003;
shapes = (
{
closed = 1;
nodes = (
(412,-10,o),
(495,63,o),
(495,185,cs),
(495,197,l),
(599,197,l),
(599,114,l),
(737,114,l),
(737,309,l),
(495,309,l),
(495,374,l),
(558,374,ls),
(729,374,o),
(815,436,o),
(815,552,cs),
(815,661,o),
(735,724,o),
(577,724,cs),
(419,724,o),
(344,660,o),
(344,533,cs),
(344,309,l),
(249,309,ls),
(116,309,o),
(42,250,o),
(42,151,cs),
(42,53,o),
(126,-10,o),
(266,-10,cs)
);
},
{
closed = 1;
nodes = (
(222,102,o),
(198,118,o),
(198,149,cs),
(198,184,o),
(224,197,o),
(277,197,cs),
(344,197,l),
(344,175,ls),
(344,123,o),
(323,102,o),
(270,102,cs)
);
},
{
closed = 1;
nodes = (
(495,529,ls),
(495,582,o),
(519,612,o),
(579,612,cs),
(637,612,o),
(659,589,o),
(659,550,cs),
(659,505,o),
(629,486,o),
(553,486,cs),
(495,486,l)
);
}
);
width = 857;
},
{
layerId = m004;
shapes = (
{
closed = 1;
nodes = (
(453,-10,o),
(527,61,o),
(527,186,cs),
(527,197,l),
(612,197,l),
(612,94,l),
(779,94,l),
(779,331,l),
(527,331,l),
(527,374,l),
(583,374,ls),
(748,374,o),
(838,427,o),
(838,549,cs),
(838,658,o),
(753,724,o),
(582,724,cs),
(408,724,o),
(336,646,o),
(336,521,cs),
(336,331,l),
(293,331,ls),
(115,331,o),
(32,270,o),
(32,153,cs),
(32,53,o),
(113,-10,o),
(282,-10,cs)
);
},
{
closed = 1;
nodes = (
(242,119,o),
(228,134,o),
(228,155,cs),
(228,176,o),
(240,197,o),
(292,197,cs),
(336,197,l),
(336,180,ls),
(336,144,o),
(320,119,o),
(279,119,cs)
);
},
{
closed = 1;
nodes = (
(527,529,ls),
(527,565,o),
(543,590,o),
(586,590,cs),
(628,590,o),
(642,572,o),
(642,547,cs),
(642,522,o),
(628,498,o),
(566,498,cs),
(527,498,l)
);
}
);
width = 880;
},
{
layerId = m005;
shapes = (
{
closed = 1;
nodes = (
(217,-10,o),
(256,39,o),
(256,169,cs),
(256,257,l),
(427,257,l),
(427,130,l),
(453,130,l),
(453,282,l),
(256,282,l),
(256,414,l),
(372,414,ls),
(456,414,o),
(512,467,o),
(512,564,cs),
(512,670,o),
(457,724,o),
(372,724,cs),
(288,724,o),
(230,665,o),
(230,520,cs),
(230,282,l),
(176,282,ls),
(100,282,o),
(48,232,o),
(48,133,cs),
(48,33,o),
(89,-10,o),
(150,-10,cs)
);
},
{
closed = 1;
nodes = (
(106,15,o),
(75,50,o),
(75,135,cs),
(75,216,o),
(115,257,o),
(176,257,cs),
(230,257,l),
(230,169,ls),
(230,54,o),
(200,15,o),
(150,15,cs)
);
},
{
closed = 1;
nodes = (
(256,520,ls),
(256,646,o),
(299,699,o),
(372,699,cs),
(447,699,o),
(485,646,o),
(485,564,cs),
(485,486,o),
(447,439,o),
(372,439,cs),
(256,439,l)
);
}
);
width = 560;
},
{
layerId = m006;
shapes = (
{
closed = 1;
nodes = (
(279,-11,o),
(328,48,o),
(328,178,cs),
(328,238,l),
(433,238,l),
(433,118,l),
(507,118,l),
(507,302,l),
(328,302,l),
(328,397,l),
(404,397,ls),
(514,397,o),
(575,454,o),
(575,559,cs),
(575,666,o),
(514,724,o),
(409,724,cs),
(304,724,o),
(246,663,o),
(246,525,cs),
(246,302,l),
(199,302,ls),
(101,302,o),
(39,246,o),
(39,144,cs),
(39,39,o),
(94,-11,o),
(184,-11,cs)
);
},
{
closed = 1;
nodes = (
(146,53,o),
(122,82,o),
(122,144,cs),
(122,204,o),
(153,238,o),
(203,238,cs),
(246,238,l),
(246,174,ls),
(246,87,o),
(224,53,o),
(183,53,cs)
);
},
{
closed = 1;
nodes = (
(329,527,ls),
(329,618,o),
(357,660,o),
(412,660,cs),
(467,660,o),
(493,620,o),
(493,558,cs),
(493,497,o),
(465,461,o),
(404,461,cs),
(329,461,l)
);
}
);
width = 615;
},
{
layerId = m007;
shapes = (
{
closed = 1;
nodes = (
(338,-10,o),
(398,58,o),
(398,186,cs),
(398,220,l),
(469,220,l),
(469,105,l),
(589,105,l),
(589,320,l),
(398,320,l),
(398,381,l),
(434,381,ls),
(569,381,o),
(635,441,o),
(635,554,cs),
(635,662,o),
(570,724,o),
(445,724,cs),
(320,724,o),
(262,661,o),
(262,529,cs),
(262,320,l),
(222,320,ls),
(102,320,o),
(31,259,o),
(31,154,cs),
(31,47,o),
(99,-10,o),
(216,-10,cs)
);
},
{
closed = 1;
nodes = (
(184,89,o),
(167,112,o),
(167,153,cs),
(167,193,o),
(189,220,o),
(230,220,cs),
(262,220,l),
(262,180,ls),
(262,119,o),
(248,89,o),
(215,89,cs)
);
},
{
closed = 1;
nodes = (
(398,533,ls),
(398,592,o),
(412,624,o),
(449,624,cs),
(485,624,o),
(500,595,o),
(500,552,cs),
(500,508,o),
(481,482,o),
(435,482,cs),
(398,482,l)
);
}
);
width = 668;
},
{
layerId = m008;
shapes = (
{
closed = 1;
nodes = (
(376,-10,o),
(442,61,o),
(442,191,cs),
(442,208,l),
(501,208,l),
(501,128,l),
(642,128,l),
(642,332,l),
(442,332,l),
(442,371,l),
(464,371,ls),
(605,371,o),
(674,433,o),
(674,551,cs),
(674,660,o),
(605,724,o),
(468,724,cs),
(330,724,o),
(272,660,o),
(272,532,cs),
(272,332,l),
(237,332,ls),
(103,332,o),
(26,267,o),
(26,160,cs),
(26,51,o),
(103,-10,o),
(237,-10,cs)
);
},
{
closed = 1;
nodes = (
(209,112,o),
(196,131,o),
(196,159,cs),
(196,186,o),
(212,208,o),
(247,208,cs),
(272,208,l),
(272,183,ls),
(272,139,o),
(263,112,o),
(235,112,cs)
);
},
{
closed = 1;
nodes = (
(442,537,ls),
(442,575,o),
(447,600,o),
(473,600,cs),
(497,600,o),
(504,579,o),
(504,548,cs),
(504,515,o),
(491,495,o),
(464,495,cs),
(442,495,l)
);
}
);
width = 702;
}
);
note = uni10C5;
unicode = 4293;
}
{
glyphname = "Yn-oldgeorgian";
layers = (
{
anchors = (
{
name = bottom;
pos = (284,0);
},
{
name = top;
pos = (284,714);
}
);
layerId = m001;
shapes = (
{
closed = 1;
nodes = (
(422,-10,o),
(512,63,o),
(512,175,cs),
(512,197,o),
(509,216,o),
(505,234,c),
(477,234,l),
(483,217,o),
(485,197,o),
(485,175,cs),
(485,84,o),
(412,15,o),
(281,15,cs),
(155,15,o),
(97,80,o),
(97,174,cs),
(97,277,o),
(155,309,o),
(282,356,cs),
(430,411,o),
(469,464,o),
(469,555,cs),
(469,660,o),
(390,724,o),
(272,724,cs),
(162,724,o),
(87,658,o),
(87,576,cs),
(87,567,o),
(88,555,o),
(90,547,c),
(117,547,l),
(115,555,o),
(114,565,o),
(114,575,cs),
(114,642,o),
(178,699,o),
(273,699,cs),
(378,699,o),
(442,644,o),
(442,555,cs),
(442,466,o),
(389,426,o),
(273,383,cs),
(135,332,o),
(70,289,o),
(70,175,cs),
(70,63,o),
(142,-10,o),
(282,-10,cs)
);
}
);
width = 569;
},
{
anchors = (
{
name = bottom;
pos = (288,0);
},
{
name = top;
pos = (288,714);
}
);
layerId = m002;
shapes = (
{
closed = 1;
nodes = (
(445,-10,o),
(531,61,o),
(531,179,cs),
(531,199,o),
(528,217,o),
(524,234,c),
(434,234,l),
(439,218,o),
(441,201,o),
(441,181,cs),
(441,112,o),
(393,68,o),
(293,68,cs),
(193,68,o),
(148,111,o),
(148,183,cs),
(148,262,o),
(212,291,o),
(316,330,cs),
(448,379,o),
(500,440,o),
(500,542,cs),
(500,653,o),
(409,724,o),
(279,724,cs),
(148,724,o),
(75,656,o),
(75,552,c),
(75,544,o),
(76,535,o),
(77,528,c),
(167,528,l),
(166,535,o),
(165,543,o),
(165,551,cs),
(165,606,o),
(207,645,o),
(281,645,cs),
(359,645,o),
(409,606,o),
(409,541,cs),
(409,462,o),
(352,434,o),
(253,397,cs),
(127,350,o),
(58,302,o),
(58,188,cs),
(58,66,o),
(143,-10,o),
(294,-10,cs)
);
}
);
width = 576;
},
{
anchors = (
{
name = bottom;
pos = (316,0);
},
{
name = top;
pos = (316,714);
}
);
layerId = m003;
shapes = (
{
closed = 1;
nodes = (
(469,-10,o),
(552,63,o),
(552,183,cs),
(552,201,o),
(550,218,o),
(545,234,c),
(398,234,l),
(402,221,o),
(404,207,o),
(404,193,cs),
(404,145,o),
(371,115,o),
(302,115,cs),
(236,115,o),
(198,142,o),
(198,193,cs),
(198,246,o),
(261,273,o),
(346,310,cs),
(461,360,o),
(532,415,o),
(532,521,cs),
(532,648,o),
(444,724,o),
(301,724,cs),
(150,724,o),
(66,655,o),
(66,530,c),
(66,523,o),
(67,516,o),
(68,510,c),
(216,510,l),
(215,515,o),
(214,523,o),
(214,529,c),
(214,573,o),
(245,598,o),
(302,598,cs),
(355,598,o),
(384,570,o),
(384,528,cs),
(384,479,o),
(342,455,o),
(238,412,cs),
(119,363,o),
(50,309,o),
(50,198,cs),
(50,67,o),
(146,-10,o),
(308,-10,cs)
);
}
);
width = 597;
},
{
anchors = (
{
name = bottom;
pos = (324,0);
},
{
name = top;
pos = (324,714);
}
);
layerId = m004;
shapes = (
{
closed = 1;
nodes = (
(480,-10,o),
(566,63,o),
(566,185,cs),
(566,202,o),
(563,222,o),
(559,234,c),
(375,234,l),
(378,227,o),
(380,214,o),
(380,204,cs),
(380,168,o),
(353,146,o),
(306,146,cs),
(260,146,o),
(231,164,o),
(231,201,cs),
(231,243,o),
(283,259,o),
(345,287,cs),
(440,330,o),
(553,381,o),
(553,512,cs),
(553,656,o),
(449,724,o),
(310,724,cs),
(168,724,o),
(60,657,o),
(60,520,cs),
(60,512,o),
(61,502,o),
(62,498,c),
(247,498,l),
(246,503,o),
(245,509,o),
(245,515,cs),
(245,549,o),
(272,567,o),
(308,567,cs),
(344,567,o),
(368,549,o),
(368,519,cs),
(368,477,o),
(312,461,o),
(243,432,cs),
(137,388,o),
(45,338,o),
(45,207,cs),
(45,67,o),
(135,-10,o),
(311,-10,cs)
);
}
);
width = 606;
},
{
anchors = (
{
name = bottom;
pos = (195,0);
},
{
name = top;
pos = (195,714);
}
);
layerId = m005;
shapes = (
{
closed = 1;
nodes = (
(286,-10,o),
(346,53,o),
(346,165,cs),
(346,188,o),
(343,216,o),
(339,234,c),
(311,234,l),
(317,212,o),
(319,188,o),
(319,165,cs),
(319,74,o),
(276,15,o),
(195,15,cs),
(125,15,o),
(81,72,o),
(81,164,cs),
(81,271,o),
(138,315,o),
(197,356,cs),
(259,399,o),
(323,441,o),
(323,555,cs),
(323,659,o),
(274,724,o),
(189,724,cs),
(106,724,o),
(61,658,o),
(61,576,cs),
(61,567,o),
(62,555,o),
(64,547,c),
(91,547,l),
(89,555,o),
(88,565,o),
(88,575,cs),
(88,645,o),
(122,699,o),
(190,699,cs),
(262,699,o),
(296,643,o),
(296,555,cs),
(296,455,o),
(243,421,o),
(181,378,cs),
(119,335,o),
(54,287,o),
(54,165,cs),
(54,55,o),
(108,-10,o),
(196,-10,cs)
);
}
);
width = 396;
},
{
anchors = (
{
name = bottom;
pos = (206,0);
},
{
name = top;
pos = (206,714);
}
);
layerId = m006;
shapes = (
{
closed = 1;
nodes = (
(322,-10,o),
(382,61,o),
(382,178,cs),
(382,199,o),
(380,217,o),
(377,234,c),
(296,234,l),
(299,218,o),
(301,200,o),
(301,180,cs),
(301,105,o),
(269,55,o),
(209,55,cs),
(152,55,o),
(121,103,o),
(121,181,cs),
(121,266,o),
(164,296,o),
(232,336,cs),
(320,387,o),
(364,446,o),
(364,545,cs),
(364,655,o),
(302,724,o),
(205,724,cs),
(107,724,o),
(51,656,o),
(51,558,cs),
(51,550,o),
(52,540,o),
(53,533,c),
(134,533,l),
(133,540,o),
(132,548,o),
(132,557,cs),
(132,615,o),
(158,658,o),
(206,658,cs),
(253,658,o),
(282,615,o),
(282,544,cs),
(282,463,o),
(252,433,o),
(176,393,cs),
(88,346,o),
(39,299,o),
(39,185,cs),
(39,65,o),
(103,-10,o),
(213,-10,cs)
);
}
);
width = 417;
},
{
anchors = (
{
name = bottom;
pos = (237,0);
},
{
name = top;
pos = (237,714);
}
);
layerId = m007;
shapes = (
{
closed = 1;
nodes = (
(361,-10,o),
(429,62,o),
(429,181,cs),
(429,200,o),
(426,218,o),
(424,234,c),
(295,234,l),
(297,220,o),
(298,204,o),
(298,188,cs),
(298,120,o),
(274,94,o),
(234,94,cs),
(193,94,o),
(172,118,o),
(172,188,cs),
(172,248,o),
(195,277,o),
(268,323,cs),
(373,389,o),
(417,439,o),
(417,531,cs),
(417,650,o),
(340,724,o),
(233,724,cs),
(120,724,o),
(52,655,o),
(52,540,c),
(52,533,o),
(53,525,o),
(54,518,c),
(183,518,l),
(182,524,o),
(182,532,o),
(182,539,c),
(182,598,o),
(205,619,o),
(231,619,cs),
(262,619,o),
(287,596,o),
(287,534,cs),
(287,486,o),
(267,462,o),
(184,410,cs),
(83,347,o),
(41,290,o),
(41,193,cs),
(41,67,o),
(101,-10,o),
(235,-10,cs)
);
}
);
width = 463;
},
{
anchors = (
{
name = bottom;
pos = (270,0);
},
{
name = top;
pos = (270,714);
}
);
layerId = m008;
shapes = (
{
closed = 1;
nodes = (
(389,-10,o),
(462,63,o),
(462,179,cs),
(462,201,o),
(460,219,o),
(457,234,c),
(293,234,l),
(295,223,o),
(297,209,o),
(297,184,cs),
(297,149,o),
(278,129,o),
(251,129,cs),
(225,129,o),
(205,146,o),
(205,183,cs),
(205,237,o),
(252,263,o),
(298,298,cs),
(374,356,o),
(456,406,o),
(456,525,cs),
(456,649,o),
(378,724,o),
(252,724,cs),
(129,724,o),
(52,656,o),
(52,527,cs),
(52,520,o),
(52,512,o),
(53,506,c),
(219,506,l),
(218,511,o),
(217,519,o),
(217,525,cs),
(217,566,o),
(228,585,o),
(252,585,cs),
(277,585,o),
(287,566,o),
(287,533,cs),
(287,485,o),
(249,465,o),
(180,417,cs),
(105,365,o),
(35,310,o),
(35,189,cs),
(35,63,o),
(109,-10,o),
(251,-10,cs)
);
}
);
width = 497;
}
);
unicode = 4295;
}
{
glyphname = "Aen-oldgeorgian";
layers = (
{
layerId = m001;
shapes = (
{
closed = 1;
nodes = (
(538,0,l),
(538,25,l),
(73,25,l),
(526,696,l),
(526,714,l),
(64,714,l),
(64,689,l),
(489,689,l),
(36,18,l),
(36,0,l)
);
}
);
width = 578;
},
{
layerId = m002;
shapes = (
{
closed = 1;
nodes = (
(533,0,l),
(533,80,l),
(147,80,l),
(523,646,l),
(523,714,l),
(50,714,l),
(50,634,l),
(414,634,l),
(38,68,l),
(38,0,l)
);
}
);
width = 572;
},
{
layerId = m004;
shapes = (
{
closed = 1;
nodes = (
(586,0,l),
(586,156,l),
(269,156,l),
(578,595,l),
(578,714,l),
(37,714,l),
(37,558,l),
(339,558,l),
(30,119,l),
(30,0,l)
);
}
);
width = 611;
},
{
layerId = m005;
shapes = (
{
closed = 1;
nodes = (
(303,0,l),
(303,25,l),
(57,25,l),
(296,689,l),
(296,714,l),
(40,714,l),
(40,689,l),
(269,689,l),
(28,24,l),
(28,0,l)
);
}
);
width = 323;
},
{
layerId = m006;
shapes = (
{
closed = 1;
nodes = (
(341,0,l),
(341,76,l),
(115,76,l),
(335,648,l),
(335,714,l),
(30,714,l),
(30,638,l),
(244,638,l),
(26,65,l),
(26,0,l)
);
}
);
width = 361;
},
{
layerId = m008;
shapes = (
{
closed = 1;
nodes = (
(450,0,l),
(450,146,l),
(206,146,l),
(444,595,l),
(444,714,l),
(26,714,l),
(26,570,l),
(260,570,l),
(21,119,l),
(21,0,l)
);
}
);
width = 471;
}
);
unicode = 4301;
}
{
glyphname = "an-georgian";
kernLeft = "an-georgian";
kernRight = "an-georgian";
layers = (
{
anchors = (
{
name = top;
pos = (260,528);
}
);
layerId = m001;
shapes = (
{
closed = 1;
nodes = (
(401,-10,o),
(461,85,o),
(461,193,c),
(461,280,o),
(411,334,o),
(360,382,cs),
(313,427,o),
(267,469,o),
(267,528,c),
(241,528,l),
(241,453,o),
(294,410,o),
(345,362,cs),
(391,318,o),
(434,271,o),
(434,193,c),
(434,94,o),
(380,15,o),
(255,15,c),
(144,15,o),
(81,86,o),
(81,178,c),
(81,214,o),
(88,239,o),
(91,250,c),
(65,250,l),
(61,238,o),
(54,212,o),
(54,178,c),
(54,74,o),
(126,-10,o),
(255,-10,c)
);
}
);
userData = {
com.schriftgestaltung.Glyphs.glyph.leftMetricsKey = "=on-georgian-5";
com.schriftgestaltung.Glyphs.glyph.rightMetricsKey = "on-georgian";
};
width = 520;
},
{
anchors = (
{
name = top;
pos = (275,536);
}
);
layerId = m002;
shapes = (
{
closed = 1;
nodes = (
(399,-10,o),
(494,73,o),
(494,198,cs),
(494,293,o),
(442,348,o),
(393,397,cs),
(352,438,o),
(315,478,o),
(315,536,c),
(227,536,l),
(227,442,o),
(282,391,o),
(330,343,cs),
(368,305,o),
(403,267,o),
(403,198,cs),
(403,108,o),
(353,63,o),
(272,63,cs),
(191,63,o),
(138,108,o),
(138,193,cs),
(138,223,o),
(142,250,o),
(147,268,c),
(63,268,l),
(57,252,o),
(50,222,o),
(50,193,cs),
(50,59,o),
(147,-10,o),
(272,-10,cs)
);
}
);
userData = {
com.schriftgestaltung.Glyphs.glyph.leftMetricsKey = "=on-georgian-5";
com.schriftgestaltung.Glyphs.glyph.rightMetricsKey = "on-georgian";
};
width = 549;
},
{
anchors = (
{
name = top;
pos = (304,553);
}
);
layerId = m004;
shapes = (
{
closed = 1;
nodes = (
(465,-10,o),
(566,83,o),
(566,221,cs),
(566,316,o),
(518,371,o),
(470,416,cs),
(425,459,o),
(384,500,o),
(383,553,c),
(192,553,l),
(192,433,o),
(254,379,o),
(304,331,cs),
(340,297,o),
(372,268,o),
(372,218,c),
(372,169,o),
(347,132,o),
(299,132,cs),
(251,132,o),
(228,171,o),
(228,226,cs),
(228,250,o),
(232,276,o),
(239,303,c),
(55,303,l),
(43,271,o),
(37,249,o),
(37,206,cs),
(37,69,o),
(146,-10,o),
(299,-10,cs)
);
}
);
userData = {
com.schriftgestaltung.Glyphs.glyph.leftMetricsKey = "=on-georgian-5";
com.schriftgestaltung.Glyphs.glyph.rightMetricsKey = "on-georgian";
};
width = 608;
},
{
anchors = (
{
name = top;
pos = (184,527);
}
);
layerId = m005;
shapes = (
{
closed = 1;
nodes = (
(249,-10,o),
(322,33,o),
(322,161,cs),
(322,264,o),
(282,316,o),
(245,371,cs),
(217,412,o),
(194,457,o),
(194,527,c),
(168,527,l),
(168,443,o),
(200,393,o),
(232,344,cs),
(264,295,o),
(296,246,o),
(296,166,cs),
(296,60,o),
(248,15,o),
(181,15,cs),
(122,15,o),
(67,42,o),
(67,160,cs),
(67,192,o),
(71,220,o),
(77,247,c),
(52,247,l),
(44,218,o),
(40,189,o),
(40,160,cs),
(40,39,o),
(98,-10,o),
(181,-10,cs)
);
}
);
userData = {
com.schriftgestaltung.Glyphs.glyph.leftMetricsKey = "=on-georgian-5";
com.schriftgestaltung.Glyphs.glyph.rightMetricsKey = "on-georgian";
};
width = 367;
},
{
anchors = (
{
name = top;
pos = (207,537);
}
);
layerId = m006;
shapes = (
{
closed = 1;
nodes = (
(298,-10,o),
(371,52,o),
(371,170,cs),
(371,259,o),
(336,315,o),
(301,371,cs),
(272,418,o),
(247,467,o),
(247,537,c),
(166,537,l),
(166,436,o),
(200,384,o),
(232,334,cs),
(261,289,o),
(288,246,o),
(288,170,cs),
(288,99,o),
(258,61,o),
(203,61,cs),
(146,61,o),
(118,102,o),
(118,170,cs),
(118,205,o),
(121,230,o),
(129,263,c),
(53,263,l),
(42,227,o),
(37,203,o),
(37,165,cs),
(37,52,o),
(103,-10,o),
(204,-10,cs)
);
}
);
userData = {
com.schriftgestaltung.Glyphs.glyph.leftMetricsKey = "=on-georgian-5";
com.schriftgestaltung.Glyphs.glyph.rightMetricsKey = "on-georgian";
};
width = 413;
},
{
anchors = (
{
name = top;
pos = (252,553);
}
);
layerId = m008;
shapes = (
{
closed = 1;
nodes = (
(361,-10,o),
(458,68,o),
(458,194,cs),
(458,287,o),
(423,341,o),
(389,393,cs),
(359,439,o),
(332,484,o),
(332,553,c),
(170,553,l),
(170,454,o),
(207,391,o),
(242,339,cs),
(270,297,o),
(294,257,o),
(294,200,cs),
(294,152,o),
(273,125,o),
(242,125,cs),
(208,125,o),
(191,160,o),
(191,210,cs),
(191,243,o),
(195,268,o),
(200,293,c),
(52,293,l),
(39,255,o),
(33,228,o),
(33,184,cs),
(33,68,o),
(125,-10,o),
(246,-10,cs)
);
}
);
userData = {
com.schriftgestaltung.Glyphs.glyph.leftMetricsKey = "=on-georgian-5";
com.schriftgestaltung.Glyphs.glyph.rightMetricsKey = "on-georgian";
};
width = 496;
}
);
note = uni10D0;
unicode = 4304;
}
{
glyphname = "ban-georgian";
kernLeft = "ban-georgian";
kernRight = "ban-georgian";
layers = (
{
layerId = m001;
shapes = (
{
closed = 1;
nodes = (
(321,559,o),
(327,579,o),
(327,603,cs),
(327,645,o),
(299,670,o),
(273,691,cs),
(252,708,o),
(233,729,o),
(233,760,c),
(207,760,l),
(207,718,o),
(232,695,o),
(256,675,cs),
(278,656,o),
(300,637,o),
(300,603,cs),
(300,580,o),
(296,558,o),
(284,538,c),
(142,534,o),
(59,429,o),
(59,264,cs),
(59,107,o),
(134,-10,o),
(286,-10,cs),
(443,-10,o),
(515,109,o),
(515,264,cs),
(515,411,o),
(456,529,o),
(310,537,c)
);
},
{
closed = 1;
nodes = (
(151,15,o),
(86,117,o),
(86,264,cs),
(86,420,o),
(160,513,o),
(292,513,cs),
(433,513,o),
(488,402,o),
(488,264,cs),
(488,119,o),
(426,15,o),
(286,15,cs)
);
}
);
userData = {
com.schriftgestaltung.Glyphs.glyph.leftMetricsKey = "on-georgian";
com.schriftgestaltung.Glyphs.glyph.rightMetricsKey = "on-georgian";
};
width = 574;
},
{
layerId = m002;
shapes = (
{
closed = 1;
nodes = (
(369,558,o),
(374,577,o),
(374,601,cs),
(374,643,o),
(347,668,o),
(320,691,cs),
(299,709,o),
(282,729,o),
(282,760,c),
(194,760,l),
(194,698,o),
(227,672,o),
(255,650,cs),
(274,635,o),
(288,620,o),
(288,595,cs),
(288,573,o),
(283,557,o),
(276,545,c),
(139,533,o),
(55,435,o),
(55,269,cs),
(55,91,o),
(159,-10,o),
(301,-10,cs),
(454,-10,o),
(551,91,o),
(551,269,cs),
(551,422,o),
(474,518,o),
(360,541,c)
);
},
{
closed = 1;
nodes = (
(194,63,o),
(146,142,o),
(146,269,cs),
(146,396,o),
(193,472,o),
(302,472,cs),
(411,472,o),
(460,396,o),
(460,269,cs),
(460,142,o),
(411,63,o),
(303,63,cs)
);
}
);
userData = {
com.schriftgestaltung.Glyphs.glyph.leftMetricsKey = "on-georgian";
com.schriftgestaltung.Glyphs.glyph.rightMetricsKey = "on-georgian";
};
width = 606;
},
{
associatedMasterId = m002;
layerId = "A0FCE36E-4C20-446B-BF92-3CC189019FCC";
name = "Feb 25 17, 14:29";
shapes = (
{
closed = 1;
nodes = (
(457,-10,o),
(551,94,o),
(551,269,cs),
(551,410,o),
(485,509,o),
(371,538,c),
(385,561,o),
(392,585,o),
(392,609,cs),
(392,666,o),
(356,699,o),
(298,699,cs),
(260,699,o),
(249,716,o),
(249,760,c),
(171,760,l),
(171,667,o),
(203,630,o),
(279,630,cs),
(304,630,o),
(314,613,o),
(314,593,cs),
(314,576,o),
(309,561,o),
(299,546,c),
(291,546,o),
(283,545,o),
(276,545,cs),
(134,531,o),
(55,431,o),
(55,269,cs),
(55,106,o),
(146,-10,o),
(301,-10,cs)
);
},
{
closed = 1;
nodes = (
(200,63,o),
(146,134,o),
(146,269,cs),
(146,404,o),
(198,472,o),
(302,472,cs),
(405,472,o),
(460,404,o),
(460,269,cs),
(460,134,o),
(405,63,o),
(303,63,cs)
);
},
{
closed = 1;
nodes = (
(551,446,o),
(449,546,o),
(304,546,cs),
(150,546,o),
(55,446,o),
(55,269,cs),
(55,91,o),
(159,-10,o),
(301,-10,cs),
(454,-10,o),
(551,91,o),
(551,269,cs)
);
},
{
closed = 1;
nodes = (
(146,396,o),
(193,472,o),
(302,472,cs),
(411,472,o),
(460,396,o),
(460,269,cs),
(460,142,o),
(411,63,o),
(303,63,cs),
(194,63,o),
(146,142,o),
(146,269,cs)
);
}
);
userData = {
com.schriftgestaltung.Glyphs.glyph.leftMetricsKey = "on-georgian";
com.schriftgestaltung.Glyphs.glyph.rightMetricsKey = "on-georgian";
};
width = 606;
},
{
layerId = m003;
shapes = (
{
closed = 1;
nodes = (
(398,562,o),
(403,581,o),
(403,603,cs),
(403,646,o),
(379,671,o),
(354,692,cs),
(331,712,o),
(311,731,o),
(310,760,c),
(170,760,l),
(170,697,o),
(199,671,o),
(224,651,cs),
(244,635,o),
(260,617,o),
(260,591,cs),
(260,574,o),
(256,562,o),
(250,551,c),
(121,528,o),
(45,431,o),
(45,274,cs),
(45,92,o),
(155,-10,o),
(308,-10,cs),
(472,-10,o),
(574,92,o),
(574,274,cs),
(574,422,o),
(500,517,o),
(390,546,c)
);
},
{
closed = 1;
nodes = (
(230,109,o),
(197,171,o),
(197,274,cs),
(197,376,o),
(230,436,o),
(309,436,cs),
(389,436,o),
(422,376,o),
(422,274,cs),
(422,171,o),
(389,109,o),
(310,109,cs)
);
}
);
userData = {
com.schriftgestaltung.Glyphs.glyph.leftMetricsKey = "on-georgian";
com.schriftgestaltung.Glyphs.glyph.rightMetricsKey = "on-georgian";
};
width = 619;
},
{
layerId = m004;
shapes = (
{
closed = 1;
nodes = (
(423,565,o),
(427,583,o),
(427,605,cs),
(427,647,o),
(404,673,o),
(380,694,cs),
(355,715,o),
(335,734,o),
(334,760,c),
(158,760,l),
(158,692,o),
(186,668,o),
(210,647,cs),
(228,632,o),
(244,617,o),
(244,588,cs),
(244,576,o),
(240,564,o),
(235,554,c),
(113,525,o),
(42,429,o),
(42,278,cs),
(42,93,o),
(157,-10,o),
(317,-10,cs),
(489,-10,o),
(594,93,o),
(594,278,cs),
(594,422,o),
(523,516,o),
(414,550,c)
);
},
{
closed = 1;
nodes = (
(259,132,o),
(236,183,o),
(236,278,cs),
(236,372,o),
(260,421,o),
(318,421,cs),
(378,421,o),
(400,372,o),
(400,278,cs),
(400,183,o),
(378,132,o),
(319,132,cs)
);
}
);
userData = {
com.schriftgestaltung.Glyphs.glyph.leftMetricsKey = "on-georgian";
com.schriftgestaltung.Glyphs.glyph.rightMetricsKey = "on-georgian";
};
width = 636;
},
{
layerId = m005;
shapes = (
{
closed = 1;
nodes = (
(233,560,o),
(239,583,o),
(239,608,cs),
(239,647,o),
(223,669,o),
(205,690,cs),
(189,709,o),
(175,728,o),
(175,760,c),
(149,760,l),
(149,717,o),
(168,695,o),
(186,674,cs),
(201,656,o),
(212,639,o),
(212,608,cs),
(212,584,o),
(208,559,o),
(195,537,c),
(93,533,o),
(45,441,o),
(45,266,cs),
(45,80,o),
(99,-10,o),
(203,-10,cs),
(305,-10,o),
(356,77,o),
(356,264,cs),
(356,423,o),
(319,524,o),
(221,536,c)
);
},
{
closed = 1;
nodes = (
(112,15,o),
(71,102,o),
(71,266,cs),
(71,424,o),
(109,512,o),
(201,512,cs),
(297,512,o),
(330,418,o),
(330,265,cs),
(330,94,o),
(290,15,o),
(202,15,cs)
);
}
);
userData = {
com.schriftgestaltung.Glyphs.glyph.leftMetricsKey = "on-georgian";
com.schriftgestaltung.Glyphs.glyph.rightMetricsKey = "on-georgian";
};
width = 401;
},
{
layerId = m006;
shapes = (
{
closed = 1;
nodes = (
(280,557,o),
(285,576,o),
(285,598,cs),
(285,643,o),
(266,665,o),
(248,686,cs),
(231,706,o),
(218,725,o),
(218,760,c),
(137,760,l),
(137,704,o),
(157,679,o),
(176,656,cs),
(191,638,o),
(204,621,o),
(204,591,cs),
(204,571,o),
(200,557,o),
(193,545,c),
(90,530,o),
(42,431,o),
(42,269,cs),
(42,101,o),
(102,-10,o),
(221,-10,cs),
(346,-10,o),
(403,102,o),
(403,269,cs),
(403,425,o),
(355,517,o),
(271,541,c)
);
},
{
closed = 1;
nodes = (
(155,61,o),
(125,132,o),
(125,269,cs),
(125,407,o),
(154,476,o),
(223,476,cs),
(290,476,o),
(321,407,o),
(321,269,cs),
(321,130,o),
(290,61,o),
(223,61,cs)
);
}
);
userData = {
com.schriftgestaltung.Glyphs.glyph.leftMetricsKey = "on-georgian";
com.schriftgestaltung.Glyphs.glyph.rightMetricsKey = "on-georgian";
};
width = 445;
},
{
layerId = m007;
shapes = (
{
closed = 1;
nodes = (
(331,562,o),
(337,581,o),
(337,605,cs),
(337,639,o),
(320,665,o),
(302,686,cs),
(284,707,o),
(270,726,o),
(270,760,c),
(141,760,l),
(141,701,o),
(162,674,o),
(180,651,cs),
(194,633,o),
(206,613,o),
(206,589,cs),
(206,575,o),
(203,562,o),
(199,551,c),
(89,526,o),
(42,420,o),
(42,274,cs),
(42,120,o),
(107,-10,o),
(249,-10,cs),
(401,-10,o),
(458,123,o),
(458,274,cs),
(458,421,o),
(406,514,o),
(320,545,c)
);
},
{
closed = 1;
nodes = (
(197,100,o),
(174,159,o),
(174,273,cs),
(174,391,o),
(197,447,o),
(250,447,cs),
(304,447,o),
(326,390,o),
(326,274,cs),
(326,158,o),
(304,100,o),
(250,100,cs)
);
}
);
userData = {
com.schriftgestaltung.Glyphs.glyph.leftMetricsKey = "on-georgian";
com.schriftgestaltung.Glyphs.glyph.rightMetricsKey = "on-georgian";
};
width = 500;
},
{
layerId = m008;
shapes = (
{
closed = 1;
nodes = (
(359,564,o),
(366,584,o),
(366,609,cs),
(366,644,o),
(348,667,o),
(331,687,cs),
(313,708,o),
(299,727,o),
(299,760,c),
(139,760,l),
(139,700,o),
(158,674,o),
(177,649,cs),
(191,631,o),
(203,613,o),
(203,587,cs),
(203,576,o),
(201,565,o),
(198,555,c),
(85,524,o),
(38,413,o),
(38,278,cs),
(38,132,o),
(106,-10,o),
(263,-10,cs),
(433,-10,o),
(489,136,o),
(489,278,cs),
(489,419,o),
(435,513,o),
(348,548,c)
);
},
{
closed = 1;
nodes = (
(221,125,o),
(202,177,o),
(202,276,cs),
(202,380,o),
(221,428,o),
(264,428,cs),
(309,428,o),
(325,379,o),
(325,278,cs),
(325,176,o),
(309,125,o),
(264,125,cs)
);
}
);
userData = {
com.schriftgestaltung.Glyphs.glyph.leftMetricsKey = "on-georgian";
com.schriftgestaltung.Glyphs.glyph.rightMetricsKey = "on-georgian";
};
width = 527;
}
);
note = uni10D1;
unicode = 4305;
}
{
glyphname = "gan-georgian";
layers = (
{
layerId = m001;
shapes = (
{
closed = 1;
nodes = (
(438,-250,o),
(510,-131,o),
(510,14,cs),
(510,172,o),
(429,255,o),
(339,267,c),
(339,269,l),
(404,284,o),
(444,327,o),
(444,393,cs),
(444,472,o),
(386,538,o),
(286,538,cs),
(194,538,o),
(125,479,o),
(125,396,cs),
(125,385,o),
(126,374,o),
(129,362,c),
(155,362,l),
(153,373,o),
(151,384,o),
(151,394,cs),
(151,464,o),
(202,513,o),
(286,513,cs),
(372,513,o),
(417,463,o),
(417,393,cs),
(417,316,o),
(357,282,o),
(276,278,cs),
(142,271,o),
(54,172,o),
(54,14,cs),
(54,-133,o),
(129,-250,o),
(281,-250,cs)
);
},
{
closed = 1;
nodes = (
(146,-225,o),
(81,-123,o),
(81,14,cs),
(81,160,o),
(155,253,o),
(287,253,cs),
(428,253,o),
(483,142,o),
(483,14,cs),
(483,-121,o),
(421,-225,o),
(281,-225,cs)
);
}
);
userData = {
com.schriftgestaltung.Glyphs.glyph.leftMetricsKey = "=on-georgian-5";
com.schriftgestaltung.Glyphs.glyph.rightMetricsKey = "=on-georgian-5";
};
width = 564;
},
{
layerId = m002;
shapes = (
{
closed = 1;
nodes = (
(450,-250,o),
(546,-149,o),
(546,19,cs),
(546,131,o),
(497,231,o),
(384,263,c),
(384,266,l),
(449,286,o),
(479,335,o),
(479,396,cs),
(479,484,o),
(403,546,o),
(295,546,cs),
(185,546,o),
(113,487,o),
(113,404,cs),
(113,389,o),
(115,373,o),
(119,357,c),
(205,357,l),
(203,369,o),
(201,380,o),
(201,390,cs),
(201,443,o),
(233,476,o),
(295,476,cs),
(356,476,o),
(391,440,o),
(391,388,cs),
(391,336,o),
(360,299,o),
(283,289,cs),
(139,270,o),
(50,186,o),
(50,19,cs),
(50,-149,o),
(154,-250,o),
(296,-250,cs)
);
},
{
closed = 1;
nodes = (
(189,-177,o),
(141,-98,o),
(141,19,cs),
(141,136,o),
(188,212,o),
(297,212,cs),
(406,212,o),
(455,136,o),
(455,19,cs),
(455,-98,o),
(406,-177,o),
(298,-177,cs)
);
}
);
userData = {
com.schriftgestaltung.Glyphs.glyph.leftMetricsKey = "=on-georgian-5";
com.schriftgestaltung.Glyphs.glyph.rightMetricsKey = "=on-georgian-5";
};
width = 596;
},
{
layerId = m004;
shapes = (
{
closed = 1;
nodes = (
(484,-250,o),
(589,-147,o),
(589,28,cs),
(589,140,o),
(542,218,o),
(447,259,c),
(447,263,l),
(523,291,o),
(544,342,o),
(544,396,cs),
(544,483,o),
(462,563,o),
(313,563,cs),
(173,563,o),
(83,499,o),
(83,398,cs),
(83,382,o),
(85,367,o),
(90,348,c),
(265,348,l),
(263,358,o),
(262,368,o),
(262,377,cs),
(262,413,o),
(281,437,o),
(313,437,cs),
(346,437,o),
(364,411,o),
(364,378,cs),
(364,332,o),
(338,311,o),
(267,298,cs),
(134,274,o),
(37,184,o),
(37,28,cs),
(37,-147,o),
(152,-250,o),
(312,-250,cs)
);
},
{
closed = 1;
nodes = (
(254,-108,o),
(231,-57,o),
(231,28,cs),
(231,112,o),
(255,161,o),
(313,161,cs),
(373,161,o),
(395,112,o),
(395,28,cs),
(395,-57,o),
(373,-108,o),
(314,-108,cs)
);
}
);
userData = {
com.schriftgestaltung.Glyphs.glyph.leftMetricsKey = "=on-georgian-5";
com.schriftgestaltung.Glyphs.glyph.rightMetricsKey = "=on-georgian-5";
};
width = 626;
},
{
layerId = m005;
shapes = (
{
closed = 1;
nodes = (
(300,-250,o),
(351,-163,o),
(351,14,cs),
(351,189,o),
(305,252,o),
(232,268,c),
(232,270,l),
(284,290,o),
(306,338,o),
(306,400,cs),
(306,477,o),
(270,537,o),
(196,537,cs),
(126,537,o),
(83,488,o),
(83,409,cs),
(83,388,o),
(85,372,o),
(87,358,c),
(113,358,l),
(110,373,o),
(109,389,o),
(109,409,cs),
(109,480,o),
(141,512,o),
(196,512,cs),
(256,512,o),
(280,462,o),
(280,399,cs),
(280,331,o),
(250,284,o),
(187,277,cs),
(92,266,o),
(40,189,o),
(40,16,cs),
(40,-160,o),
(94,-250,o),
(198,-250,cs)
);
},
{
closed = 1;
nodes = (
(107,-225,o),
(66,-138,o),
(66,16,cs),
(66,164,o),
(108,252,o),
(196,252,cs),
(292,252,o),
(325,158,o),
(325,15,cs),
(325,-146,o),
(284,-225,o),
(197,-225,cs)
);
}
);
userData = {
com.schriftgestaltung.Glyphs.glyph.leftMetricsKey = "=on-georgian-5";
com.schriftgestaltung.Glyphs.glyph.rightMetricsKey = "=on-georgian-5";
};
width = 391;
},
{
layerId = m006;
shapes = (
{
closed = 1;
nodes = (
(341,-250,o),
(398,-139,o),
(398,19,cs),
(398,135,o),
(371,230,o),
(286,264,c),
(286,267,l),
(339,294,o),
(355,347,o),
(355,397,cs),
(355,487,o),
(302,547,o),
(216,547,cs),
(136,547,o),
(78,497,o),
(78,414,cs),
(78,391,o),
(81,376,o),
(87,359,c),
(163,359,l),
(159,376,o),
(157,389,o),
(157,409,cs),
(157,457,o),
(178,483,o),
(216,483,cs),
(257,483,o),
(275,446,o),
(275,401,cs),
(275,345,o),
(264,299,o),
(200,286,cs),
(94,265,o),
(37,186,o),
(37,19,cs),
(37,-139,o),
(97,-250,o),
(216,-250,cs)
);
},
{
closed = 1;
nodes = (
(150,-179,o),
(120,-108,o),
(120,19,cs),
(120,147,o),
(149,216,o),
(218,216,cs),
(285,216,o),
(316,147,o),
(316,19,cs),
(316,-110,o),
(285,-179,o),
(218,-179,cs)
);
}
);
userData = {
com.schriftgestaltung.Glyphs.glyph.leftMetricsKey = "=on-georgian-5";
com.schriftgestaltung.Glyphs.glyph.rightMetricsKey = "=on-georgian-5";
};
width = 435;
},
{
layerId = m008;
shapes = (
{
closed = 1;
nodes = (
(428,-250,o),
(484,-104,o),
(484,28,cs),
(484,169,o),
(433,242,o),
(369,268,c),
(369,272,l),
(433,300,o),
(449,354,o),
(449,399,cs),
(449,489,o),
(391,563,o),
(259,563,cs),
(141,563,o),
(71,494,o),
(71,406,cs),
(71,389,o),
(74,371,o),
(78,353,c),
(225,353,l),
(222,365,o),
(221,378,o),
(221,389,cs),
(221,417,o),
(234,437,o),
(258,437,cs),
(282,437,o),
(295,417,o),
(295,388,cs),
(295,331,o),
(276,312,o),
(213,295,cs),
(99,264,o),
(33,167,o),
(33,28,cs),
(33,-108,o),
(101,-250,o),
(258,-250,cs)
);
},
{
closed = 1;
nodes = (
(216,-115,o),
(197,-63,o),
(197,26,cs),
(197,120,o),
(216,168,o),
(259,168,cs),
(304,168,o),
(320,119,o),
(320,28,cs),
(320,-64,o),
(304,-115,o),
(259,-115,cs)
);
}
);
userData = {
com.schriftgestaltung.Glyphs.glyph.leftMetricsKey = "=on-georgian-5";
com.schriftgestaltung.Glyphs.glyph.rightMetricsKey = "=on-georgian-5";
};
width = 517;
}
);
note = uni10D2;
unicode = 4306;
}
{
glyphname = "don-georgian";
kernLeft = "don-georgian";
kernRight = "ban-georgian";
layers = (
{
layerId = m001;
shapes = (
{
closed = 1;
nodes = (
(575,-237,l),
(528,-139,o),
(438,-100,o),
(327,-59,cs),
(174,-3,o),
(86,117,o),
(86,287,cs),
(86,436,o),
(130,513,o),
(237,513,cs),
(334,513,o),
(375,439,o),
(375,317,cs),
(375,264,ls),
(375,109,o),
(442,-10,o),
(577,-10,cs),
(716,-10,o),
(781,107,o),
(781,264,cs),
(781,432,o),
(712,538,o),
(578,538,cs),
(468,538,o),
(404,465,o),
(393,370,c),
(392,370,l),
(389,484,o),
(319,538,o),
(237,538,cs),
(119,538,o),
(59,453,o),
(59,287,cs),
(59,112,o),
(150,-25,o),
(314,-77,c),
(314,-79,l),
(243,-76,o),
(193,-90,o),
(153,-107,c),
(164,-130,l),
(204,-112,o),
(251,-99,o),
(306,-99,cs),
(390,-99,o),
(503,-150,o),
(551,-250,c)
);
},
{
closed = 1;
nodes = (
(459,15,o),
(402,119,o),
(402,264,cs),
(402,420,o),
(456,513,o),
(578,513,cs),
(697,513,o),
(754,420,o),
(754,264,cs),
(754,117,o),
(699,15,o),
(577,15,cs)
);
}
);
userData = {
com.schriftgestaltung.Glyphs.glyph.leftMetricsKey = "on-georgian";
com.schriftgestaltung.Glyphs.glyph.rightMetricsKey = "on-georgian";
};
width = 840;
},
{
associatedMasterId = m001;
layerId = "FB35A071-0A89-4343-B05B-1D91BE5EAF3E";
name = "Feb 21 17, 16:03";
shapes = (
{
closed = 1;
nodes = (
(540,-227,l),
(493,-131,o),
(414,-95,o),
(305,-52,cs),
(162,4,o),
(87,110,o),
(87,263,cs),
(87,417,o),
(147,513,o),
(246,513,cs),
(346,513,o),
(391,447,o),
(391,274,cs),
(391,82,o),
(464,-10,o),
(575,-10,cs),
(689,-10,o),
(749,82,o),
(749,273,cs),
(749,436,o),
(689,538,o),
(569,538,cs),
(486,538,o),
(431,478,o),
(409,397,c),
(406,397,l),
(389,482,o),
(341,538,o),
(246,538,cs),
(133,538,o),
(60,436,o),
(60,263,cs),
(60,107,o),
(128,1,o),
(265,-65,c),
(206,-66,o),
(148,-88,o),
(106,-110,c),
(117,-135,l),
(162,-111,o),
(219,-90,o),
(274,-90,cs),
(366,-90,o),
(467,-144,o),
(515,-240,c)
);
},
{
closed = 1;
nodes = (
(477,15,o),
(418,109,o),
(418,274,cs),
(418,425,o),
(476,513,o),
(568,513,cs),
(673,513,o),
(722,418,o),
(722,272,cs),
(722,109,o),
(673,15,o),
(575,15,cs)
);
}
);
userData = {
com.schriftgestaltung.Glyphs.glyph.leftMetricsKey = "on-georgian";
com.schriftgestaltung.Glyphs.glyph.rightMetricsKey = "on-georgian";
};
width = 809;
},
{
associatedMasterId = m001;
layerId = "95915CD8-6369-4CCD-A049-AB76E2CDC23E";
name = "Feb 21 17, 16:03.background";
shapes = (
{
closed = 1;
nodes = (
(540,-227,l),
(493,-131,o),
(414,-95,o),
(305,-52,cs),
(162,4,o),
(87,110,o),
(87,263,cs),
(87,417,o),
(147,513,o),
(246,513,cs),
(346,513,o),
(391,447,o),
(391,274,cs),
(391,82,o),
(464,-10,o),
(575,-10,cs),
(689,-10,o),
(749,82,o),
(749,273,cs),
(749,436,o),
(689,538,o),
(569,538,cs),
(486,538,o),
(431,478,o),
(409,397,c),
(406,397,l),
(389,482,o),
(341,538,o),
(246,538,cs),
(133,538,o),
(60,436,o),
(60,263,cs),
(60,107,o),
(128,1,o),
(265,-65,c),
(206,-66,o),
(148,-88,o),
(106,-110,c),
(117,-137,l),
(162,-113,o),
(219,-93,o),
(274,-93,cs),
(366,-93,o),
(467,-144,o),
(515,-240,c)
);
},
{
closed = 1;
nodes = (
(477,15,o),
(418,109,o),
(418,274,cs),
(418,425,o),
(476,513,o),
(568,513,cs),
(673,513,o),
(722,418,o),
(722,272,cs),
(722,109,o),
(673,15,o),
(575,15,cs)
);
}
);
width = 0;
},
{
associatedMasterId = m001;
layerId = "F8A41AD3-76AD-44B9-8427-7B1520915CD3";
name = "Feb 24 17, 14:32";
shapes = (
{
closed = 1;
nodes = (
(574,-237,l),
(527,-139,o),
(437,-100,o),
(326,-59,cs),
(173,-3,o),
(85,125,o),
(85,287,c),
(85,435,o),
(146,513,o),
(246,513,c),
(344,513,o),
(394,439,o),
(394,307,c),
(394,261,l),
(394,73,o),
(487,-13,o),
(605,-13,c),
(735,-13,o),
(816,69,o),
(816,270,c),
(816,439,o),
(735,538,o),
(603,538,c),
(502,538,o),
(433,468,o),
(412,380,c),
(410,380,l),
(400,478,o),
(342,538,o),
(246,538,c),
(133,538,o),
(58,454,o),
(58,287,c),
(58,112,o),
(151,-18,o),
(305,-75,c),
(305,-77,l),
(244,-74,o),
(192,-90,o),
(152,-107,c),
(163,-130,l),
(203,-112,o),
(250,-99,o),
(305,-99,c),
(389,-99,o),
(502,-150,o),
(550,-250,c)
);
},
{
closed = 1;
nodes = (
(501,13,o),
(421,96,o),
(421,271,c),
(421,423,o),
(493,513,o),
(603,513,c),
(719,513,o),
(789,421,o),
(789,269,c),
(789,96,o),
(719,13,o),
(605,13,c)
);
}
);
userData = {
com.schriftgestaltung.Glyphs.glyph.leftMetricsKey = "on-georgian";
com.schriftgestaltung.Glyphs.glyph.rightMetricsKey = "on-georgian";
};
width = 874;
},
{
associatedMasterId = m001;
layerId = "E75AA133-F3E7-4761-BCF2-96B6BD662DA4";
name = "Feb 24 17, 14:32.background";
shapes = (
{
closed = 1;
nodes = (
(598,-227,l),
(551,-131,o),
(472,-95,o),
(363,-52,cs),
(220,4,o),
(145,110,o),
(145,263,cs),
(145,417,o),
(205,513,o),
(304,513,cs),
(404,513,o),
(449,447,o),
(449,274,cs),
(449,82,o),
(522,-10,o),
(633,-10,cs),
(747,-10,o),
(807,82,o),
(807,273,cs),
(807,436,o),
(747,538,o),
(627,538,cs),
(544,538,o),
(489,478,o),
(467,397,c),
(464,397,l),
(447,482,o),
(399,538,o),
(304,538,cs),
(191,538,o),
(118,436,o),
(118,263,cs),
(118,107,o),
(186,1,o),
(323,-65,c),
(264,-66,o),
(206,-88,o),
(164,-110,c),
(175,-137,l),
(220,-113,o),
(277,-93,o),
(332,-93,cs),
(424,-93,o),
(525,-144,o),
(573,-240,c)
);
},
{
closed = 1;
nodes = (
(535,15,o),
(476,109,o),
(476,274,cs),
(476,425,o),
(534,513,o),
(626,513,cs),
(731,513,o),
(780,418,o),
(780,272,cs),
(780,109,o),
(731,15,o),
(633,15,cs)
);
}
);
width = 0;
},
{
layerId = m002;
shapes = (
{
closed = 1;
nodes = (
(615,-214,l),
(565,-117,o),
(479,-80,o),
(363,-30,cs),
(247,20,o),
(145,96,o),
(145,286,cs),
(145,406,o),
(188,473,o),
(257,473,cs),
(325,473,o),
(370,426,o),
(370,323,cs),
(370,274,ls),
(370,101,o),
(461,0,o),
(599,0,cs),
(727,0,o),
(826,101,o),
(826,274,cs),
(826,446,o),
(736,546,o),
(598,546,cs),
(523,546,o),
(452,509,o),
(424,433,c),
(419,433,l),
(396,509,o),
(339,546,o),
(254,546,cs),
(124,546,o),
(55,434,o),
(55,284,cs),
(55,119,o),
(134,11,o),
(271,-54,c),
(271,-57,l),
(210,-60,o),
(173,-73,o),
(142,-88,c),
(172,-150,l),
(226,-125,o),
(267,-113,o),
(323,-113,cs),
(400,-113,o),
(504,-166,o),
(548,-250,c)
);
},
{
closed = 1;
nodes = (
(504,73,o),
(461,152,o),
(461,274,cs),
(461,396,o),
(504,472,o),
(598,472,cs),
(693,472,o),
(735,396,o),
(735,274,cs),
(735,152,o),
(692,73,o),
(597,73,cs)
);
}
);
userData = {
com.schriftgestaltung.Glyphs.glyph.leftMetricsKey = "on-georgian";
com.schriftgestaltung.Glyphs.glyph.rightMetricsKey = "on-georgian";
};
width = 881;
},
{
associatedMasterId = m002;
layerId = "69FC1B64-AD2B-47F2-B47C-862D5CC80925";
name = "Feb 24 17, 14:38";
shapes = (
{
closed = 1;
nodes = (
(585,-201,l),
(536,-112,o),
(474,-77,o),
(354,-38,cs),
(200,12,o),
(144,109,o),
(144,272,cs),
(144,400,o),
(189,473,o),
(267,473,cs),
(355,473,o),
(381,419,o),
(381,275,cs),
(381,87,o),
(451,-10,o),
(589,-10,cs),
(724,-10,o),
(794,89,o),
(794,272,cs),
(794,443,o),
(717,546,o),
(588,546,cs),
(507,546,o),
(458,515,o),
(427,443,c),
(422,443,l),
(396,512,o),
(343,546,o),
(261,546,cs),
(131,546,o),
(56,444,o),
(56,272,cs),
(56,119,o),
(111,15,o),
(223,-50,c),
(168,-59,o),
(136,-72,o),
(97,-91,c),
(128,-162,l),
(195,-127,o),
(237,-116,o),
(298,-116,cs),
(393,-116,o),
(478,-165,o),
(515,-240,c)
);
},
{
closed = 1;
nodes = (
(507,64,o),
(469,133,o),
(469,274,cs),
(469,419,o),
(503,473,o),
(591,473,cs),
(663,473,o),
(706,402,o),
(706,273,cs),
(706,137,o),
(666,64,o),
(587,64,cs)
);
}
);
userData = {
com.schriftgestaltung.Glyphs.glyph.leftMetricsKey = "on-georgian";
com.schriftgestaltung.Glyphs.glyph.rightMetricsKey = "on-georgian";
};
width = 850;
},
{
associatedMasterId = m002;
layerId = "118B75CA-31B8-469B-A2D1-1DBC4A0392EB";
name = "Feb 27 17, 11:59";
shapes = (
{
closed = 1;
nodes = (
(615,-240,l),
(587,-117,o),
(479,-80,o),
(363,-30,cs),
(247,20,o),
(145,96,o),
(145,286,cs),
(145,406,o),
(188,473,o),
(257,473,cs),
(325,473,o),
(370,426,o),
(370,323,cs),
(370,274,ls),
(370,101,o),
(461,0,o),
(599,0,cs),
(727,0,o),
(826,101,o),
(826,274,cs),
(826,446,o),
(736,546,o),
(598,546,cs),
(523,546,o),
(452,509,o),
(424,433,c),
(419,433,l),
(396,509,o),
(339,546,o),
(254,546,cs),
(124,546,o),
(55,434,o),
(55,284,cs),
(55,119,o),
(134,11,o),
(271,-54,c),
(271,-57,l),
(210,-60,o),
(173,-73,o),
(142,-88,c),
(172,-150,l),
(226,-125,o),
(267,-113,o),
(323,-113,cs),
(400,-113,o),
(509,-156,o),
(540,-240,c)
);
},
{
closed = 1;
nodes = (
(504,73,o),
(461,152,o),
(461,274,cs),
(461,396,o),
(504,472,o),
(598,472,cs),
(693,472,o),
(735,396,o),
(735,274,cs),
(735,152,o),
(692,73,o),
(597,73,cs)
);
}
);
userData = {
com.schriftgestaltung.Glyphs.glyph.leftMetricsKey = "on-georgian";
com.schriftgestaltung.Glyphs.glyph.rightMetricsKey = "on-georgian";
};
width = 881;
},
{
layerId = m004;
shapes = (
{
closed = 1;
nodes = (
(690,-184,l),
(648,-102,o),
(580,-55,o),
(447,-4,cs),
(321,44,o),
(234,136,o),
(234,283,cs),
(234,350,o),
(246,421,o),
(300,421,cs),
(352,421,o),
(366,376,o),
(366,306,cs),
(366,280,ls),
(366,113,o),
(466,10,o),
(633,10,cs),
(789,10,o),
(898,113,o),
(898,288,cs),
(898,461,o),
(793,563,o),
(639,563,cs),
(554,563,o),
(487,526,o),
(459,462,c),
(454,462,l),
(423,526,o),
(363,563,o),
(272,563,cs),
(127,563,o),
(42,445,o),
(42,283,cs),
(42,137,o),
(129,16,o),
(258,-39,c),
(258,-43,l),
(204,-48,o),
(175,-61,o),
(151,-73,c),
(206,-192,l),
(248,-167,o),
(306,-148,o),
(360,-148,cs),
(421,-148,o),
(497,-173,o),
(553,-250,c)
);
},
{
closed = 1;
nodes = (
(577,152,o),
(560,203,o),
(560,288,cs),
(560,372,o),
(577,421,o),
(632,421,cs),
(685,421,o),
(704,372,o),
(704,288,cs),
(704,203,o),
(687,152,o),
(631,152,cs)
);
}
);
userData = {
com.schriftgestaltung.Glyphs.glyph.leftMetricsKey = "on-georgian";
com.schriftgestaltung.Glyphs.glyph.rightMetricsKey = "on-georgian";
};
width = 940;
},
{
layerId = m005;
shapes = (
{
closed = 1;
nodes = (
(414,-240,l),
(386,-157,o),
(329,-114,o),
(264,-74,cs),
(168,-15,o),
(72,60,o),
(72,284,cs),
(72,429,o),
(96,512,o),
(174,512,cs),
(251,512,o),
(266,443,o),
(266,324,cs),
(266,264,ls),
(266,77,o),
(312,-10,o),
(405,-10,cs),
(498,-10,o),
(547,77,o),
(547,266,cs),
(547,444,o),
(502,537,o),
(406,537,cs),
(348,537,o),
(299,498,o),
(284,396,c),
(282,396,l),
(281,490,o),
(242,537,o),
(173,537,cs),
(76,537,o),
(45,441,o),
(45,284,cs),
(45,112,o),
(102,-12,o),
(234,-79,c),
(234,-80,l),
(188,-78,o),
(148,-83,o),
(114,-98,c),
(123,-117,l),
(152,-103,o),
(187,-98,o),
(222,-98,cs),
(296,-98,o),
(368,-178,o),
(390,-250,c)
);
},
{
closed = 1;
nodes = (
(327,15,o),
(292,94,o),
(292,265,cs),
(292,424,o),
(327,512,o),
(406,512,cs),
(488,512,o),
(521,424,o),
(521,266,cs),
(521,94,o),
(485,15,o),
(406,15,cs)
);
}
);
userData = {
com.schriftgestaltung.Glyphs.glyph.leftMetricsKey = "on-georgian";
com.schriftgestaltung.Glyphs.glyph.rightMetricsKey = "on-georgian";
};
width = 592;
},
{
associatedMasterId = m005;
layerId = "3E45756C-9AA1-4172-B947-14D0F5474868";
name = "Feb 24 17, 14:57";
shapes = (
{
closed = 1;
nodes = (
(339,537,o),
(290,498,o),
(275,396,c),
(273,396,l),
(272,490,o),
(233,537,o),
(169,537,cs),
(77,537,o),
(46,432,o),
(46,272,cs),
(46,116,o),
(90,-2,o),
(182,-67,c),
(144,-69,o),
(99,-92,o),
(71,-115,c),
(84,-138,l),
(116,-114,o),
(153,-93,o),
(193,-93,cs),
(242,-93,o),
(308,-143,o),
(344,-240,c),
(367,-230,l),
(333,-134,o),
(286,-102,o),
(214,-57,cs),
(121,1,o),
(73,116,o),
(73,272,cs),
(73,429,o),
(97,512,o),
(170,512,cs),
(242,512,o),
(257,443,o),
(257,324,cs),
(257,264,ls),
(257,77,o),
(303,-10,o),
(396,-10,cs),
(489,-10,o),
(538,77,o),
(538,266,cs),
(538,444,o),
(493,537,o),
(397,537,cs)
);
},
{
closed = 1;
nodes = (
(318,15,o),
(283,94,o),
(283,265,cs),
(283,424,o),
(318,512,o),
(397,512,cs),
(479,512,o),
(512,424,o),
(512,266,cs),
(512,94,o),
(476,15,o),
(397,15,cs)
);
}
);
userData = {
com.schriftgestaltung.Glyphs.glyph.leftMetricsKey = "on-georgian";
com.schriftgestaltung.Glyphs.glyph.rightMetricsKey = "on-georgian";
};
width = 550;
},
{
layerId = m006;
shapes = (
{
closed = 1;
nodes = (
(453,-226,l),
(421,-140,o),
(362,-94,o),
(282,-48,cs),
(197,1,o),
(124,83,o),
(124,271,cs),
(124,412,o),
(143,476,o),
(193,476,cs),
(236,476,o),
(257,440,o),
(257,327,cs),
(257,269,ls),
(257,112,o),
(306,0,o),
(424,0,cs),
(536,0,o),
(588,111,o),
(588,269,cs),
(588,446,o),
(539,547,o),
(422,547,cs),
(367,547,o),
(318,514,o),
(301,441,c),
(298,441,l),
(282,514,o),
(236,547,o),
(185,547,cs),
(93,547,o),
(42,450,o),
(42,271,cs),
(42,116,o),
(102,-6,o),
(203,-66,c),
(203,-69,l),
(171,-71,o),
(137,-82,o),
(116,-95,c),
(140,-145,l),
(171,-127,o),
(201,-119,o),
(229,-119,cs),
(298,-119,o),
(355,-168,o),
(388,-250,c)
);
},
{
closed = 1;
nodes = (
(362,71,o),
(339,140,o),
(339,269,cs),
(339,407,o),
(362,476,o),
(422,476,cs),
(484,476,o),
(505,407,o),
(505,269,cs),
(505,142,o),
(483,71,o),
(422,71,cs)
);
}
);
userData = {
com.schriftgestaltung.Glyphs.glyph.leftMetricsKey = "on-georgian";
com.schriftgestaltung.Glyphs.glyph.rightMetricsKey = "on-georgian";
};
width = 630;
},
{
layerId = m008;
shapes = (
{
closed = 1;
nodes = (
(553,-198,l),
(521,-108,o),
(460,-59,o),
(377,-17,cs),
(290,27,o),
(202,101,o),
(202,277,cs),
(202,382,o),
(218,428,o),
(252,428,cs),
(284,428,o),
(291,390,o),
(291,316,cs),
(291,278,ls),
(291,156,o),
(342,10,o),
(507,10,cs),
(665,10,o),
(722,152,o),
(722,288,cs),
(722,437,o),
(662,563,o),
(515,563,cs),
(457,563,o),
(395,531,o),
(373,470,c),
(370,470,l),
(349,531,o),
(300,563,o),
(234,563,cs),
(111,563,o),
(38,453,o),
(38,279,cs),
(38,143,o),
(96,18,o),
(211,-40,c),
(211,-44,l),
(169,-48,o),
(138,-58,o),
(114,-70,c),
(160,-176,l),
(194,-156,o),
(238,-145,o),
(277,-145,cs),
(335,-145,o),
(392,-171,o),
(425,-250,c)
);
},
{
closed = 1;
nodes = (
(466,145,o),
(455,196,o),
(455,287,cs),
(455,379,o),
(466,428,o),
(506,428,cs),
(544,428,o),
(558,380,o),
(558,286,cs),
(558,197,o),
(544,145,o),
(506,145,cs)
);
}
);
userData = {
com.schriftgestaltung.Glyphs.glyph.leftMetricsKey = "on-georgian";
com.schriftgestaltung.Glyphs.glyph.rightMetricsKey = "on-georgian";
};
width = 760;
}
);
note = uni10D3;
unicode = 4307;
}
{
glyphname = "en-georgian";
kernLeft = "en-georgian";
kernRight = "en-georgian";
layers = (
{
anchors = (
{
name = top;
pos = (284,528);
}
);
layerId = m001;
shapes = (
{
closed = 1;
nodes = (
(425,-250,o),
(483,-142,o),
(483,3,c),
(483,308,l),
(483,443,o),
(423,538,o),
(277,538,c),
(153,538,o),
(82,454,o),
(82,350,c),
(82,316,o),
(89,290,o),
(93,278,c),
(118,278,l),
(115,289,o),
(108,314,o),
(108,350,c),
(108,442,o),
(171,513,o),
(277,513,c),
(402,513,o),
(457,434,o),
(457,308,c),
(457,3,l),
(457,-127,o),
(405,-225,o),
(272,-225,c),
(155,-225,o),
(80,-159,o),
(80,-25,c),
(80,16,o),
(88,48,o),
(99,74,c),
(74,74,l),
(63,49,o),
(54,20,o),
(54,-25,c),
(54,-173,o),
(135,-250,o),
(272,-250,c)
);
}
);
userData = {
com.schriftgestaltung.Glyphs.glyph.leftMetricsKey = "=on-georgian-5";
com.schriftgestaltung.Glyphs.glyph.rightMetricsKey = "jil-georgian";
};
width = 568;
},
{
anchors = (
{
name = top;
pos = (294,536);
}
);
layerId = m002;
shapes = (
{
closed = 1;
nodes = (
(428,-250,o),
(513,-157,o),
(513,6,cs),
(513,318,ls),
(513,463,o),
(428,546,o),
(298,546,cs),
(176,546,o),
(79,477,o),
(79,343,cs),
(79,314,o),
(86,284,o),
(92,268,c),
(176,268,l),
(171,286,o),
(167,313,o),
(167,343,cs),
(167,428,o),
(220,473,o),
(298,473,cs),
(384,473,o),
(425,415,o),
(425,314,cs),
(425,10,ls),
(425,-103,o),
(384,-177,o),
(281,-177,cs),
(185,-177,o),
(138,-103,o),
(138,-5,cs),
(138,24,o),
(145,63,o),
(152,84,c),
(68,84,l),
(59,61,o),
(50,25,o),
(50,-13,cs),
(50,-157,o),
(144,-250,o),
(281,-250,cs)
);
}
);
userData = {
com.schriftgestaltung.Glyphs.glyph.leftMetricsKey = "=on-georgian-5";
com.schriftgestaltung.Glyphs.glyph.rightMetricsKey = "jil-georgian";
};
width = 588;
},
{
anchors = (
{
name = top;
pos = (302,546);
}
);
layerId = m003;
shapes = (
{
closed = 1;
nodes = (
(453,-250,o),
(544,-153,o),
(544,12,cs),
(544,319,ls),
(544,467,o),
(451,556,o),
(303,556,cs),
(168,556,o),
(64,481,o),
(64,345,cs),
(64,308,o),
(71,283,o),
(80,257,c),
(223,257,l),
(215,287,o),
(213,312,o),
(213,337,cs),
(213,400,o),
(248,436,o),
(305,436,cs),
(366,436,o),
(395,394,o),
(395,319,cs),
(395,15,ls),
(395,-73,o),
(369,-130,o),
(292,-130,cs),
(220,-130,o),
(189,-69,o),
(189,4,cs),
(189,33,o),
(194,69,o),
(201,96,c),
(61,96,l),
(47,65,o),
(40,32,o),
(40,-7,cs),
(40,-150,o),
(136,-250,o),
(292,-250,cs)
);
}
);
userData = {
com.schriftgestaltung.Glyphs.glyph.leftMetricsKey = "=on-georgian-5";
com.schriftgestaltung.Glyphs.glyph.rightMetricsKey = "jil-georgian";
};
width = 604;
},
{
anchors = (
{
name = top;
pos = (312,553);
}
);
layerId = m004;
shapes = (
{
closed = 1;
nodes = (
(475,-250,o),
(569,-150,o),
(569,16,cs),
(569,320,ls),
(569,470,o),
(471,563,o),
(311,563,cs),
(167,563,o),
(58,484,o),
(58,347,cs),
(58,304,o),
(64,282,o),
(76,250,c),
(260,250,l),
(250,288,o),
(249,311,o),
(249,332,cs),
(249,390,o),
(271,421,o),
(314,421,cs),
(357,421,o),
(378,390,o),
(378,323,c),
(378,18,l),
(378,-63,o),
(363,-108,o),
(304,-108,cs),
(249,-108,o),
(228,-56,o),
(228,11,cs),
(228,40,o),
(232,73,o),
(239,105,c),
(60,105,l),
(43,68,o),
(37,37,o),
(37,-3,cs),
(37,-145,o),
(135,-250,o),
(303,-250,cs)
);
}
);
userData = {
com.schriftgestaltung.Glyphs.glyph.leftMetricsKey = "=on-georgian-5";
com.schriftgestaltung.Glyphs.glyph.rightMetricsKey = "jil-georgian";
};
width = 624;
},
{
anchors = (
{
name = top;
pos = (202,527);
}
);
layerId = m005;
shapes = (
{
closed = 1;
nodes = (
(275,-250,o),
(338,-189,o),
(338,-34,cs),
(338,366,ls),
(338,494,o),
(265,537,o),
(202,537,cs),
(119,537,o),
(61,488,o),
(61,367,cs),
(61,338,o),
(65,309,o),
(73,280,c),
(98,280,l),
(92,307,o),
(88,335,o),
(88,367,cs),
(88,485,o),
(143,512,o),
(202,512,cs),
(264,512,o),
(312,467,o),
(312,361,cs),
(312,-33,ls),
(312,-164,o),
(266,-225,o),
(189,-225,cs),
(110,-225,o),
(67,-164,o),
(67,-48,cs),
(67,13,o),
(78,50,o),
(86,71,c),
(61,71,l),
(54,54,o),
(40,12,o),
(40,-48,cs),
(40,-159,o),
(81,-250,o),
(189,-250,cs)
);
}
);
userData = {
com.schriftgestaltung.Glyphs.glyph.leftMetricsKey = "=on-georgian-5";
com.schriftgestaltung.Glyphs.glyph.rightMetricsKey = "jil-georgian";
};
width = 403;
},
{
anchors = (
{
name = top;
pos = (221,537);
}
);
layerId = m006;
shapes = (
{
closed = 1;
nodes = (
(319,-250,o),
(381,-163,o),
(381,-24,cs),
(381,367,ls),
(381,488,o),
(310,547,o),
(218,547,cs),
(120,547,o),
(54,485,o),
(54,372,cs),
(54,334,o),
(59,310,o),
(70,274,c),
(146,274,l),
(138,307,o),
(135,332,o),
(135,367,cs),
(135,435,o),
(163,476,o),
(217,476,cs),
(270,476,o),
(300,438,o),
(300,367,cs),
(300,-24,ls),
(300,-121,o),
(272,-179,o),
(209,-179,cs),
(139,-179,o),
(118,-107,o),
(118,-41,cs),
(118,25,o),
(130,62,o),
(135,79,c),
(61,79,l),
(50,56,o),
(37,15,o),
(37,-44,cs),
(37,-137,o),
(85,-250,o),
(210,-250,cs)
);
}
);
userData = {
com.schriftgestaltung.Glyphs.glyph.leftMetricsKey = "=on-georgian-5";
com.schriftgestaltung.Glyphs.glyph.rightMetricsKey = "jil-georgian";
};
width = 441;
},
{
anchors = (
{
name = top;
pos = (243,547);
}
);
layerId = m007;
shapes = (
{
closed = 1;
nodes = (
(360,-250,o),
(430,-162,o),
(430,-7,cs),
(430,359,ls),
(430,488,o),
(356,557,o),
(242,557,cs),
(133,557,o),
(52,495,o),
(52,370,cs),
(52,329,o),
(58,303,o),
(70,266,c),
(191,266,l),
(185,298,o),
(182,328,o),
(182,359,cs),
(182,411,o),
(200,447,o),
(241,447,cs),
(280,447,o),
(300,416,o),
(300,359,cs),
(300,-5,ls),
(300,-96,o),
(279,-140,o),
(233,-140,cs),
(183,-140,o),
(166,-79,o),
(166,-16,cs),
(166,31,o),
(174,66,o),
(180,89,c),
(58,89,l),
(46,58,o),
(37,19,o),
(37,-26,cs),
(37,-141,o),
(104,-250,o),
(235,-250,cs)
);
}
);
userData = {
com.schriftgestaltung.Glyphs.glyph.leftMetricsKey = "=on-georgian-5";
com.schriftgestaltung.Glyphs.glyph.rightMetricsKey = "jil-georgian";
};
width = 485;
},
{
anchors = (
{
name = top;
pos = (254,553);
}
);
layerId = m008;
shapes = (
{
closed = 1;
nodes = (
(382,-250,o),
(458,-161,o),
(458,-2,cs),
(458,353,ls),
(458,488,o),
(382,563,o),
(253,563,cs),
(138,563,o),
(47,502,o),
(47,369,cs),
(47,325,o),
(53,298,o),
(66,260,c),
(217,260,l),
(211,292,o),
(208,325,o),
(208,353,cs),
(208,395,o),
(220,428,o),
(253,428,cs),
(283,428,o),
(296,401,o),
(296,353,cs),
(296,3,ls),
(296,-85,o),
(280,-115,o),
(245,-115,cs),
(208,-115,o),
(193,-61,o),
(193,1,cs),
(193,35,o),
(199,69,o),
(205,96,c),
(52,96,l),
(39,59,o),
(33,21,o),
(33,-14,cs),
(33,-143,o),
(112,-250,o),
(247,-250,cs)
);
}
);
userData = {
com.schriftgestaltung.Glyphs.glyph.leftMetricsKey = "=on-georgian-5";
com.schriftgestaltung.Glyphs.glyph.rightMetricsKey = "jil-georgian";
};
width = 508;
},
{
associatedMasterId = m008;
layerId = "3FD6541B-0B89-4619-87B2-B3692F454E28";
name = "Feb 21 17, 14:31";
shapes = (
{
closed = 1;
nodes = (
(402,-240,o),
(478,-157,o),
(478,41,cs),
(478,281,ls),
(478,478,o),
(408,563,o),
(265,563,cs),
(127,563,o),
(46,478,o),
(46,332,cs),
(46,295,o),
(51,264,o),
(59,238,c),
(223,264,l),
(220,281,o),
(216,295,o),
(216,332,cs),
(216,392,o),
(228,428,o),
(265,428,cs),
(303,428,o),
(316,392,o),
(316,269,cs),
(316,40,ls),
(316,-68,o),
(299,-104,o),
(257,-104,cs),
(215,-104,o),
(200,-68,o),
(200,-4,cs),
(200,34,o),
(206,73,o),
(220,111,c),
(53,111,l),
(37,73,o),
(30,33,o),
(30,-7,cs),
(30,-157,o),
(110,-240,o),
(256,-240,cs)
);
}
);
userData = {
com.schriftgestaltung.Glyphs.glyph.leftMetricsKey = "=on-georgian-5";
com.schriftgestaltung.Glyphs.glyph.rightMetricsKey = "jil-georgian";
};
width = 527;
}
);
note = uni10D4;
unicode = 4308;
}
{
glyphname = "vin-georgian";
kernLeft = "en-georgian";
layers = (
{
layerId = m001;
shapes = (
{
closed = 1;
nodes = (
(432,-250,o),
(496,-146,o),
(496,-21,cs),
(496,95,o),
(421,167,o),
(339,180,c),
(339,182,l),
(421,198,o),
(473,257,o),
(473,358,cs),
(473,443,o),
(413,538,o),
(280,538,cs),
(153,538,o),
(82,454,o),
(82,360,cs),
(82,336,o),
(89,310,o),
(93,298,c),
(118,298,l),
(115,309,o),
(108,334,o),
(108,360,cs),
(108,442,o),
(171,513,o),
(280,513,cs),
(392,513,o),
(447,436,o),
(447,358,cs),
(447,250,o),
(386,194,o),
(283,194,cs),
(230,194,l),
(230,169,l),
(275,169,ls),
(386,169,o),
(469,99,o),
(469,-21,cs),
(469,-131,o),
(412,-225,o),
(275,-225,cs),
(155,-225,o),
(80,-159,o),
(80,-45,cs),
(80,-4,o),
(88,28,o),
(99,54,c),
(74,54,l),
(63,29,o),
(54,0,o),
(54,-45,cs),
(54,-173,o),
(135,-250,o),
(275,-250,cs)
);
}
);
userData = {
com.schriftgestaltung.Glyphs.glyph.leftMetricsKey = "=on-georgian-5";
com.schriftgestaltung.Glyphs.glyph.rightMetricsKey = "=on-georgian-5";
};
width = 550;
},
{
layerId = m002;
shapes = (
{
closed = 1;
nodes = (
(436,-250,o),
(531,-157,o),
(531,-14,cs),
(531,104,o),
(455,168,o),
(371,181,c),
(371,185,l),
(455,203,o),
(511,265,o),
(511,358,cs),
(511,463,o),
(423,546,o),
(297,546,cs),
(170,546,o),
(82,467,o),
(82,362,cs),
(82,342,o),
(85,320,o),
(92,298,c),
(178,298,l),
(172,319,o),
(170,338,o),
(170,355,cs),
(170,428,o),
(214,473,o),
(297,473,cs),
(379,473,o),
(423,417,o),
(423,352,cs),
(423,280,o),
(385,219,o),
(290,219,cs),
(244,219,l),
(244,146,l),
(283,146,ls),
(391,146,o),
(440,80,o),
(440,-10,cs),
(440,-103,o),
(392,-177,o),
(291,-177,cs),
(185,-177,o),
(138,-103,o),
(138,-25,cs),
(138,4,o),
(145,43,o),
(152,64,c),
(68,64,l),
(59,41,o),
(50,5,o),
(50,-33,cs),
(50,-157,o),
(144,-250,o),
(291,-250,cs)
);
}
);
userData = {
com.schriftgestaltung.Glyphs.glyph.leftMetricsKey = "=on-georgian-5";
com.schriftgestaltung.Glyphs.glyph.rightMetricsKey = "=on-georgian-5";
};
width = 581;
},
{
layerId = m004;
shapes = (
{
closed = 1;
nodes = (
(485,-250,o),
(586,-150,o),
(586,-13,cs),
(586,98,o),
(512,161,o),
(425,177,c),
(425,180,l),
(512,201,o),
(567,255,o),
(567,359,cs),
(567,471,o),
(472,563,o),
(315,563,cs),
(168,563,o),
(59,484,o),
(59,357,cs),
(59,327,o),
(64,312,o),
(71,291,c),
(257,291,l),
(252,309,o),
(250,321,o),
(250,342,cs),
(250,390,o),
(272,421,o),
(313,421,cs),
(354,421,o),
(375,390,o),
(375,335,cs),
(375,284,o),
(359,244,o),
(305,244,cs),
(267,244,l),
(267,103,l),
(305,103,ls),
(354,103,o),
(392,74,o),
(392,0,cs),
(392,-58,o),
(373,-108,o),
(312,-108,cs),
(251,-108,o),
(228,-56,o),
(228,-5,cs),
(228,15,o),
(231,37,o),
(235,58,c),
(51,58,l),
(43,32,o),
(37,5,o),
(37,-30,cs),
(37,-151,o),
(134,-250,o),
(311,-250,cs)
);
}
);
userData = {
com.schriftgestaltung.Glyphs.glyph.leftMetricsKey = "=on-georgian-5";
com.schriftgestaltung.Glyphs.glyph.rightMetricsKey = "=on-georgian-5";
};
width = 623;
},
{
layerId = m005;
shapes = (
{
closed = 1;
nodes = (
(285,-250,o),
(347,-181,o),
(347,-26,cs),
(347,105,o),
(304,168,o),
(230,183,c),
(230,185,l),
(297,204,o),
(336,275,o),
(336,365,cs),
(336,488,o),
(273,537,o),
(200,537,cs),
(119,537,o),
(61,488,o),
(61,377,cs),
(61,348,o),
(65,319,o),
(73,300,c),
(98,300,l),
(92,317,o),
(88,345,o),
(88,377,cs),
(88,485,o),
(143,512,o),
(200,512,cs),
(261,512,o),
(310,468,o),
(310,365,cs),
(310,260,o),
(259,196,o),
(187,196,cs),
(158,196,l),
(158,171,l),
(185,171,ls),
(260,171,o),
(320,126,o),
(320,-25,cs),
(320,-156,o),
(276,-225,o),
(189,-225,cs),
(110,-225,o),
(68,-164,o),
(67,-58,cs),
(67,-7,o),
(78,30,o),
(86,51,c),
(61,51,l),
(54,34,o),
(40,-8,o),
(40,-58,cs),
(40,-159,o),
(81,-250,o),
(189,-250,cs)
);
}
);
userData = {
com.schriftgestaltung.Glyphs.glyph.leftMetricsKey = "=on-georgian-5";
com.schriftgestaltung.Glyphs.glyph.rightMetricsKey = "=on-georgian-5";
};
width = 387;
},
{
layerId = m006;
shapes = (
{
closed = 1;
nodes = (
(319,-250,o),
(391,-168,o),
(391,-19,cs),
(391,104,o),
(343,165,o),
(271,183,c),
(271,187,l),
(343,215,o),
(381,283,o),
(381,367,cs),
(381,488,o),
(310,547,o),
(218,547,cs),
(120,547,o),
(54,485,o),
(54,382,cs),
(54,350,o),
(57,333,o),
(68,299,c),
(144,299,l),
(138,332,o),
(135,346,o),
(135,377,cs),
(135,435,o),
(163,476,o),
(217,476,cs),
(270,476,o),
(300,438,o),
(300,359,cs),
(300,274,o),
(260,219,o),
(196,219,cs),
(167,219,l),
(167,146,l),
(199,146,ls),
(261,146,o),
(308,94,o),
(308,-19,cs),
(308,-126,o),
(272,-179,o),
(209,-179,cs),
(139,-179,o),
(118,-107,o),
(118,-51,cs),
(118,-3,o),
(125,33,o),
(132,56,c),
(58,56,l),
(47,30,o),
(37,-11,o),
(37,-54,cs),
(37,-137,o),
(85,-250,o),
(210,-250,cs)
);
}
);
userData = {
com.schriftgestaltung.Glyphs.glyph.leftMetricsKey = "=on-georgian-5";
com.schriftgestaltung.Glyphs.glyph.rightMetricsKey = "=on-georgian-5";
};
width = 428;
},
{
layerId = m008;
shapes = (
{
closed = 1;
nodes = (
(395,-250,o),
(473,-147,o),
(473,-16,cs),
(473,96,o),
(419,166,o),
(346,187,c),
(346,190,l),
(419,219,o),
(461,280,o),
(461,372,cs),
(461,487,o),
(375,563,o),
(255,563,cs),
(141,563,o),
(50,498,o),
(50,379,cs),
(50,335,o),
(56,318,o),
(69,290,c),
(220,290,l),
(214,312,o),
(211,335,o),
(211,363,cs),
(211,395,o),
(223,428,o),
(255,428,cs),
(286,428,o),
(299,401,o),
(299,344,cs),
(299,289,o),
(286,246,o),
(246,246,cs),
(221,246,l),
(221,113,l),
(241,113,ls),
(287,113,o),
(309,71,o),
(309,-4,cs),
(309,-80,o),
(293,-115,o),
(253,-115,cs),
(212,-115,o),
(195,-64,o),
(195,-10,cs),
(195,16,o),
(199,43,o),
(205,66,c),
(52,66,l),
(39,36,o),
(33,5,o),
(33,-25,cs),
(33,-157,o),
(123,-250,o),
(255,-250,cs)
);
}
);
userData = {
com.schriftgestaltung.Glyphs.glyph.leftMetricsKey = "=on-georgian-5";
com.schriftgestaltung.Glyphs.glyph.rightMetricsKey = "=on-georgian-5";
};
width = 506;
}
);
note = uni10D5;
unicode = 4309;
}
